<svg width="13" height="14" viewBox="0 0 13 14" fill="none" xmlns="http://www.w3.org/2000/svg">
<path d="M7.23897 1.79427L2.80178 6.88571C2.61422 7.12492 2.48916 7.41422 2.43965 7.72354L2.23968 9.6277C2.21355 9.77587 2.22235 9.92879 2.26524 10.0723C2.30813 10.2158 2.38375 10.3452 2.48507 10.4487C2.58638 10.5521 2.71011 10.6261 2.84483 10.6639C2.97955 10.7016 3.12089 10.7019 3.25575 10.6647L4.99065 10.3366C5.2748 10.2701 5.53656 10.1201 5.74729 9.90307L10.1845 4.81163C10.952 3.93279 11.2979 2.93091 10.1034 1.70639C8.93602 0.487727 8.00643 0.915428 7.23897 1.79427Z" stroke="black" stroke-linecap="round" stroke-linejoin="round"/>
<path d="M6.55392 3.11665C6.6792 3.68008 7.06595 4.19826 7.65351 4.58997C8.24107 4.98168 8.99625 5.22477 9.80068 5.28115" stroke="black" stroke-linecap="round" stroke-linejoin="round"/>
<path d="M1.14261 12.8569H11.9651" stroke="black" stroke-linecap="round" stroke-linejoin="round"/>
</svg>
