<svg width="17" height="17" viewBox="0 0 17 17" fill="none" xmlns="http://www.w3.org/2000/svg">
<path d="M16.7555 15.55C16.6584 15.4411 16.5509 15.3425 16.4475 15.2399L13.607 12.4096C16.488 8.68868 15.3507 3.86553 12.215 1.51956C10.7281 0.409009 8.88743 -0.122662 7.03687 0.0238722C5.1863 0.170407 3.45243 0.98512 2.15917 2.31581C0.865922 3.64651 0.101761 5.40215 0.00945719 7.25473C-0.0828466 9.10731 0.50302 10.9301 1.6576 12.3826C4.09698 15.4498 8.79029 16.3803 12.402 13.6017L13.8282 15.0331C14.4004 15.6049 14.9647 16.1838 15.5481 16.7437C15.6268 16.8252 15.7212 16.89 15.8257 16.934C15.9301 16.9781 16.0424 17.0005 16.1558 17C16.2691 16.9995 16.3812 16.976 16.4852 16.931C16.5893 16.886 16.6831 16.8204 16.761 16.7381C17.081 16.4073 17.0802 15.9166 16.7555 15.55ZM7.61795 13.5548C6.44309 13.5552 5.29448 13.2075 4.31744 12.5556C3.3404 11.9036 2.57883 10.9768 2.12908 9.89227C1.67933 8.80777 1.56162 7.61434 1.79082 6.46298C2.02003 5.31161 2.58586 4.25404 3.41672 3.42406C4.24759 2.59408 5.30616 2.02899 6.45852 1.80028C7.61087 1.57156 8.80522 1.68951 9.89048 2.13919C10.9757 2.58886 11.9031 3.35007 12.5553 4.3265C13.2075 5.30293 13.5552 6.45071 13.5544 7.62464C13.5558 8.40391 13.4032 9.17579 13.1053 9.89598C12.8074 10.6162 12.3702 11.2705 11.8186 11.8215C11.2671 12.3724 10.6121 12.8091 9.89124 13.1066C9.17038 13.404 8.39785 13.5563 7.61795 13.5548Z" fill="black"/>
</svg>
