<svg width="15" height="15" viewBox="0 0 15 15" fill="none" xmlns="http://www.w3.org/2000/svg">
<path d="M10.9893 3.82539C10.9917 4.33028 10.8945 4.83068 10.7033 5.29788C10.512 5.76508 10.2306 6.1899 9.87499 6.54795C9.5194 6.90601 9.09669 7.19026 8.63112 7.3844C8.16554 7.57854 7.66626 7.67875 7.16191 7.67928C6.14853 7.6766 5.17729 7.27297 4.45996 6.55638C3.74262 5.8398 3.33737 4.86836 3.33254 3.85389C3.33093 3.34888 3.42881 2.84851 3.62056 2.3814C3.81231 1.9143 4.09418 1.48963 4.45004 1.13168C4.8059 0.773732 5.22877 0.48953 5.69445 0.295346C6.16013 0.101161 6.65948 0.000800326 7.16395 0C8.17728 0.00161178 9.14871 0.405028 9.86563 1.12196C10.5826 1.8389 10.9866 2.81096 10.9893 3.82539Z" fill="#EB1E26"/>
<path d="M7.93465 13.4C7.89601 13.683 8.00583 13.9864 8.05463 14.308H1.38628C0.4813 14.308 0.0216939 13.8479 0.0176266 12.942C0.0216942 12.866 0.0216942 12.7899 0.0176266 12.7139C-0.126763 11.2155 0.627723 10.2322 1.84792 9.52578C3.25521 8.71143 4.80282 8.39384 6.4033 8.30426C6.97476 8.26965 7.55029 8.30426 8.19699 8.30426C7.76382 8.9822 7.835 9.55835 8.36782 10.1141C7.89398 10.1264 7.48521 10.2343 7.25744 10.6129C7.10468 10.858 7.01846 11.1387 7.0073 11.4273C7.0073 12.0869 7.50961 12.5042 8.28647 12.5735C8.16445 12.8422 7.97735 13.1109 7.93465 13.4Z" fill="#EB1E26"/>
<path d="M14.9956 11.2767C14.9549 10.9794 14.7333 10.7962 14.3469 10.8288C13.9605 10.8613 13.6798 10.786 13.6087 10.3442C13.5734 10.2303 13.522 10.122 13.4561 10.0226L13.4073 9.93503C13.505 9.86377 13.6107 9.80066 13.6961 9.72126C13.7872 9.64368 13.8715 9.55855 13.9483 9.46678C14.036 9.36793 14.0826 9.23921 14.0784 9.10706C14.0742 8.97491 14.0197 8.84939 13.9259 8.75627C13.8335 8.66209 13.7084 8.60721 13.5765 8.60304C13.4447 8.59887 13.3164 8.64573 13.2182 8.73387C13.0982 8.8589 12.9719 8.97781 12.8399 9.09014C12.7409 9.14705 12.6247 9.16655 12.5125 9.14512C12.0184 9.04332 11.7438 8.77459 11.8679 8.22694C11.8738 8.19532 11.8738 8.16287 11.8679 8.13125C11.8496 7.99999 11.7815 7.88083 11.6777 7.79855C11.5739 7.71627 11.4425 7.6772 11.3106 7.68947C11.1832 7.69161 11.0617 7.74423 10.9729 7.83581C10.8841 7.92738 10.8352 8.05046 10.8368 8.17808C10.8246 8.36131 10.847 8.54861 10.8246 8.73184C10.8155 8.77353 10.7983 8.81299 10.7738 8.84794C10.7494 8.8829 10.7183 8.91263 10.6822 8.93542C10.2531 9.17769 9.83217 9.30595 9.51899 8.76237C9.51243 8.75335 9.50413 8.74573 9.49458 8.73998C9.39465 8.64551 9.26158 8.59425 9.12417 8.5973C8.98676 8.60035 8.85608 8.65746 8.76043 8.75627C8.67021 8.85251 8.62 8.97954 8.62 9.11152C8.62 9.24351 8.67021 9.37054 8.76043 9.46678C8.84483 9.57852 8.94021 9.68151 9.04515 9.7742C9.22004 9.91264 9.1936 10.0348 9.13666 10.2445C8.99837 10.7412 8.71569 10.9204 8.22762 10.8227C8.21687 10.8206 8.20583 10.8206 8.19508 10.8227C8.06323 10.8242 7.9372 10.8772 7.84378 10.9704C7.75035 11.0635 7.69691 11.1895 7.6948 11.3214C7.68849 11.4536 7.73342 11.5831 7.8202 11.6828C7.90697 11.7826 8.0289 11.845 8.16051 11.8569C8.3118 11.8752 8.46475 11.8752 8.61604 11.8569C8.83975 11.8304 8.90482 11.9424 9.01057 12.1256C9.26275 12.5633 9.1997 12.883 8.7889 13.1435C8.77214 13.1566 8.7577 13.1725 8.7462 13.1904C8.65643 13.2868 8.60651 13.4138 8.60651 13.5456C8.60651 13.6775 8.65643 13.8044 8.7462 13.9009C8.79299 13.9509 8.84931 13.991 8.91184 14.0189C8.97437 14.0467 9.04184 14.0618 9.11027 14.0631C9.1787 14.0644 9.2467 14.052 9.31026 14.0266C9.37382 14.0012 9.43166 13.9633 9.48035 13.9151C9.61864 13.795 9.73659 13.6484 9.88708 13.5304C9.91723 13.5069 9.95217 13.4903 9.98943 13.4819C10.0267 13.4734 10.0653 13.4733 10.1026 13.4815C10.5623 13.6362 11.0076 13.8134 10.8287 14.4506C10.8287 14.4608 10.8287 14.4709 10.8287 14.4832C10.8352 14.6149 10.8908 14.7394 10.9846 14.8322C11.0783 14.9249 11.2034 14.979 11.335 14.984C11.4669 14.9855 11.5945 14.937 11.6922 14.8483C11.7899 14.7595 11.8505 14.6371 11.8618 14.5055C11.8821 14.3223 11.8618 14.133 11.8801 13.9518C11.9019 13.8653 11.9557 13.7904 12.0306 13.7421C12.2339 13.6342 12.4698 13.5589 12.7606 13.4408C12.8806 13.5813 13.0108 13.7584 13.1674 13.909C13.2138 13.9631 13.2708 14.0071 13.3349 14.0382C13.399 14.0692 13.4688 14.0867 13.54 14.0896C13.6112 14.0925 13.6822 14.0806 13.7486 14.0548C13.815 14.029 13.8753 13.9898 13.9259 13.9396C13.9769 13.8901 14.0171 13.8306 14.0441 13.7648C14.071 13.699 14.0841 13.6284 14.0826 13.5574C14.0811 13.4863 14.0649 13.4163 14.0352 13.3517C14.0054 13.2872 13.9627 13.2295 13.9096 13.1822C13.7531 13.0194 13.5741 12.8789 13.4256 12.7445C13.4704 12.6427 13.4887 12.6163 13.4968 12.5857C13.6412 12.0707 13.9035 11.7571 14.5136 11.8548C14.8126 11.8956 15.0343 11.5637 14.9956 11.2767ZM11.335 12.773C11.1464 12.7747 10.9594 12.7385 10.785 12.6666C10.6106 12.5946 10.4524 12.4884 10.3197 12.3543C10.1869 12.2201 10.0825 12.0606 10.0123 11.8853C9.94224 11.71 9.90794 11.5225 9.91148 11.3337C9.90846 11.1457 9.94322 10.959 10.0137 10.7847C10.0842 10.6105 10.1889 10.4522 10.3217 10.3192C10.4545 10.1863 10.6126 10.0814 10.7867 10.0109C10.9608 9.94033 11.1473 9.90554 11.335 9.90856C11.5225 9.90666 11.7085 9.94222 11.8821 10.0132C12.0556 10.0841 12.2133 10.189 12.3459 10.3217C12.4785 10.4544 12.5832 10.6123 12.6541 10.7861C12.725 10.9598 12.7605 11.146 12.7586 11.3337C12.7605 11.522 12.725 11.7089 12.6544 11.8834C12.5837 12.058 12.4791 12.2167 12.3467 12.3506C12.2143 12.4844 12.0568 12.5907 11.8831 12.6632C11.7095 12.7357 11.5232 12.773 11.335 12.773Z" fill="#EB1E26"/>
</svg>
