<svg width="15" height="15" viewBox="0 0 15 15" fill="none" xmlns="http://www.w3.org/2000/svg">
<g clip-path="url(#clip0_3_13099)">
<path d="M9.59584 13.0761C9.52551 13.13 9.51087 13.1505 9.49504 13.1523C8.96 13.2009 8.72559 13.5374 8.60487 14.0245C8.52341 14.3533 8.37573 14.6657 8.25325 14.998C7.79498 14.998 7.34607 15.0063 6.89834 14.9893C6.8245 14.9893 6.72255 14.8873 6.68973 14.8093C6.52447 14.4131 6.38499 14.0063 6.21797 13.6112C6.17035 13.5125 6.09058 13.4329 5.99176 13.3856C5.48895 13.1511 4.97442 12.9442 4.47454 12.7051C4.32744 12.6341 4.22019 12.6183 4.0731 12.6927C3.68163 12.8914 3.2849 13.0802 2.88171 13.2537C2.83351 13.2709 2.78198 13.2767 2.73116 13.2707C2.68033 13.2647 2.63158 13.247 2.5887 13.2191C2.30592 12.9638 2.03638 12.6942 1.78115 12.4114C1.72606 12.3528 1.71317 12.1992 1.74774 12.1183C1.92355 11.708 2.13511 11.3089 2.31209 10.8968C2.35088 10.7853 2.34942 10.6638 2.30799 10.5533C2.11694 10.0426 1.91437 9.53675 1.70027 9.0358C1.65405 8.92707 1.57107 8.83805 1.46586 8.78434C0.987658 8.59208 0.500087 8.42269 0.00606482 8.24157C0.00606482 7.78848 -0.0039034 7.34888 0.0148495 6.91044C0.0177797 6.82897 0.118 6.71291 0.20063 6.6795C0.607335 6.5142 1.0281 6.38642 1.43129 6.21058C1.55237 6.1494 1.64846 6.0481 1.7032 5.92396C1.91652 5.43395 2.11342 4.93631 2.30036 4.43516C2.34315 4.31659 2.34315 4.1868 2.30036 4.06823C2.10287 3.61221 1.88077 3.16674 1.65573 2.68727C1.97277 2.3942 2.28865 2.09058 2.61917 1.80513C2.67016 1.76117 2.80201 1.76703 2.87409 1.79926C3.28431 1.98273 3.68223 2.1914 4.09479 2.36665C4.21546 2.40472 4.34575 2.39848 4.46223 2.34907C4.9838 2.13454 5.50028 1.9079 6.01169 1.66914C6.10831 1.61613 6.1835 1.53118 6.22441 1.42882C6.41018 0.959909 6.57896 0.479268 6.75594 -0.00312805H8.25853C8.40328 0.449961 8.55857 0.908918 8.69453 1.37373C8.74962 1.56305 8.84807 1.64511 9.03911 1.71076C9.52551 1.87723 9.99434 2.09703 10.4766 2.27815C10.5943 2.3244 10.7244 2.32834 10.8447 2.28929C11.249 2.1193 11.6446 1.92763 12.0361 1.72893C12.1814 1.65507 12.274 1.66035 12.3877 1.78754C12.6262 2.04545 12.8758 2.29397 13.1331 2.5337C13.2533 2.64566 13.2714 2.73885 13.1958 2.88539C12.9966 3.27635 12.8038 3.67141 12.6321 4.07526C12.5923 4.19549 12.5965 4.32592 12.6438 4.44336C12.8555 4.97675 13.079 5.50428 13.3142 6.02595C13.3637 6.13328 13.4506 6.21891 13.5586 6.26686C14.0344 6.43684 14.5185 6.58396 15.002 6.73987V8.23923C14.5841 8.37404 14.1721 8.52585 13.7502 8.63604C13.4859 8.70521 13.3142 8.81189 13.2972 9.10496C13.2931 9.17588 13.2474 9.24446 13.204 9.357C12.785 8.93791 12.3889 8.55282 12.0091 8.15131C11.9505 8.09269 11.9558 7.9526 11.9628 7.85237C12.1017 5.94447 11.3387 4.48205 9.68316 3.56766C7.99481 2.63569 6.3129 2.79102 4.76051 3.94162C3.30423 5.02013 2.6807 6.95088 3.17355 8.70462C3.67578 10.4929 5.18715 11.779 7.02318 11.9536C7.4082 11.9905 7.80142 11.9413 8.18995 11.9536C8.32719 11.956 8.45998 12.0026 8.56853 12.0867C8.91663 12.4032 9.24539 12.7373 9.59584 13.0761Z" fill="#EB1E26"/>
<path d="M4.65366 6.66797C5.13479 7.12223 5.5749 7.53547 6.01207 7.95222C6.62682 8.53836 7.49882 8.54246 8.08837 7.96159C8.69608 7.36138 8.71308 6.49624 8.12236 5.86437C7.90905 5.63636 7.68343 5.41948 7.46132 5.19909C7.23922 4.9787 7.01711 4.76242 6.75809 4.50569C7.3117 4.32794 7.90801 4.33453 8.45757 4.52445C10.0902 5.07484 10.9306 6.78872 10.3604 8.41058C10.2936 8.60049 10.3522 8.69251 10.4718 8.8115C11.8489 10.1839 13.2237 11.5584 14.5962 12.935C15.1377 13.479 15.1067 14.2445 14.5341 14.7058C14.3453 14.8641 14.1075 14.9523 13.8612 14.9554C13.6148 14.9585 13.3749 14.8763 13.1821 14.7228C13.0761 14.6365 12.9755 14.5437 12.8809 14.4449C11.5331 13.098 10.1871 11.7498 8.84318 10.4005C8.69375 10.2499 8.57594 10.2165 8.36556 10.2833C6.29395 10.9163 4.22351 9.12157 4.57454 7.00794C4.58978 6.90947 4.61967 6.81627 4.65366 6.66797Z" fill="#EB1E26"/>
</g>
<defs>
<clipPath id="clip0_3_13099">
<rect width="15" height="15" fill="white"/>
</clipPath>
</defs>
</svg>
