<svg width="12" height="14" viewBox="0 0 12 14" fill="none" xmlns="http://www.w3.org/2000/svg">
<path d="M11.3883 5.04374C10.781 5.40203 10.116 5.59006 9.43487 5.71961C6.89456 6.20226 4.36227 6.19042 1.84753 5.54639C1.32939 5.41314 0.824399 5.2288 0.393217 4.89272C0.167395 4.71802 0.0278079 4.51 0.00807591 4.22648C0.00584914 4.18678 0.00584914 4.14699 0.00807591 4.10729C0.00807591 4.06732 0.00807591 4.02809 0.00807591 3.98811V1.86649C-0.0196951 1.73473 0.0241574 1.58445 0.139626 1.41715C0.342793 1.12104 0.646078 0.959666 0.958137 0.824936C1.91478 0.401502 2.93134 0.222359 3.95887 0.115019C5.97958 -0.0974383 7.98786 -0.0330366 9.9691 0.455542C10.5238 0.592492 11.0653 0.774597 11.5418 1.11068C11.8422 1.32092 12.0066 1.5852 11.9949 1.97606C11.9745 2.6423 11.9613 3.30855 11.9949 3.97479C12.0263 4.48854 11.7991 4.80463 11.3883 5.04374Z" fill="#EB1E26"/>
<path d="M11.4897 12.9223C10.7647 13.3865 9.94839 13.5885 9.11965 13.7255C6.74449 14.126 4.37591 14.106 2.02415 13.5389C1.47896 13.4072 0.950584 13.2221 0.478477 12.9016C0.164226 12.6876 -0.00532426 12.4197 0.00271472 12.0133C0.0224467 10.9939 0.00929848 9.97455 0.00929848 8.88783C0.886278 9.64809 1.88164 9.93013 2.90844 10.0997C5.14912 10.4698 7.38543 10.4816 9.60492 9.93161C10.4351 9.72582 11.2229 9.41342 11.9888 8.86932V10.1641C11.9888 10.7681 11.9676 11.3729 11.9961 11.9755C12.0159 12.4115 11.8354 12.7017 11.4897 12.9223Z" fill="#EB1E26" fill-opacity="0.5"/>
<path d="M11.9818 7.8359C11.9759 8.16384 11.7274 8.35409 11.4797 8.51991C10.822 8.95371 10.0809 9.14618 9.32598 9.28091C6.84121 9.72508 4.36886 9.71915 1.91112 9.10325C1.39955 8.97592 0.909893 8.79826 0.473596 8.49252C0.165922 8.27636 -0.0116625 8.00691 0.00222303 7.5968C0.0270708 6.88392 0.00953833 6.16955 0.00953833 5.40189C0.247784 5.56179 0.448022 5.71429 0.661421 5.83569C1.44851 6.27985 2.30869 6.50193 3.19005 6.62186C5.28895 6.91797 7.38346 6.93129 9.45971 6.4405C10.3367 6.23322 11.1815 5.92231 11.9876 5.34045C11.9876 6.21471 11.9978 7.02531 11.9818 7.8359Z" fill="#EB1E26" fill-opacity="0.8"/>
</svg>
