<svg width="127" height="52" viewBox="0 0 127 52" fill="none" xmlns="http://www.w3.org/2000/svg">
<path d="M62.5694 47.193C62.5566 47.1443 62.5521 47.0937 62.556 47.0435C62.5509 47.0936 62.5549 47.1443 62.5679 47.193C62.5566 47.2065 62.5466 47.221 62.5381 47.2364C62.5477 47.2213 62.5581 47.2068 62.5694 47.193ZM115.065 49.3392C115.065 49.1896 115.065 49.0311 115.065 48.877C115.065 49.0266 115.065 49.1851 115.065 49.3392C115.065 49.565 115.065 49.7879 115.058 50.0167C115.059 49.7908 115.065 49.565 115.065 49.3392Z" fill="#FDFDFD"/>
<path d="M126.984 4.34019C126.984 3.56249 126.902 2.82218 126.463 2.10878C125.662 0.80463 124.617 0.0149613 123.043 0.0149613H48.7714C33.8591 0.0149613 18.9463 0.00997057 4.03295 0C3.29375 0.00992568 2.57136 0.222501 1.94411 0.614683C0.556527 1.43426 0.0268565 2.80123 0.0223804 4.32075C-0.00746014 12.8575 -0.00746014 21.3953 0.0223804 29.9341C0.0223804 31.1471 0.568463 32.188 1.52635 33.0061C2.34696 33.706 3.28694 33.866 4.30898 33.863C9.61165 33.8551 14.9148 33.8551 20.2185 33.863H67.189H123.039C123.903 33.863 124.747 33.7359 125.426 33.1616C126.493 32.2643 126.991 31.0902 126.99 29.6844C126.985 21.2353 126.983 12.7873 126.984 4.34019ZM115.168 9.74075C115.188 9.42368 116.013 8.66692 116.326 8.67439C116.45 8.68337 116.608 8.6744 116.612 8.83891C116.612 8.95707 116.554 9.10961 116.414 9.12457C115.944 9.17691 115.726 9.51043 115.519 9.87236C115.467 9.96808 115.399 10.0683 115.27 10.0219C115.14 9.97556 115.161 9.84693 115.168 9.74075ZM113.345 6.61348C113.345 6.48785 113.415 6.31437 113.612 6.33381C113.809 6.35325 113.875 6.54169 113.879 6.69724C113.897 7.22069 113.887 7.74414 113.887 8.27208H113.896C113.896 8.74319 113.896 9.2143 113.896 9.68392C113.896 9.86787 113.845 10.0877 113.643 10.1176C113.442 10.1475 113.402 9.89031 113.299 9.75421C113.288 9.73946 113.281 9.72181 113.279 9.70336C113.299 8.6729 113.312 7.64245 113.345 6.61348ZM108.693 7.37623C109.208 7.44502 109.648 8.17188 109.46 8.61458C109.396 8.76414 109.336 8.87929 109.161 8.85087C108.987 8.82246 108.966 8.65645 108.976 8.51437C109.006 8.1629 109.011 7.86379 108.529 7.83537C107.842 7.7935 107.762 7.8608 107.893 8.54428C107.94 8.70075 107.925 8.86918 107.853 9.01539C107.806 9.09399 107.786 9.18516 107.794 9.27611C107.802 9.36705 107.838 9.45317 107.898 9.52239C107.989 9.64054 108.294 9.76169 108.021 9.9277C107.969 9.95687 107.911 9.97489 107.852 9.98061C107.792 9.98634 107.732 9.97965 107.675 9.96097C107.618 9.94229 107.566 9.91203 107.521 9.87207C107.477 9.83211 107.441 9.78332 107.416 9.72878C107.301 9.42461 107.237 9.10391 107.225 8.77909C107.222 7.68581 107.693 7.23714 108.693 7.37623ZM108.972 9.95911C108.863 9.97705 108.744 9.98902 108.688 9.87236C108.676 9.84735 108.67 9.81992 108.67 9.7921C108.669 9.76429 108.676 9.73679 108.687 9.71166C108.699 9.68652 108.717 9.6644 108.738 9.64691C108.76 9.62942 108.785 9.61702 108.812 9.61063C109.084 9.52688 109.202 9.32049 109.288 8.93014C109.487 9.52539 109.328 9.90078 108.972 9.95911ZM96.6432 6.91858C96.7043 6.78996 96.6894 6.61049 96.8789 6.61049C97.0684 6.61049 97.0699 6.78248 97.0938 6.92605C97.1102 7.03075 97.1251 7.17432 97.1952 7.22517C97.5608 7.48391 97.4369 7.6215 97.2161 7.97296C96.955 8.38724 97.0177 8.98548 97.2161 9.4865C97.2847 9.6555 97.5309 9.76019 97.3758 9.9965C97.325 10.0743 97.2445 10.1461 97.1505 10.0877C96.9431 9.95761 96.6491 9.89779 96.6178 9.59568C96.591 9.32648 96.6178 9.05129 96.6178 8.65197C96.6954 8.15842 96.3478 7.53626 96.6402 6.91858H96.6432ZM91.8687 8.65795C91.4211 8.56522 91.0391 8.31396 90.584 8.23619C90.1528 8.16141 90.0663 7.74863 90.0559 7.38221C90.0454 7.01579 90.0559 6.72415 90.4408 6.46093C91.1331 5.98982 91.7165 6.14237 92.3417 6.53272C92.4734 6.62744 92.5791 6.754 92.649 6.90063C92.7445 7.05019 92.8355 7.2491 92.6281 7.37772C92.464 7.47942 92.3297 7.37772 92.2163 7.22817C91.8851 6.8438 91.442 6.80342 90.9735 6.87371C90.7243 6.9126 90.5855 7.04421 90.6005 7.32239C90.6154 7.60057 90.7303 7.72769 90.9958 7.74713C91.486 7.7701 91.9602 7.92906 92.3655 8.20628C92.9743 8.637 92.9429 9.63905 92.2865 10.001C91.9881 10.164 91.7105 10.3913 91.3271 10.3509C90.7691 10.2478 90.2827 10.0518 89.9574 9.52389C89.8186 9.29955 89.7231 9.04381 89.929 8.90173C90.1349 8.75965 90.405 8.93014 90.5259 9.14102C90.8466 9.7228 91.3495 9.63756 91.8538 9.54782C91.9648 9.53701 92.0679 9.485 92.1427 9.402C92.2175 9.319 92.2586 9.21099 92.2581 9.09914C92.2611 8.81947 92.0925 8.7073 91.8612 8.65795H91.8687ZM81.6408 9.10662C81.3081 9.05428 81.044 8.85985 80.7456 8.74319C80.3622 8.59364 80.0966 8.34985 80.2204 7.93408C80.2701 7.75931 80.3792 7.60744 80.5287 7.50475C80.6783 7.40207 80.859 7.35501 81.0395 7.37174H81.2574C81.3841 7.365 81.5111 7.365 81.6378 7.37174C81.8482 7.39417 81.99 7.51233 81.9437 7.73218C81.8975 7.95203 81.7363 7.87425 81.5901 7.84883C81.2917 7.79499 80.8441 7.69927 80.7516 7.96249C80.6322 8.31844 81.147 8.31994 81.3678 8.49343C81.5886 8.66691 81.8437 8.69832 82.0586 8.88826C82.4122 9.20234 82.3689 9.46706 82.0735 9.75272C81.9482 9.87236 81.7826 10.0384 81.608 9.87086C81.3738 9.64653 81.7124 9.63755 81.7796 9.53286C81.9198 9.32049 81.9019 9.15299 81.6334 9.10962L81.6408 9.10662ZM80.9724 9.7258C80.9828 9.93518 80.8694 9.94714 80.759 9.95312C80.5173 9.96658 80.3114 9.90377 80.292 9.61961C80.2831 9.50145 80.292 9.27113 80.4129 9.32049C80.6233 9.40275 80.7993 9.60016 80.9649 9.72878L80.9724 9.7258ZM75.61 9.05278C75.3266 8.99745 75.149 8.76563 74.8894 8.68786C74.6298 8.61009 74.5238 8.42015 74.591 8.18833C74.6745 7.91613 74.591 7.53476 74.9953 7.43306C75.152 7.39418 75.3146 7.37622 75.3355 7.37174C75.6996 7.35379 75.9204 7.37174 76.0815 7.54074C76.1815 7.63945 76.2859 7.78302 76.183 7.92511C76.08 8.06719 75.9681 7.91763 75.8622 7.87426C75.5548 7.75013 75.1042 7.61851 74.9998 7.93857C74.8849 8.29003 75.3296 8.5024 75.6548 8.59214C76.0189 8.69234 76.3486 8.76114 76.4411 9.20832C76.4701 9.34901 76.4588 9.49507 76.4083 9.62955C76.3579 9.76402 76.2704 9.8814 76.1561 9.96808C76.0955 10.0237 76.017 10.0556 75.9348 10.0581C75.8527 10.0605 75.7724 10.0334 75.7085 9.98153C75.5892 9.86637 75.7399 9.75271 75.8145 9.66297C76.083 9.34142 75.998 9.13055 75.6026 9.05577L75.61 9.05278ZM75.1938 9.8589C75.2057 9.99499 75.0878 10.0294 74.9715 10.0085C74.7417 9.97854 74.5492 9.89629 74.5507 9.6211C74.5507 9.47154 74.6552 9.40723 74.7924 9.39377C74.8964 9.42496 74.989 9.48586 75.059 9.569C75.1289 9.65214 75.1732 9.75392 75.1863 9.86189L75.1938 9.8589ZM70.4029 8.82096C70.1641 8.82096 70.182 8.64 70.1805 8.4695C70.1701 7.82042 69.6539 7.53027 69.0958 7.8578C69.0653 7.87344 69.0387 7.89596 69.0183 7.92361C68.9317 8.04475 69.1003 9.49847 69.2197 9.59568C69.3391 9.69289 69.4674 9.73178 69.3898 9.88433C69.3003 10.0638 69.1555 9.96958 69.0138 9.93219C68.326 9.74524 68.5468 9.18439 68.4931 8.76562C68.5289 8.31695 68.4394 7.90417 68.8526 7.59159C69.2659 7.27902 69.7583 7.34781 70.1418 7.46895C70.5252 7.5901 70.7386 8.01484 70.6684 8.48894C70.6371 8.6729 70.6103 8.82545 70.3954 8.82395L70.4029 8.82096ZM70.467 9.77514C70.3178 9.9247 70.1015 10.146 69.9224 9.94415C69.7165 9.71083 70.0388 9.64503 70.1761 9.53286C70.3033 9.40737 70.4219 9.27347 70.5312 9.13204C70.6595 9.41321 70.6267 9.60614 70.4596 9.77814L70.467 9.77514ZM64.6809 9.63905C64.6809 9.80506 64.6481 9.99948 64.4452 10.0085C64.2423 10.0174 64.2035 9.81104 64.202 9.6525C64.192 8.70729 64.192 7.76009 64.202 6.81089C64.202 6.66133 64.2259 6.4385 64.4362 6.44149C64.6765 6.44149 64.6854 6.6733 64.6884 6.84978C64.6973 7.32238 64.6884 7.79499 64.6884 8.2676C64.675 8.73273 64.678 9.18739 64.6735 9.64204L64.6809 9.63905ZM60.3257 8.0986C60.3361 8.58765 60.3361 9.07671 60.3257 9.56577C60.3257 9.71533 60.2944 9.89031 60.1094 9.88433C59.9243 9.87834 59.9094 9.70485 59.9094 9.5538L59.9005 7.87426C59.8831 7.88003 59.865 7.88305 59.8468 7.88323C58.6203 7.63796 58.6114 7.64693 58.5964 8.89873C58.5964 9.17093 58.5964 9.44313 58.5815 9.71383C58.5815 9.826 58.5218 9.93219 58.3876 9.93219C58.3319 9.93381 58.2778 9.91337 58.237 9.8753C58.1962 9.83723 58.1721 9.78459 58.1697 9.72878C58.1548 9.05876 58.1548 8.38276 58.1563 7.71723C58.1626 7.6613 58.1867 7.60888 58.2249 7.56767C58.4487 7.285 59.7632 7.32239 59.9855 7.61851C60.0109 7.65141 59.9855 7.72021 59.9855 7.76807C60.2302 7.74863 60.3138 7.89818 60.3182 8.10158L60.3257 8.0986ZM54.2681 9.67644C54.2681 9.80506 54.2457 9.9591 54.092 9.97556C53.9085 9.98902 53.8518 9.826 53.8503 9.67644C53.8414 9.02436 53.8414 8.37229 53.8503 7.72021C53.8503 7.58112 53.9159 7.46746 54.0711 7.46447C54.2263 7.46148 54.2755 7.5901 54.277 7.7247C54.277 8.06869 54.277 8.41267 54.277 8.75665C54.2621 9.06474 54.2651 9.37284 54.2606 9.67943L54.2681 9.67644ZM47.5539 9.29805C47.7031 8.99893 47.8628 8.61905 48.3283 8.64298C48.4518 8.63828 48.5744 8.61972 48.6939 8.58765C48.8116 8.57182 48.9223 8.52237 49.0128 8.4452C49.1033 8.36803 49.1697 8.2664 49.2041 8.15244C49.2145 8.12182 49.2186 8.08942 49.2163 8.05717C49.2139 8.02493 49.2051 7.99348 49.1903 7.96473C49.1755 7.93598 49.1552 7.91051 49.1304 7.88982C49.1056 7.86914 49.0769 7.85367 49.046 7.84435C48.932 7.78648 48.8042 7.76157 48.677 7.7724C48.5497 7.78323 48.4279 7.82937 48.3253 7.90566C48.2701 7.94903 48.2418 8.02381 48.188 8.07317C48.1631 8.09979 48.1331 8.12122 48.0999 8.13623C48.0666 8.15124 48.0308 8.15954 47.9943 8.16065C47.9579 8.16176 47.9216 8.15566 47.8875 8.14271C47.8534 8.12975 47.8222 8.11018 47.7956 8.08513C47.6464 7.96848 47.7658 7.8608 47.8225 7.75162C48.0269 7.35978 48.6192 7.17283 49.2757 7.36725C49.4669 7.42593 49.635 7.5429 49.7567 7.70187C49.8784 7.86084 49.9475 8.05389 49.9546 8.25414C49.977 8.48745 49.9546 8.72674 49.9546 8.96304H49.968C49.968 9.1814 49.968 9.39975 49.968 9.61661C49.968 9.97705 49.874 10.1954 49.4533 10.0174C49.2116 9.91573 48.9893 10.0174 48.7834 10.1401C48.4268 10.3614 48.1284 10.2403 47.8464 9.99051C47.639 9.80954 47.4092 9.56427 47.545 9.30105L47.5539 9.29805ZM42.8391 7.42857C43.0629 7.27901 43.1062 7.05617 43.1196 6.81239C43.1301 6.64638 43.2032 6.52823 43.3867 6.5387C43.4605 6.54157 43.5308 6.57045 43.5854 6.62025C43.64 6.67004 43.6753 6.73756 43.6851 6.81089C43.6984 6.84554 43.6984 6.88393 43.6851 6.91858C43.4524 7.28948 44.4625 7.36726 43.8985 7.80845C43.5225 8.10757 43.7314 8.51885 43.6881 8.87929C43.6627 9.09017 43.6404 9.32797 43.7896 9.50893C43.8726 9.59317 43.926 9.70227 43.9416 9.81968C43.9572 9.93709 43.9342 10.0564 43.8761 10.1595C43.8661 10.1807 43.8513 10.1992 43.8329 10.2136C43.8144 10.228 43.7928 10.2379 43.7699 10.2424C43.747 10.2469 43.7233 10.246 43.7008 10.2396C43.6783 10.2333 43.6576 10.2217 43.6404 10.2059C43.4479 10.0144 43.0555 10.0249 43.0659 9.62858C43.0659 9.37433 43.0659 9.12008 43.0659 8.79853C43.0152 8.45455 43.2405 7.98343 42.7899 7.6559C42.6944 7.59757 42.7466 7.4869 42.8302 7.43156L42.8391 7.42857ZM36.4592 9.1111C36.4975 9.08572 36.5406 9.06828 36.5857 9.0598C36.6309 9.05132 36.6773 9.05198 36.7222 9.06174C36.7671 9.07149 36.8096 9.09014 36.8472 9.1166C36.8848 9.14305 36.9167 9.17678 36.9411 9.2158C37.3231 9.72729 37.7826 9.80356 38.366 9.55081C38.6107 9.44611 38.7047 9.3504 38.7032 9.09166C38.7148 8.99496 38.6884 8.89754 38.6297 8.81995C38.571 8.74238 38.4844 8.69072 38.3884 8.67589C37.9751 8.53979 37.62 8.302 37.1515 8.24666C36.7188 8.1973 36.4995 7.76359 36.5308 7.2865C36.5577 6.87671 36.5771 6.4714 37.1426 6.42952C37.3708 6.41157 37.5648 6.21416 37.9408 6.26501C38.2183 6.37269 38.6689 6.39961 38.9091 6.83782C38.9897 6.98738 39.2299 7.10403 39.0166 7.2865C38.8405 7.43605 38.6435 7.28649 38.5451 7.15787C38.2914 6.81688 37.9483 6.7765 37.5812 6.81688C37.3052 6.84679 36.9755 6.84081 36.9367 7.24761C36.8979 7.65441 37.1769 7.7576 37.5126 7.79798C37.8694 7.86447 38.2124 7.99088 38.5272 8.17188C39.3284 8.56223 39.4463 9.26366 38.8002 9.86488C38.1542 10.4661 36.8919 10.2657 36.492 9.5209C36.4219 9.3863 36.2399 9.24421 36.4592 9.1111ZM34.433 26.5736C34.3957 26.9968 34.2212 27.1912 33.7765 27.1718C32.2562 27.097 30.7358 27.0073 29.2154 26.9923C28.0755 26.9819 26.9341 27.0566 25.7972 27.1419C25.2869 27.1763 24.7811 27.1568 24.2738 27.1703C23.9754 27.1778 23.7919 27.0506 23.7814 26.7216C23.771 26.3926 23.7233 26.0666 24.1545 25.9978C24.5856 25.929 24.9855 25.733 25.3988 25.6343C26.2418 25.4339 26.4179 24.7474 26.582 24.1043C26.7222 23.551 26.7013 22.9483 26.7043 22.368C26.7163 19.1265 26.7163 15.8861 26.7043 12.6467C26.7043 12.3715 26.8088 11.9213 26.4999 11.8809C26.1911 11.8405 26.3045 12.3072 26.2015 12.539C25.8285 13.4154 25.463 14.2948 25.1123 15.1802C24.7617 16.0656 24.4364 17.0033 24.0679 17.9022C23.671 18.8668 23.3637 19.8644 22.9131 20.8111C22.6974 21.2462 22.5207 21.6997 22.3849 22.1661C22.2357 22.6955 21.9865 23.1726 21.7881 23.6736C21.3972 24.6981 20.9734 25.7106 20.6198 26.75C20.5783 26.9028 20.4805 27.034 20.3462 27.1173C20.2119 27.2006 20.0511 27.2297 19.8962 27.1987C19.5366 27.1583 19.092 27.429 18.8592 26.8831C18.4116 25.8362 17.964 24.8028 17.5418 23.7514C17.1837 22.854 16.7958 21.9701 16.4496 21.0758C16.1035 20.1814 15.6917 19.3379 15.4052 18.4256C15.2336 17.8767 15.0725 17.2905 14.7323 16.7894C14.501 16.4484 14.4055 16.0162 14.2847 15.6423C14.1146 15.092 13.7669 14.6208 13.673 14.0361C13.6043 13.6024 13.3059 13.2299 13.1776 12.7873C13.0821 12.4537 12.8658 12.1442 12.8195 11.7762C12.8076 11.6701 12.7583 11.5354 12.6449 11.525C12.4778 11.5085 12.4555 11.6745 12.439 11.7927C12.4137 11.991 12.4032 12.191 12.4077 12.3909C12.4077 14.1208 12.4077 15.8502 12.4077 17.5791H12.4301C12.4301 19.3454 12.4182 21.1102 12.4301 22.8765C12.4188 23.7353 12.6963 24.573 13.2179 25.2545C13.5983 25.748 14.1519 25.7779 14.6726 25.9125C15.0143 26.0008 15.4186 25.9738 15.3724 26.5332C15.3351 26.9819 15.1814 27.2107 14.7025 27.1733C13.764 27.1015 12.8255 27.0133 11.8855 26.9998C11.1082 26.9863 10.3308 27.0701 9.55197 27.112C9.25356 27.1299 8.93725 27.1449 8.63139 27.1733C8.18378 27.2137 8.00921 26.9579 7.95251 26.5751C7.89134 26.1503 8.13454 26.0187 8.50755 25.929C9.26102 25.7495 10.0443 25.6014 10.4591 24.8088C10.5714 24.6219 10.6412 24.4126 10.6635 24.1956C10.6949 23.6691 10.7531 23.1487 10.7575 22.6162C10.7933 18.3224 10.771 14.0271 10.8754 9.73477C10.9127 8.19581 10.1294 7.64095 8.7045 7.40315C8.04502 7.29696 7.94058 7.19676 8.00772 6.53272C8.03905 6.2336 8.20467 6.10199 8.47323 6.12742C10.5725 6.32035 12.6748 6.19172 14.7771 6.17677C15.1426 6.17677 15.2993 6.32633 15.4306 6.67032C15.7812 7.61104 16.187 8.53082 16.5943 9.44911C16.7749 9.8574 16.8927 10.2866 17.0688 10.6994C17.7984 12.4074 18.5041 14.1258 19.2084 15.8442C19.8052 17.292 20.4169 18.7352 20.9764 20.1979C21.0376 20.3594 21.0495 20.6122 21.2614 20.6211C21.4733 20.6301 21.4763 20.3714 21.5494 20.2143C22.1462 18.9536 22.5938 17.6359 23.0862 16.3393C23.4442 15.3985 23.774 14.4339 24.1306 13.4902C24.4872 12.5465 24.8229 11.5564 25.2406 10.6157C25.6047 9.79309 25.9031 8.93762 26.197 8.08663C26.3627 7.60804 26.6208 7.17282 26.7506 6.6718C26.8461 6.30239 27.1758 6.07357 27.6368 6.11395C29.6476 6.25229 31.6654 6.25529 33.6766 6.12293C34.3137 6.08554 34.4495 6.25902 34.4077 6.88567C34.3853 7.19825 34.2495 7.33435 33.9287 7.33435C33.5178 7.32081 33.1087 7.39578 32.7291 7.5542C31.7131 8.0283 31.6176 8.95407 31.5266 9.88133C31.4803 10.3509 31.4923 10.828 31.4923 11.3006C31.4997 15.2505 31.4923 19.2003 31.531 23.1502C31.531 23.9398 31.6236 24.7669 32.3069 25.3247C32.7674 25.6776 33.3196 25.89 33.8974 25.9364C34.3211 25.9843 34.4703 26.1608 34.433 26.5736ZM49.8457 25.8946C48.673 27.2077 46.7781 27.8298 45.0712 27.2256C44.8015 27.1388 44.5562 26.9888 44.3559 26.788C44.1556 26.5872 44.0059 26.3414 43.9194 26.071C43.7702 25.6029 43.5747 25.5386 43.1733 25.8347C42.6228 26.24 42.1125 26.6827 41.4724 26.9729C40.5946 27.36 39.6323 27.5145 38.6779 27.4216C38.0565 27.3917 37.4582 27.1765 36.9597 26.8034C36.4613 26.4303 36.0854 25.9165 35.8803 25.3277C35.6483 24.7587 35.5774 24.1365 35.6753 23.5296C35.7732 22.9227 36.0362 22.3547 36.4353 21.8879C37.2037 20.9636 38.1959 20.3624 39.2926 19.8973C40.4399 19.4112 41.5948 18.9521 42.7765 18.5587C43.0778 18.4562 43.3377 18.2582 43.517 17.9946C43.6962 17.731 43.7851 17.4162 43.7702 17.0975C43.7499 16.4789 43.6496 15.8656 43.4717 15.2729C43.3002 14.6926 42.7257 14.5251 42.2319 14.4309C41.1248 14.2365 40.4012 14.751 40.0177 15.7964C39.8462 16.3106 39.6222 16.8058 39.3493 17.274C38.833 18.11 37.7752 18.1848 36.9486 17.7227C36.3413 17.3802 36.0608 16.3423 36.3518 15.5945C36.7517 14.582 37.526 14.1243 38.5316 13.7833C39.961 13.2973 41.4068 13.2359 42.8749 13.2688C43.9194 13.2928 44.9742 13.4064 45.9261 13.8985C47.0093 14.4578 47.7061 15.3567 47.7807 16.5905C47.8583 17.8588 47.7986 19.133 47.7986 20.4088H47.8389C47.8389 21.6277 47.8389 22.8466 47.8389 24.0655C47.8389 25.0675 48.3134 25.3487 49.1683 24.8626C49.5443 24.6502 49.6502 25.0122 49.8233 25.1617C49.8755 25.2067 49.9178 25.262 49.9475 25.3243C49.9772 25.3865 49.9936 25.4543 49.9957 25.5232C49.9978 25.5921 49.9855 25.6608 49.9597 25.7247C49.9339 25.7887 49.8951 25.8465 49.8457 25.8946ZM65.6761 14.3187C65.5298 14.453 65.357 14.5549 65.1688 14.6178C64.4974 14.7599 63.9871 15.1578 63.5276 15.6199C62.4205 16.7296 61.3418 17.8633 60.2451 18.9775C60.0377 19.1869 60.0034 19.305 60.2093 19.5548C61.4268 21.0394 62.6821 22.4911 63.9752 23.9099C64.4318 24.4109 64.475 24.6577 64.0797 25.1946C63.7812 25.6044 63.6619 26.1099 63.3575 26.5227C63.074 26.9041 62.8069 27.1882 62.2653 27.1673C61.0866 27.1195 59.9064 27.1254 58.7262 27.1329C58.3741 27.1329 58.2175 26.9833 58.2085 26.6573C58.1996 26.3313 58.2786 26.0591 58.6979 26.0127C59.6215 25.908 59.7662 25.5551 59.1962 24.7759C58.6725 24.061 58.1205 23.367 57.5669 22.6821C57.3208 22.3755 57.1074 22.2618 56.7612 22.6686C56.2107 23.3162 55.587 23.9039 55.12 24.6248C54.653 25.3457 54.9231 25.9155 55.7735 25.9873C56.2853 26.0307 56.4837 26.2206 56.4479 26.7351C56.424 27.0551 56.3181 27.1838 55.9854 27.1733C55.1155 27.1553 54.2427 27.1733 53.3714 27.1733H50.8081C50.5335 27.1733 50.2888 27.1344 50.2799 26.7785C50.2799 26.4584 50.2799 26.1174 50.6753 26.0411C51.76 25.8273 52.5299 25.1213 53.3251 24.4319C54.3397 23.551 55.032 22.3695 56.0824 21.5215C56.3465 21.3076 56.2316 21.0504 56.0585 20.7961C55.784 20.3893 55.3677 20.1366 55.0454 19.7806C54.0726 18.7098 53.3251 17.4595 52.3329 16.4066C52.1464 16.2077 52.0435 15.9579 51.8853 15.7306C51.481 15.1697 51.008 14.7255 50.3545 14.4833C50.2424 14.4439 50.1461 14.369 50.0802 14.27C50.0143 14.171 49.9822 14.0532 49.9889 13.9344C49.971 13.5694 50.0919 13.4094 50.4873 13.4214C52.8457 13.4902 55.2046 13.4957 57.564 13.4378C57.8176 13.4378 58.1488 13.3421 58.1936 13.7594C58.2369 14.1423 58.0727 14.3053 57.6848 14.4459C57.0373 14.6822 56.5449 15.2191 57.1656 15.9265C57.7251 16.5636 58.2443 17.2381 58.7889 17.8887C59.0426 18.1878 59.2619 18.2252 59.5886 17.8887C60.2347 17.2366 60.9225 16.6339 61.212 15.7186C61.4044 15.1114 61.3134 14.914 60.7166 14.7181C60.3481 14.5969 59.9288 14.5685 59.796 14.0914C59.6811 13.6801 59.8199 13.4348 60.2436 13.4319C61.9505 13.4229 63.6574 13.4319 65.3628 13.4423C65.5553 13.4423 65.788 13.4289 65.8567 13.6831C65.8967 13.7947 65.9007 13.916 65.8684 14.03C65.836 14.144 65.7687 14.245 65.6761 14.3187ZM74.4105 27.118C72.9841 27.0611 71.5622 26.8532 70.1283 27.0387C69.4122 27.1299 68.6841 27.1284 67.9604 27.1553C67.7262 27.1643 67.4576 27.1733 67.3815 26.8742C67.3054 26.5751 67.5307 26.4793 67.759 26.3776C68.8034 25.929 69.1511 25.0511 69.1481 23.9757C69.1481 21.7024 69.1645 19.4292 69.1331 17.1559C69.1257 16.5352 69.0705 15.8861 68.4274 15.4883C68.2292 15.3371 67.9872 15.2547 67.7381 15.2535C67.4054 15.2804 67.2054 15.1772 67.1965 14.8213C67.1875 14.4653 67.1667 14.0989 67.6187 13.9972C67.8641 13.9447 68.1139 13.9161 68.3648 13.9119C69.8956 13.8686 71.3742 13.5066 72.8587 13.1881C73.3198 13.0894 73.2691 13.4453 73.272 13.6981C73.2855 14.6433 73.272 15.5885 73.272 16.5397V19.1585H73.2795C73.2795 20.8859 73.2795 22.6132 73.2795 24.3407C73.2795 24.7504 73.3064 25.1468 73.5779 25.5266C73.676 25.6881 73.8158 25.82 73.9827 25.9082C74.1495 25.9964 74.337 26.0377 74.5253 26.0277C74.9327 26.0277 75.1982 26.2371 75.2415 26.6259C75.2952 26.9579 74.8655 27.1359 74.4105 27.118ZM101.303 26.8338C101.258 27.2092 100.963 27.2301 100.69 27.2271C99.8928 27.2152 99.0946 27.1838 98.3023 27.1568C96.9416 27.112 95.5823 27.1568 94.2216 27.2256C93.8829 27.2436 93.4756 27.2929 93.4473 26.777C93.4219 26.2969 93.6725 26.0292 94.1664 26.0142C94.3488 26.02 94.5273 25.9603 94.6698 25.846C94.8123 25.7317 94.9094 25.5702 94.9438 25.3906C95.0838 24.9582 95.1607 24.5079 95.172 24.0535C95.1616 22.1975 95.172 20.3415 95.172 18.4839C95.172 17.6943 94.9617 16.936 94.8244 16.1718C94.6991 15.4733 93.6009 14.9843 92.8534 15.234C92.4584 15.3651 92.0937 15.5743 91.7808 15.8491C91.4678 16.124 91.2131 16.459 91.0317 16.8343C90.7026 17.5042 90.5375 18.2429 90.5497 18.9895C90.5274 20.8814 90.4975 22.7748 90.5572 24.6727C90.584 25.5117 90.8959 25.9155 91.6956 26.0815C92.0761 26.1608 92.285 26.3193 92.2402 26.7366C92.1895 27.2032 91.8612 27.2137 91.5195 27.1853C90.3647 27.1015 89.2114 26.9654 88.0506 27.0118C87.1285 27.0477 86.2079 27.1254 85.2859 27.1823C84.9382 27.2047 84.6637 27.1194 84.6368 26.7067C84.6174 26.43 84.6816 26.2415 85.0113 26.1518C86.105 25.8527 86.3407 25.6179 86.3676 24.4962C86.4302 21.9342 86.5048 19.3663 86.2557 16.8089C86.1199 15.415 84.8412 14.8407 83.6133 15.5047C82.4943 16.103 82.0526 17.0886 81.881 18.2521C81.608 20.0947 81.6483 21.9537 81.6945 23.8067C81.7109 24.4618 81.711 25.1617 82.1854 25.7226C82.3704 25.9409 82.5584 26.095 82.8703 26.08C83.2865 26.0591 83.5133 26.261 83.5044 26.7037C83.4924 27.1957 83.1523 27.1882 82.815 27.1718C81.4036 27.0985 79.9906 27.0222 78.5762 27.0626C77.8302 27.088 77.0916 27.1195 76.3516 27.1688C75.9905 27.1927 75.7219 27.091 75.6712 26.7201C75.6205 26.3492 75.8965 26.1518 76.1994 26.0636C76.5724 25.9529 76.9738 25.9963 77.2558 25.6059C77.5795 25.1572 77.6183 24.6667 77.6183 24.1567C77.6183 21.9716 77.6183 19.7881 77.6034 17.6045C77.5959 16.5187 76.9559 15.7515 75.8935 15.5481C75.5429 15.4808 75.519 15.234 75.5101 14.9858C75.4996 14.6478 75.6115 14.3726 76.0144 14.3397C76.7332 14.2653 77.4474 14.152 78.154 14.0002C79.0268 13.8342 79.8802 13.6083 80.7382 13.4019C81.2126 13.2838 81.429 13.4648 81.4513 13.9254C81.4707 14.3427 81.4767 14.7614 81.4886 15.1802C81.4886 15.3297 81.4886 15.4958 81.6483 15.5571C81.8079 15.6184 81.887 15.4539 81.9735 15.3402C83.0553 13.9134 84.4727 13.1357 86.281 13.1686C87.7388 13.1955 88.9742 13.722 89.8694 14.911C90.0186 15.1039 90.0589 15.3746 90.1603 15.6034C90.2827 15.8801 90.4393 15.8756 90.5751 15.6214C91.0839 14.6687 91.903 14.0181 92.837 13.5934C93.6243 13.2576 94.4831 13.1255 95.3347 13.209C96.5954 13.3092 97.7398 13.6756 98.5604 14.7181C98.9152 15.1529 99.124 15.6888 99.1572 16.2495C99.2527 17.7586 99.2289 19.2676 99.2438 21.1012C99.2915 22.1018 99.1423 23.4328 99.3497 24.7549C99.4646 25.4803 99.7421 26.0217 100.49 26.0411C100.598 26.0554 100.704 26.0805 100.807 26.1159C101.192 26.2012 101.349 26.4509 101.303 26.8338ZM102.028 9.90526C101.946 9.96742 101.845 9.99669 101.743 9.98728C101.641 9.97786 101.546 9.93045 101.477 9.85441C101.289 9.6096 101.171 9.31832 101.135 9.01152C101.099 8.70473 101.147 8.39389 101.273 8.11205C101.477 7.623 101.78 7.27303 102.362 7.37473C103.074 7.38819 103.499 7.81144 103.459 8.43061C103.445 8.61158 103.421 8.77161 103.207 8.76862C103.026 8.76862 102.989 8.61906 102.972 8.46053C102.91 7.85332 102.601 7.65591 102.011 7.83837C101.96 7.85238 101.912 7.87738 101.871 7.91165C101.776 8.00438 101.804 9.42967 101.892 9.54483C101.98 9.65999 102.246 9.73476 102.028 9.90526ZM103.402 9.50744C103.289 9.79758 103.057 9.95612 102.722 10.0249C102.689 10.004 102.608 9.98303 102.583 9.93367C102.56 9.88405 102.556 9.82781 102.572 9.77549C102.588 9.72318 102.622 9.67839 102.668 9.64952C102.807 9.54034 102.996 9.49996 103.086 9.32647C103.135 9.23075 103.187 9.11409 103.32 9.17691C103.453 9.23972 103.451 9.39228 103.402 9.50744ZM116.272 26.3268C114.955 27.3318 113.493 27.788 111.841 27.281C111.429 27.1401 111.08 26.8571 110.856 26.4823C110.716 26.2729 110.607 26.0337 110.482 25.8198C110.333 25.5596 110.224 25.5042 109.957 25.757C108.394 27.2331 106.588 27.96 104.458 27.2361C103.587 26.937 102.966 26.2505 102.622 25.3591C101.876 23.4612 103.122 21.5319 104.505 20.6884C105.63 20.0035 106.84 19.5682 108.023 19.0433C108.453 18.8433 108.893 18.6666 109.342 18.5138C110.137 18.2566 110.425 17.7661 110.421 16.9196C110.429 16.5556 110.393 16.1919 110.313 15.8368C110.073 14.9155 109.591 14.4563 108.672 14.4907C107.753 14.5251 107.243 14.6956 106.89 15.6049C106.64 16.2012 106.356 16.7825 106.038 17.3458C105.782 17.8319 104.869 18.1878 104.269 18.0652C103.944 17.9893 103.65 17.816 103.426 17.5683C103.201 17.3206 103.058 17.0103 103.014 16.6788C102.849 15.2968 103.417 14.3681 105.057 13.8072C106.211 13.4296 107.415 13.2221 108.629 13.1911C110.121 13.1312 111.622 13.2688 112.956 14.1034C114.255 14.914 114.528 16.1972 114.573 17.5746C114.606 18.6111 114.573 19.649 114.573 20.6854C114.573 21.7413 114.573 22.7967 114.573 23.8516C114.565 24.1247 114.603 24.3971 114.685 24.6577C114.859 25.1722 115.132 25.2799 115.611 24.9987C116.223 24.6353 116.489 24.713 116.715 25.3666C116.88 25.8078 116.545 26.1204 116.272 26.3268ZM118.145 12.9099C117.614 13.1926 116.102 12.9099 115.69 12.4612C115.663 12.4316 115.641 12.3977 115.625 12.361C115.601 12.3043 115.596 12.2412 115.611 12.1815C115.614 12.1694 115.618 12.1574 115.622 12.1457C115.625 12.1364 115.628 12.1274 115.632 12.1187C115.57 12.1517 115.498 12.1599 115.43 12.1416C115.362 12.1232 115.304 12.0798 115.267 12.02C115.222 11.9529 115.194 11.8763 115.184 11.7963C115.175 11.7163 115.184 11.6351 115.211 11.5594C115.225 11.5382 115.243 11.5208 115.264 11.5085C115.286 11.4962 115.31 11.4895 115.335 11.4891C115.504 11.5265 115.535 11.6775 115.573 11.8151C115.599 11.9138 115.614 12.0185 115.632 12.1142H115.643V12.1232C115.771 12.0978 115.925 12.0948 115.995 12.1935C116.529 12.9413 117.273 12.4926 117.924 12.5315H117.942C117.956 12.5331 117.971 12.5331 117.985 12.5315C117.997 12.5303 118.009 12.5273 118.019 12.5225C118.03 12.5196 118.039 12.5151 118.048 12.5091C118.066 12.499 118.082 12.4852 118.094 12.4687L118.112 12.4448C118.147 12.3758 118.163 12.2991 118.16 12.2219C118.16 12.1965 118.16 12.1726 118.16 12.1486C118.159 12.1427 118.159 12.1367 118.16 12.1307H118.148V12.1202C117.739 12.1307 117.679 11.7164 117.472 11.504C117.264 11.2917 117.123 11.0479 116.775 11.1316C116.427 11.2154 116.433 11.504 116.396 11.7733C116.396 11.8121 116.336 11.845 116.201 12.0006C116.201 11.2034 116.201 10.5319 116.201 9.86189C116.201 9.81403 116.29 9.75869 116.35 9.7213C116.607 9.5523 117.62 9.58371 117.869 9.76467C118.33 10.0997 118.337 10.3629 117.884 10.7159C117.597 10.9342 117.52 11.1481 117.83 11.4113C117.854 11.4323 117.878 11.4532 117.9 11.4771C117.922 11.4989 117.943 11.5219 117.963 11.5459C118.021 11.6158 118.066 11.6953 118.097 11.7807C118.105 11.8006 118.112 11.8211 118.116 11.842C118.141 11.9326 118.15 12.0267 118.142 12.1202H118.152C118.152 12.1232 118.152 12.1263 118.152 12.1292C118.166 12.1306 118.179 12.1306 118.193 12.1292H118.219C118.243 12.1241 118.266 12.1171 118.288 12.1083L118.358 12.0769C118.382 12.0656 118.406 12.0526 118.428 12.038C118.477 12.0074 118.524 11.9734 118.569 11.9363C118.621 11.8937 118.671 11.8477 118.718 11.7987C118.73 11.7852 118.742 11.7732 118.752 11.7598C118.762 11.7463 118.768 11.7403 118.776 11.7314C118.812 11.6889 118.846 11.6439 118.876 11.5968C118.894 11.5698 118.909 11.5444 118.924 11.5175C118.939 11.4906 118.953 11.4637 118.965 11.4367C118.977 11.4098 118.989 11.3829 119 11.356C119.01 11.3291 119.015 11.3156 119.021 11.2962C119.027 11.2767 119.028 11.2707 119.031 11.2573C119.034 11.2438 119.04 11.2169 119.043 11.1974C119.124 10.7797 119.063 10.3468 118.871 9.96747C118.678 9.58814 118.365 9.28411 117.981 9.10363C117.854 9.03782 117.682 8.98996 117.733 8.81498C117.784 8.64 117.982 8.69085 118.113 8.71178C118.636 8.79853 119.324 9.5538 119.456 10.1431C119.555 10.6839 119.482 11.2422 119.247 11.7389C119.011 12.2355 118.626 12.6453 118.145 12.9099Z" fill="#EB1E26"/>
<path d="M18.8318 51.8877C17.9471 51.9311 17.0518 51.9864 16.1745 51.8997C15.715 51.8563 15.5419 51.3583 15.533 50.8932C15.5225 50.3488 15.533 49.8029 15.533 49.2585C15.533 48.7859 15.533 48.3133 15.533 47.8407C15.5225 47.1333 15.8672 46.7698 16.5774 46.7668C17.2294 46.7668 17.8829 46.7668 18.5349 46.7668C18.9557 46.7668 19.3033 46.9044 19.3496 47.38C19.3854 47.745 19.0049 47.9977 18.4976 47.9962C18.1172 47.9962 17.7367 47.9887 17.3562 47.9962C17.1682 47.9962 16.9728 48.0575 16.9668 48.2953C16.9608 48.5331 17.1488 48.6408 17.3622 48.6528C17.6334 48.6722 17.9056 48.6722 18.1768 48.6528C18.3023 48.6331 18.4305 48.6403 18.553 48.6741C18.6754 48.7079 18.7893 48.7674 18.887 48.8487C19.0258 48.9698 19.3496 49.0102 19.2436 49.2465C19.1377 49.4828 18.9945 49.7909 18.6289 49.7879C18.2126 49.7879 17.7949 49.7879 17.3786 49.7879C17.0996 49.7879 16.8743 49.8777 16.8713 50.2187C16.8683 50.5597 17.0921 50.6748 17.3607 50.6913C17.8083 50.7212 18.2664 50.7122 18.7184 50.7092C19.0691 50.7092 19.3332 50.8199 19.3734 51.2057C19.4137 51.5916 19.2078 51.8698 18.8318 51.8877Z" fill="white"/>
<path d="M46.0989 39.2846C46.0595 39.0345 45.9671 38.7957 45.8279 38.5844C45.6886 38.3731 45.5058 38.1942 45.2917 38.0597C44.4353 37.472 43.4774 37.6634 42.5553 37.7681C42.2092 37.807 41.9585 38.2332 42.0242 38.5578C42.1525 39.2128 42.0465 39.8619 42.1002 40.3928C42.1002 40.9911 42.1002 41.4562 42.1002 41.9288C42.1122 42.5899 42.3032 42.8112 42.9552 42.8471C43.3881 42.8605 43.8215 42.8501 44.2532 42.8157C44.7322 42.8019 45.1891 42.611 45.536 42.2796C45.8828 41.9482 46.095 41.4999 46.1317 41.021C46.1973 40.4433 46.1863 39.8594 46.0989 39.2846ZM44.7561 41.2289C44.6069 41.706 44.1413 41.6162 43.7877 41.6162C43.4341 41.6162 43.3535 41.3081 43.37 40.9866C43.3819 40.7338 43.37 40.4796 43.37 40.2253C43.37 39.9905 43.3789 39.7542 43.37 39.5194C43.3535 39.2203 43.3968 38.9212 43.7325 38.8928C44.116 38.8614 44.5845 38.8404 44.7546 39.3026C44.9673 39.9291 44.9668 40.6087 44.7531 41.2349L44.7561 41.2289Z" fill="white"/>
<path d="M86.2925 49.3332C86.3087 49.0972 86.3087 48.8604 86.2925 48.6243C86.1806 47.7659 85.6867 47.1018 84.9228 46.8177C84.5473 46.6761 84.1428 46.629 83.7449 46.6803C83.347 46.7316 82.9676 46.8799 82.6401 47.1122C82.3126 47.3444 82.0468 47.6536 81.866 48.0126C81.6852 48.3717 81.5949 48.7696 81.603 49.1717C81.603 50.2635 81.9805 51.2386 83.0384 51.8025C83.5576 52.0776 84.9004 51.952 85.3704 51.611C86.1433 51.0562 86.3925 50.2994 86.2925 49.3332ZM84.7542 50.4669C84.5379 50.7002 84.2723 50.935 83.9023 50.8438C83.3771 50.7167 83.0861 50.3218 82.9414 49.8447C82.7549 49.233 82.9205 48.6483 83.2965 48.1562C83.6725 47.6642 84.705 47.8571 84.9377 48.4344C85.045 48.7483 85.092 49.0796 85.0765 49.411C85.0526 49.7012 85.0452 50.1498 84.7467 50.4669H84.7542Z" fill="white"/>
<path d="M58.8752 49.0926C58.814 47.8962 58.0904 46.6354 56.4163 46.7431C54.9481 46.6085 54.123 47.8992 54.123 49.2856C54.123 50.7438 54.9526 51.9971 56.5625 51.9776C58.1187 51.9627 58.9587 50.7303 58.8752 49.0926ZM57.6233 49.2332C57.6338 49.9272 57.2653 50.5658 56.7938 50.7513C56.2358 50.9711 55.727 50.6839 55.5569 50.1141C55.3968 49.6159 55.3885 49.0812 55.533 48.5782C55.6822 48.0442 56.0537 47.8932 56.4894 47.8678C56.6888 47.8431 56.8903 47.8929 57.0554 48.0076C57.2206 48.1224 57.3377 48.2941 57.3846 48.4899C57.4697 48.7636 57.6562 49.0059 57.6233 49.2332Z" fill="white"/>
<path d="M38.846 48.6424C38.5774 47.392 37.8612 46.7325 36.4423 46.746C36.1314 46.6954 35.8124 46.7373 35.525 46.8665C35.2375 46.9956 34.9941 47.2064 34.8249 47.4728C34.2281 48.3417 34.0655 49.2421 34.3773 50.3144C34.813 51.8369 36.3259 52.2303 37.5106 51.822C37.8048 51.7305 38.072 51.5678 38.2886 51.3481C38.5051 51.1285 38.6642 50.8587 38.752 50.5627C38.9398 49.94 38.9721 49.2805 38.846 48.6424ZM37.6702 49.2526C37.6702 49.9301 37.5016 50.6076 36.9242 50.7781C36.6953 50.856 36.4459 50.8475 36.2229 50.7541C35.9998 50.6608 35.8184 50.489 35.7127 50.271C35.3337 49.5891 35.4859 48.925 35.7709 48.2939C35.9335 47.932 36.3468 47.8452 36.7019 47.8661C37.0317 47.8871 37.3808 48.0007 37.5002 48.4001C37.5837 48.6947 37.6941 48.9848 37.6702 49.2526Z" fill="white"/>
<path d="M31.0713 42.2773C31.064 41.9315 30.9435 41.5978 30.7281 41.3276C30.3014 40.7892 30.3313 40.6172 30.7938 40.1117C31.2996 39.5583 31.0534 38.4142 30.4118 38.0313C29.5614 37.5213 28.6572 37.6918 27.7665 37.7322C27.3338 37.7516 27.1055 38.0747 27.104 38.5234C27.104 39.1216 27.104 39.7198 27.104 40.3181C27.104 40.9163 27.104 41.5145 27.104 42.1128C27.104 42.5016 27.2696 42.8142 27.6874 42.8351C28.135 42.8591 28.2961 42.5031 28.3618 42.1262C28.3961 41.9333 28.3543 41.7269 28.3707 41.528C28.3886 41.2872 28.2409 40.9417 28.5378 40.846C28.8348 40.7503 29.0078 41.1107 29.2301 41.2767C29.2809 41.3141 29.2809 41.4113 29.3197 41.4712C29.5718 41.866 29.8225 42.2623 30.0836 42.6512C30.2731 42.9338 30.5715 42.877 30.8296 42.8142C31.0877 42.7514 31.0877 42.4941 31.0713 42.2773ZM28.5766 39.7841C28.5289 39.8245 28.508 39.7961 28.4946 39.7512L28.3454 39.5389C28.3649 39.4565 28.3798 39.3731 28.3901 39.2891C28.4334 38.8225 28.784 38.9137 29.0795 38.9047C29.3316 38.9047 29.6121 38.8614 29.6763 39.2039C29.7553 39.5718 29.4644 39.675 29.2122 39.8021L28.5766 39.7841Z" fill="white"/>
<path d="M74.1117 38.6682C73.8551 38.239 73.4418 37.8038 72.9181 37.7006C71.2038 37.3656 69.8266 38.2824 69.8475 40.1429C69.8371 41.4201 70.049 41.8314 71.0993 42.5672C71.6574 42.959 72.7092 42.965 73.3016 42.6121C74.804 41.7117 74.8593 39.92 74.1117 38.6682ZM73.2404 40.8308C73.1854 41.0902 73.0406 41.3218 72.8318 41.4847C72.6229 41.6475 72.3634 41.7311 72.099 41.7207C71.6305 41.7013 71.1889 41.2481 71.1471 40.7037C71.1212 40.397 71.1252 40.0884 71.159 39.7824C71.1826 39.5078 71.3083 39.252 71.5111 39.0659C71.7139 38.8797 71.9792 38.7768 72.2542 38.7774C72.7644 38.7774 73.2255 39.262 73.2747 39.8557C73.2852 39.9828 73.2881 40.11 73.2971 40.3178C73.289 40.4899 73.2701 40.6612 73.2404 40.8308Z" fill="white"/>
<path d="M94.4419 49.4318C94.4419 48.684 94.4554 48.684 94.0137 47.7493C93.5348 46.7413 91.8324 46.4481 91.0297 46.9552C89.8271 47.7029 89.4959 48.856 89.8151 50.0959C90.2702 51.8726 92.0398 52.4888 93.4617 51.5631C94.2316 51.0665 94.4986 50.2559 94.4419 49.4318ZM93.0618 50.1407C92.9409 50.5505 92.5963 50.7509 92.2113 50.8153C91.8518 50.8766 91.5563 50.7136 91.3355 50.3995C90.9401 49.8386 90.8879 48.9039 91.2579 48.349C91.3587 48.1736 91.5118 48.0342 91.6956 47.9502C91.8794 47.8663 92.0847 47.842 92.283 47.8809C92.7306 47.9707 93.0887 48.2189 93.1409 48.7379C93.1603 48.9174 93.1648 49.0998 93.1841 49.3959C93.1619 49.6469 93.121 49.8959 93.0618 50.1407Z" fill="white"/>
<path d="M114.671 51.7784C114.416 52.0416 114.119 51.9474 113.864 51.6932C113.288 51.1233 112.988 50.377 112.584 49.6965C112.522 49.5919 112.519 49.4154 112.357 49.4348C112.194 49.4543 112.167 49.6412 112.163 49.7803C112.151 50.229 112.163 50.6881 112.152 51.1428C112.152 51.5301 112.003 51.8786 111.593 51.8801C111.183 51.8816 110.969 51.4957 110.96 51.1323C110.929 49.9687 110.935 48.8037 110.96 47.6401C110.974 47.0419 111.518 46.5932 111.933 46.7787C112.231 46.9118 112.366 47.2273 112.5 47.4846C112.798 48.0604 113.264 48.5315 113.458 49.1716C113.492 49.2853 113.574 49.369 113.701 49.3212C113.751 49.2986 113.793 49.2605 113.819 49.2126C113.846 49.1647 113.857 49.1095 113.85 49.0549C113.85 48.6377 113.85 48.2189 113.85 47.8001C113.847 47.6001 113.859 47.4001 113.886 47.2019C113.907 47.0937 113.962 46.9948 114.042 46.9196C114.122 46.8444 114.225 46.7966 114.334 46.7831C114.565 46.7293 114.708 46.8504 114.825 47.0359C114.973 47.2437 115.053 47.4924 115.054 47.7478C115.044 48.1202 115.045 48.4956 115.054 48.868C115.054 49.0176 115.054 49.1761 115.054 49.3301C115.054 49.556 115.054 49.7788 115.045 50.0076C115.045 50.2918 115.045 50.5745 115.063 50.8571C115.104 51.2609 114.901 51.5421 114.671 51.7784Z" fill="white"/>
<path d="M38.4122 42.2668C38.4196 42.7154 38.1138 42.8171 37.7064 42.8067C37.0171 42.7887 36.3278 42.8067 35.6385 42.8067C35.0238 42.7977 34.8268 42.6137 34.803 41.9931C34.7806 41.4128 34.803 40.831 34.803 40.2492H34.791C34.791 39.7033 34.791 39.1589 34.791 38.613C34.791 38.0432 34.9895 37.7785 35.537 37.7456C36.2607 37.7022 36.9873 37.7067 37.7124 37.7232C38.069 37.7321 38.3704 37.9146 38.3599 38.3214C38.3495 38.7282 38.0198 38.8449 37.6691 38.8568C37.2887 38.8703 36.9067 38.8568 36.5262 38.8568C36.2636 38.8568 36.0354 38.9705 36.0458 39.2576C36.0563 39.5448 36.2651 39.6704 36.5322 39.6749C36.9485 39.6749 37.3692 39.6196 37.7781 39.7317C38.0168 39.799 38.2988 39.8424 38.257 40.2073C38.2485 40.3461 38.1858 40.4759 38.0825 40.5686C37.9791 40.6612 37.8435 40.7093 37.7049 40.7024C37.3066 40.7248 36.9067 40.7099 36.5113 40.7113C36.2263 40.7113 35.9921 40.8086 35.9817 41.1286C35.9742 41.1976 35.982 41.2673 36.0045 41.3329C36.027 41.3985 36.0636 41.4583 36.1117 41.5081C36.1599 41.5579 36.2183 41.5965 36.283 41.6211C36.3477 41.6457 36.417 41.6558 36.486 41.6506C36.9022 41.667 37.32 41.6506 37.7363 41.661C38.1526 41.6715 38.4062 41.8614 38.4122 42.2668Z" fill="white"/>
<path d="M57.4579 42.7633C56.7119 43.0131 55.4108 42.7828 54.9767 41.854C54.7708 41.4128 54.8379 40.9432 55.2288 40.7772C55.6764 40.5887 55.851 40.9372 56.0047 41.2483C56.1986 41.6401 56.5015 41.8181 56.9193 41.7328C57.164 41.682 57.4206 41.5728 57.3863 41.2333C57.3842 41.103 57.3328 40.9783 57.2425 40.8844C57.1522 40.7906 57.0298 40.7346 56.8999 40.7278C56.4473 40.6909 56.0115 40.5397 55.6332 40.2881C55.1676 39.9561 54.8573 39.3549 54.9856 38.8643C55.1841 38.0986 55.5988 37.7202 56.2792 37.6888C56.4418 37.6888 56.6045 37.6888 56.8148 37.6888C57.5012 37.5632 58.001 37.8698 58.3173 38.5233C58.474 38.8494 58.5053 39.1814 58.1457 39.3608C57.7861 39.5403 57.4997 39.4685 57.2997 39.0617C57.0401 38.5353 56.5821 38.4426 56.2762 38.815C56.0897 39.0408 56.0554 39.2891 56.4045 39.3369C56.9297 39.4072 57.3684 39.7153 57.904 39.7856C58.2382 39.832 58.4785 40.2597 58.5889 40.6037C58.8977 41.5534 58.4247 42.4403 57.4579 42.7633Z" fill="white"/>
<path d="M4.3801 47.3545C4.35325 47.5863 4.29506 47.9766 3.87282 48.02C3.57441 48.0514 3.15366 47.8316 2.99103 48.2159C2.87912 48.4792 2.9403 48.8142 2.93731 49.1282C2.93731 49.8177 2.93731 50.5087 2.93731 51.1981C2.93731 51.6319 2.78811 51.9459 2.28828 51.9459C1.78845 51.9459 1.65118 51.6319 1.66014 51.1981C1.66909 50.7644 1.66014 50.3262 1.66014 49.891C1.66014 49.5096 1.63328 49.1253 1.66014 48.7469C1.70639 48.2219 1.55271 47.9587 0.973802 48.011C0.533654 48.0499 0.28747 47.7942 0.308359 47.3485C0.327755 46.9507 0.606763 46.7802 0.969326 46.7757C1.93019 46.7607 2.89106 46.7757 3.85043 46.7757C3.92406 46.7758 3.99686 46.7913 4.06423 46.8211C4.1316 46.8508 4.19208 46.8943 4.24186 46.9487C4.29163 47.0031 4.32961 47.0672 4.35341 47.1371C4.3772 47.2069 4.38629 47.2809 4.3801 47.3545Z" fill="white"/>
<path d="M78.1165 50.561C77.8464 51.5182 76.6334 52.2764 75.4532 51.7949C74.3178 51.3312 74.0208 50.4144 73.994 49.0355C73.9253 47.6102 75.1428 46.6426 76.4722 46.7532C77.2899 46.819 78.0792 47.4741 78.1135 48.1576C78.1284 48.4418 78.1538 48.7768 77.7793 48.8725C77.4465 48.9577 77.2556 48.7947 77.1138 48.4747C77.0364 48.2872 76.9024 48.1288 76.7306 48.0215C76.5589 47.9142 76.3579 47.8635 76.1559 47.8764C75.7516 47.9093 75.4711 48.1755 75.3234 48.6242C75.1305 49.1352 75.1374 49.7004 75.3428 50.2065C75.4109 50.3952 75.5358 50.5581 75.7001 50.6727C75.8644 50.7874 76.0602 50.8481 76.2604 50.8466C76.6722 50.8661 76.9855 50.567 77.1168 50.1961C77.2481 49.8252 77.5092 49.6382 77.8509 49.7399C78.2686 49.8506 78.2045 50.2484 78.1165 50.561Z" fill="white"/>
<path d="M46.0079 47.7778C45.6707 48.3491 45.2739 48.8845 44.9337 49.4529C44.6562 49.918 44.8173 50.4489 44.7845 50.9484C44.7695 51.1788 44.8427 51.4285 44.6696 51.6274C44.4965 51.8264 44.319 51.9864 44.0206 51.937C43.8851 51.9199 43.7606 51.8537 43.6705 51.751C43.5804 51.6482 43.5308 51.516 43.5312 51.3792C43.5043 51.11 43.5312 50.8348 43.5312 50.4115C43.6893 49.912 43.382 49.39 43.0149 48.9159C42.7523 48.5854 42.6255 48.1876 42.3823 47.8496C42.1391 47.5116 42.0675 47.1272 42.4629 46.8356C42.7881 46.5978 43.2671 46.7967 43.4775 47.2543C43.573 47.4469 43.6838 47.6314 43.8087 47.8062C44.21 48.4045 44.1906 48.4044 44.598 47.7733C44.7542 47.5134 44.9266 47.2637 45.1142 47.0255C45.3664 46.7264 45.614 46.6337 45.8945 46.8416C46.2064 47.0839 46.1929 47.4577 46.0079 47.7778Z" fill="white"/>
<path d="M28.7915 51.9549C27.8963 51.8637 27.1965 50.908 27.471 50.0421C27.5382 49.8327 27.6292 49.6772 27.8799 49.6876C28.1305 49.6981 28.3588 49.719 28.4379 50.0122C28.4595 50.1187 28.4884 50.2237 28.5244 50.3262C28.5555 50.4325 28.6204 50.5256 28.7094 50.5913C28.7983 50.6569 28.9063 50.6915 29.0168 50.6897C29.3062 50.6717 29.3331 50.4205 29.3346 50.2021C29.3455 49.3656 29.3455 48.529 29.3346 47.6925C29.3237 47.5767 29.3364 47.4599 29.3717 47.3491C29.4071 47.2383 29.4645 47.1359 29.5405 47.0479C29.724 46.8415 29.8837 46.6845 30.1806 46.7653C30.4775 46.846 30.5804 47.0913 30.5924 47.3455C30.6177 47.9079 30.5924 48.4717 30.5924 49.0341H30.6073C30.585 49.4326 30.585 49.832 30.6073 50.2305C30.7416 51.267 29.7449 52.0521 28.7915 51.9549Z" fill="white"/>
<path d="M66.1697 41.7747C65.5908 42.696 64.7448 43.0788 63.7825 42.7663C62.738 42.4312 62.1502 41.6057 62.1144 40.3554C62.0815 39.2277 62.562 38.3408 63.6064 37.8129C63.8032 37.7165 64.0172 37.6601 64.2359 37.647C64.4546 37.6339 64.6737 37.6644 64.8806 37.7366C65.4565 37.9265 66.0011 38.2137 66.2712 38.8374C66.4204 39.1948 66.3741 39.479 66.0682 39.7003C65.7624 39.9217 65.5654 39.7915 65.3924 39.5164C65.3267 39.4102 65.2148 39.3354 65.1432 39.2322C64.9224 38.9121 64.6314 38.6923 64.239 38.7835C63.7914 38.8942 63.4572 39.1664 63.405 39.6734C63.3841 39.8723 63.3751 40.0727 63.3602 40.2716C63.3378 40.8235 63.4109 41.3185 63.957 41.6311C64.4389 41.9033 64.8522 41.7971 65.1312 41.2991C65.1581 41.2527 65.1686 41.1959 65.1999 41.1495C65.4326 40.81 65.6743 40.466 66.1622 40.6904C66.4487 40.834 66.4398 41.3455 66.1697 41.7747Z" fill="white"/>
<path d="M102 51.6845C101.781 51.9028 101.541 51.9836 101.271 51.7892C100.902 51.5304 100.731 51.1192 100.497 50.7587C100.42 50.5958 100.326 50.4414 100.218 50.2981C100.068 50.1485 100.046 49.6999 99.7789 49.8718C99.5118 50.0438 99.2119 50.2682 99.2626 50.6914C99.3026 50.962 99.2864 51.238 99.2149 51.502C99.1447 51.7323 99.0313 51.8879 98.7673 51.8984C98.6588 51.9116 98.5492 51.8862 98.4575 51.8266C98.3659 51.767 98.2981 51.677 98.2659 51.5723C98.1887 51.3882 98.1496 51.1903 98.1511 50.9905C98.1511 49.8808 98.1511 48.7711 98.1511 47.6629C98.1448 47.4812 98.1822 47.3006 98.26 47.1364C98.3525 46.948 98.4539 46.7835 98.7076 46.8104C98.8079 46.8135 98.905 46.8462 98.9868 46.9045C99.0685 46.9628 99.1313 47.044 99.1671 47.1379C99.2586 47.3759 99.2958 47.6314 99.276 47.8857C99.276 47.9949 99.2537 48.1041 99.2567 48.2117C99.2596 48.3194 99.2566 48.4077 99.3566 48.448C99.4566 48.4884 99.5431 48.4166 99.6237 48.3299C100.018 47.9111 100.437 47.5178 100.817 47.0901C101.077 46.7999 101.345 46.6115 101.695 46.8986C101.953 47.111 101.884 47.7122 101.605 47.9934C101.479 48.1461 101.337 48.2841 101.18 48.4047C100.689 48.7187 100.802 49.0867 101.055 49.4725C101.391 49.985 101.731 50.4945 102.077 51.001C102.118 51.0504 102.148 51.1075 102.167 51.1691C102.185 51.2306 102.191 51.2952 102.184 51.359C102.177 51.4228 102.157 51.4845 102.125 51.5405C102.094 51.5964 102.051 51.6454 102 51.6845Z" fill="white"/>
<path d="M89.2347 42.2233C89.2347 42.7407 88.7185 42.7886 88.2828 42.7886C87.686 42.7886 87.0892 42.7886 86.4924 42.7886C85.8956 42.7886 85.636 42.5568 85.6285 41.9526C85.6195 41.3887 85.6285 40.8264 85.6285 40.2625C85.6285 39.7182 85.6285 39.1723 85.6285 38.6279C85.6285 38.0416 85.8851 37.7544 86.476 37.7305C87.128 37.7036 87.7815 37.7185 88.4335 37.7141C88.5243 37.7125 88.6146 37.7291 88.6989 37.763C88.7832 37.7969 88.8599 37.8474 88.9244 37.9115C89.0736 38.0476 89.2646 38.1568 89.2034 38.396C89.1728 38.4931 89.1137 38.5787 89.0339 38.6417C88.954 38.7046 88.8571 38.742 88.7558 38.749C88.4688 38.7852 88.1796 38.8012 87.8904 38.7969C87.6726 38.7969 87.4547 38.7879 87.2384 38.7969C86.9758 38.7969 86.7654 38.9075 86.758 39.2022C86.7529 39.2621 86.7599 39.3224 86.7785 39.3795C86.7971 39.4367 86.827 39.4895 86.8664 39.5348C86.9058 39.5802 86.9539 39.6171 87.0078 39.6435C87.0617 39.6698 87.1203 39.685 87.1802 39.6882C87.5577 39.7241 87.9396 39.7092 88.3201 39.7137C88.6498 39.7137 88.9841 39.781 88.9915 40.1773C88.999 40.5736 88.7036 40.7172 88.3216 40.7037C87.9396 40.6903 87.5592 40.7037 87.1787 40.7037C86.9415 40.7037 86.7475 40.774 86.7311 41.0642C86.7147 41.3543 86.7848 41.5712 87.0952 41.6475C87.4891 41.7462 87.8889 41.6759 88.2888 41.6923C88.6886 41.7088 89.2422 41.6654 89.2347 42.2233Z" fill="white"/>
<path d="M107.181 51.1115C107.147 51.4854 107.103 51.9445 106.532 51.9505C106.201 51.9505 105.786 51.5512 105.775 51.1115C105.752 49.9329 105.737 48.7529 105.787 47.5759C105.801 47.2514 105.974 46.8565 106.384 46.7548C106.848 46.6382 107.176 46.9956 107.194 47.6297C107.209 48.1921 107.194 48.7544 107.194 49.3168C107.188 49.915 107.229 50.5177 107.181 51.1115Z" fill="white"/>
<path d="M82.0316 38.4185C81.9525 38.8358 81.9137 39.2545 81.681 39.6583C81.4214 40.107 81.3542 40.6664 81.1588 41.1689C80.9917 41.6011 80.7873 42.0273 80.6485 42.476C80.6123 42.6075 80.5296 42.7213 80.4157 42.7961C80.3914 42.8113 80.3659 42.8248 80.3396 42.8364H80.3262L80.2874 42.8514C80.1808 42.8849 80.0694 42.9005 79.9577 42.8978H79.8905C79.8842 42.8992 79.8775 42.8992 79.8712 42.8978C79.8588 42.8993 79.8462 42.8993 79.8338 42.8978H79.7697C79.7276 42.8915 79.6862 42.8815 79.6459 42.8679C79.2878 42.7482 79.0103 42.3833 78.9163 41.8912C78.767 41.133 78.4597 40.4316 78.1702 39.7226C78.0088 39.3045 77.8708 38.8776 77.7569 38.4439C77.6704 38.1448 77.9062 37.8188 78.1822 37.6961C78.4582 37.5735 78.7611 37.581 78.9849 37.9279C79.1759 38.2271 79.3564 38.4993 79.3609 38.8642C79.3609 39.3487 79.71 39.7301 79.7816 40.1982C79.7833 40.2257 79.7908 40.2525 79.8035 40.2769C79.8162 40.3013 79.8339 40.3227 79.8555 40.3398C79.877 40.3569 79.9019 40.3692 79.9285 40.376C79.9551 40.3828 79.9829 40.3839 80.0099 40.3792C80.1725 40.3508 80.1591 40.1982 80.2069 40.0891C80.5276 39.425 80.5575 38.6683 80.9126 38.0072C81.1036 37.6498 81.3453 37.5825 81.6586 37.6707C82.0227 37.7724 82.0868 38.1194 82.0316 38.4185Z" fill="white"/>
<path d="M51.1999 41.7746C51.2283 42.162 51.0164 42.4327 50.8359 42.7124C50.6717 42.9666 50.2167 42.8978 50.0585 42.6121C49.9781 42.4699 49.9325 42.3104 49.9257 42.147C49.9153 40.8788 49.9093 39.6045 49.9257 38.3423C49.9257 38.0925 49.9406 37.7814 50.3002 37.6977C50.6598 37.6139 50.8582 37.8263 51.0298 38.1104C51.1393 38.2976 51.1912 38.513 51.179 38.7296C51.179 39.2366 51.179 39.7451 51.179 40.2521C51.191 40.7576 51.1641 41.2661 51.1999 41.7746Z" fill="white"/>
<path d="M63.7464 48.3896C63.7241 48.6618 63.9523 48.7725 64.2299 48.7725C64.5924 48.7725 64.9759 48.6887 65.3071 48.9131C65.3653 48.9819 65.425 49.0522 65.4847 49.1195C65.5011 49.4395 65.4847 49.5995 65.3877 49.6878C65.3782 49.6974 65.3677 49.7059 65.3563 49.7132C65.2355 49.7723 65.1042 49.8069 64.9699 49.8149C64.5835 49.8673 64.1075 49.6324 63.8315 49.9645C63.5734 50.2756 63.7763 50.7347 63.742 51.1265C63.6972 51.6425 63.3481 51.9925 62.9109 51.9626C62.6215 51.9416 62.4797 51.831 62.5454 51.5274C62.3797 51.1819 62.4782 50.817 62.4737 50.461C62.4603 49.5637 62.4633 48.6663 62.4603 47.7585C62.4603 47.579 62.432 47.3936 62.5319 47.232C62.5405 47.2167 62.5505 47.2021 62.5618 47.1887C62.5488 47.1399 62.5447 47.0893 62.5498 47.0391C62.5489 47.0257 62.5489 47.0122 62.5498 46.9987C62.5548 46.9768 62.564 46.956 62.5767 46.9374C62.5823 46.9283 62.5888 46.9198 62.5961 46.912C62.6028 46.9038 62.6103 46.8963 62.6185 46.8895C62.7124 46.8243 62.8251 46.7917 62.9393 46.7968C63.6987 46.7699 64.4596 46.7475 65.2191 46.7759C65.5682 46.7908 65.8726 47.0959 65.8472 47.4055C65.8144 47.7989 65.4429 48.0352 65.043 48.0875C64.7935 48.1119 64.5416 48.0962 64.297 48.0411C63.9837 47.9783 63.7629 48.1144 63.7464 48.3896Z" fill="white"/>
<path d="M12.4489 17.5686C12.4489 19.3349 12.437 21.1012 12.4489 22.8659C12.4374 23.7248 12.7149 24.5625 13.2367 25.2439C13.6172 25.7375 14.1707 25.7689 14.6914 25.902C15.0331 25.9917 15.4374 25.9633 15.3912 26.5227C15.3539 26.9713 15.2002 27.2002 14.7213 27.1628C13.7828 27.0925 12.8443 27.0042 11.9043 26.9893C11.127 26.9773 10.3496 27.0596 9.57077 27.1029C9.27237 27.1194 8.95606 27.1343 8.65019 27.1628C8.20258 27.2031 8.02653 26.9474 7.97132 26.5645C7.91015 26.1398 8.15335 26.0082 8.52635 25.9199C9.27983 25.7405 10.0631 25.5909 10.4779 24.7982C10.5902 24.6119 10.66 24.4031 10.6823 24.1866C10.7122 23.6586 10.7719 23.1322 10.7763 22.6057C10.8121 18.3119 10.7898 14.0166 10.8942 9.72424C10.9315 8.18529 10.1482 7.63042 8.7233 7.39262C8.06383 7.28644 7.95938 7.18773 8.02652 6.52219C8.05786 6.22308 8.22347 6.09147 8.49204 6.11689C10.5913 6.30982 12.6936 6.1812 14.7959 6.16624C15.1614 6.16624 15.3181 6.3158 15.4494 6.66128C15.8 7.60051 16.2058 8.52029 16.6132 9.43858C16.7937 9.84688 16.9116 10.2776 17.0876 10.6889C17.8172 12.3969 18.5229 14.1153 19.2272 15.8337C19.824 17.2829 20.4357 18.7247 20.9952 20.1888C21.0564 20.3489 21.0683 20.6031 21.2802 20.6106C21.4921 20.6181 21.4951 20.3608 21.5682 20.2038C22.165 18.943 22.6126 17.6254 23.105 16.3287C23.4631 15.388 23.7928 14.4234 24.1494 13.4797C24.506 12.5359 24.8417 11.5459 25.2595 10.6051C25.6235 9.78257 25.9204 8.92859 26.2158 8.07611C26.3815 7.59752 26.6396 7.1623 26.7694 6.66278C26.8649 6.29187 27.1946 6.06454 27.6557 6.10343C29.6664 6.24227 31.6842 6.24577 33.6954 6.1139C34.3325 6.07502 34.4683 6.2485 34.425 6.87664C34.4041 7.18922 34.2758 7.32532 33.9475 7.32532C33.5294 7.3118 33.1134 7.38989 32.7286 7.55415C31.7125 8.02975 31.617 8.95402 31.526 9.88278C31.4797 10.3509 31.4917 10.828 31.4917 11.3006C31.4991 15.2504 31.4917 19.2003 31.5305 23.1501C31.5305 23.9398 31.6215 24.7668 32.3063 25.3247C32.7663 25.6786 33.3187 25.8916 33.8968 25.9379C34.3146 25.9842 34.4638 26.1607 34.4265 26.5735C34.3892 26.9863 34.2146 27.1912 33.77 27.1717C32.2496 27.097 30.7292 27.0057 29.2089 26.9908C28.0689 26.9803 26.9275 27.0551 25.7906 27.1403C25.2803 27.1747 24.7745 27.1553 24.2673 27.1688C23.9689 27.1762 23.7853 27.0491 23.7749 26.7201C23.7644 26.391 23.7167 26.0665 24.1479 25.9977C24.5791 25.9289 24.979 25.7315 25.3922 25.6328C26.2352 25.4324 26.4113 24.7459 26.5754 24.1028C26.7157 23.5494 26.6948 22.9467 26.6978 22.3664C26.7097 19.125 26.7097 15.8846 26.6978 12.6451C26.6978 12.3699 26.8022 11.9198 26.4934 11.8809C26.1845 11.842 26.2964 12.3056 26.195 12.5374C25.822 13.4139 25.4564 14.2933 25.1058 15.1786C24.7552 16.064 24.4299 17.0018 24.0614 17.9006C23.6645 18.8653 23.3571 19.8628 22.9065 20.8095C22.6909 21.2447 22.5141 21.6981 22.3783 22.1645C22.2291 22.694 21.98 23.1711 21.7815 23.6721C21.3906 24.698 20.9669 25.7105 20.6133 26.75C20.5721 26.9029 20.4743 27.0344 20.3399 27.1177C20.2055 27.201 20.0446 27.23 19.8896 27.1987C19.5301 27.1583 19.0854 27.4305 18.8527 26.8831C18.4051 25.8362 17.9575 24.8027 17.5352 23.7513C17.1771 22.854 16.7892 21.9701 16.4431 21.0757C16.0969 20.1814 15.6851 19.3379 15.3986 18.4256C15.2271 17.8782 15.0659 17.2904 14.7257 16.7894C14.4945 16.4499 14.399 16.0162 14.2781 15.6423C14.108 15.0919 13.7604 14.6208 13.6664 14.036C13.5978 13.6038 13.2994 13.2299 13.171 12.7887C13.0756 12.4537 12.8592 12.1441 12.813 11.7762C12.801 11.67 12.7518 11.5354 12.6384 11.5249C12.4713 11.51 12.4489 11.6745 12.4325 11.7941C12.4071 11.9925 12.3966 12.1924 12.4012 12.3924C12.4012 14.1213 12.4012 15.8502 12.4012 17.5791L12.4489 17.5686Z" fill="#FDFDFD"/>
<path d="M99.2436 21.0998C99.2914 22.1003 99.1422 23.4299 99.3496 24.752C99.4645 25.4788 99.742 26.0187 100.489 26.0382C100.598 26.0526 100.704 26.0776 100.807 26.113C101.192 26.2012 101.349 26.451 101.303 26.8353C101.256 27.2197 100.962 27.2302 100.689 27.2272C99.8927 27.2152 99.0944 27.1838 98.3022 27.1569C96.9414 27.112 95.5807 27.1569 94.2215 27.2272C93.8828 27.2451 93.4755 27.293 93.4471 26.7785C93.4217 26.2984 93.6724 26.0307 94.1663 26.0172C94.3488 26.0226 94.5273 25.9627 94.6698 25.8481C94.8122 25.7336 94.9093 25.5719 94.9436 25.3921C95.0837 24.9598 95.1606 24.5094 95.1719 24.055C95.1614 22.199 95.1719 20.343 95.1719 18.4855C95.1719 17.6973 94.9615 16.9375 94.8242 16.1733C94.6989 15.4749 93.6008 14.9858 92.8533 15.2356C92.4583 15.3666 92.0935 15.5758 91.7806 15.8507C91.4677 16.1255 91.213 16.4605 91.0315 16.8358C90.702 17.5055 90.5367 18.2444 90.5496 18.991C90.5272 20.8844 90.4974 22.7763 90.557 24.6742C90.5839 25.5132 90.8957 25.917 91.6955 26.0831C92.0759 26.1623 92.2848 26.3208 92.24 26.7381C92.1893 27.2062 91.8611 27.2152 91.5194 27.1868C90.3646 27.103 89.2112 26.9669 88.0504 27.0118C87.1284 27.0492 86.2063 27.1255 85.2857 27.1838C84.9381 27.2047 84.6635 27.1195 84.6367 26.7082C84.6173 26.43 84.6814 26.2416 85.0112 26.1518C86.1048 25.8527 86.3406 25.6179 86.3674 24.4977C86.4301 21.9343 86.5047 19.3664 86.2555 16.8089C86.1197 15.415 84.8411 14.8407 83.6131 15.5048C82.4941 16.103 82.0525 17.0886 81.8809 18.2522C81.6079 20.0947 81.6481 21.9537 81.6944 23.8068C81.7108 24.4618 81.7108 25.1618 82.1853 25.7226C82.3703 25.941 82.5583 26.0965 82.8701 26.0801C83.2864 26.0606 83.5132 26.2625 83.5027 26.7052C83.4923 27.1958 83.1521 27.1898 82.8149 27.1718C81.4034 27.0985 79.9905 27.0223 78.5761 27.0642C77.83 27.0881 77.0915 27.1195 76.3514 27.1688C75.9904 27.1928 75.7218 27.0911 75.6711 26.7202C75.6203 26.3493 75.8964 26.1518 76.1992 26.0621C76.5723 25.9529 76.9736 25.9948 77.2556 25.6045C77.5794 25.1558 77.6182 24.6652 77.6182 24.1552C77.6182 21.9717 77.6182 19.7866 77.6032 17.6031C77.5958 16.5188 76.9557 15.7501 75.8934 15.5467C75.5428 15.4794 75.5189 15.2341 75.5099 14.9843C75.4995 14.6463 75.6114 14.3711 76.0142 14.3397C76.7328 14.2639 77.447 14.1506 78.1538 14.0002C79.0266 13.8327 79.8801 13.6069 80.738 13.393C81.2125 13.2749 81.4288 13.4558 81.4512 13.9165C81.4706 14.3352 81.4766 14.754 81.4885 15.1713C81.4885 15.3208 81.4885 15.4868 81.6481 15.5481C81.8078 15.6095 81.8869 15.4464 81.9734 15.3313C83.0551 13.9045 84.4725 13.1268 86.2809 13.1597C87.7386 13.1866 88.974 13.7131 89.8692 14.9021C90.0184 15.0965 90.0587 15.3657 90.1602 15.596C90.2825 15.8712 90.4392 15.8682 90.5749 15.6125C91.0837 14.6598 91.9028 14.0107 92.8369 13.5844C93.6249 13.2517 94.4837 13.1226 95.3345 13.2091C96.5953 13.3078 97.7397 13.6742 98.5603 14.7181C98.9152 15.1523 99.124 15.6878 99.1571 16.2481C99.2526 17.7556 99.2287 19.2647 99.2436 21.0998Z" fill="#FDFDFD"/>
<path d="M116.73 25.3621C116.503 24.7085 116.237 24.6308 115.626 24.9942C115.154 25.2754 114.88 25.1677 114.699 24.6532C114.618 24.3926 114.58 24.1201 114.587 23.8471C114.587 22.7912 114.587 21.7358 114.587 20.6809C114.587 19.6445 114.614 18.6065 114.587 17.5701C114.543 16.1912 114.27 14.9095 112.97 14.0989C111.627 13.2643 110.135 13.1267 108.643 13.1865C107.424 13.2176 106.215 13.4267 105.056 13.8072C103.415 14.3681 102.848 15.3028 103.014 16.6787C103.057 17.0103 103.201 17.3206 103.425 17.5683C103.649 17.816 103.943 17.9893 104.268 18.0651C104.865 18.1878 105.781 17.8318 106.038 17.3458C106.355 16.7815 106.64 16.1992 106.89 15.6019C107.242 14.6926 107.733 14.5206 108.671 14.4877C109.61 14.4548 110.072 14.9139 110.313 15.8337C110.392 16.1889 110.429 16.5526 110.42 16.9165C110.42 17.763 110.137 18.2536 109.341 18.5108C108.893 18.6636 108.452 18.8403 108.022 19.0403C106.839 19.5682 105.635 20.0034 104.504 20.6854C103.121 21.5289 101.874 23.4582 102.621 25.3561C102.972 26.2535 103.587 26.937 104.458 27.2331C106.587 27.9569 108.394 27.2331 109.956 25.7539C110.223 25.5012 110.335 25.5565 110.481 25.8168C110.607 26.0381 110.715 26.2654 110.856 26.4793C111.079 26.8541 111.428 27.1371 111.84 27.2779C113.492 27.785 114.954 27.3288 116.272 26.3238C116.545 26.1204 116.879 25.8078 116.73 25.3621ZM110.45 21.6231C110.45 22.0943 110.45 22.5669 110.45 23.0395C110.439 24.1267 109.435 25.1079 108.361 25.0929C108.033 25.1002 107.713 24.9909 107.457 24.7842C107.202 24.5775 107.028 24.2868 106.966 23.9637C106.544 22.2109 106.966 21.2866 108.474 20.3534C108.947 20.0543 109.446 19.806 109.937 19.5443C110.295 19.3528 110.453 19.5293 110.46 19.8778C110.463 20.4656 110.445 21.0473 110.445 21.6291L110.45 21.6231Z" fill="#FDFDFD"/>
<path d="M49.8215 25.1586C49.6484 25.009 49.5425 24.6426 49.1665 24.8595C48.3115 25.3455 47.8445 25.0643 47.8371 24.0623C47.8296 22.8434 47.8371 21.6245 47.8371 20.4056H47.7983C47.7983 19.1329 47.858 17.8556 47.7804 16.5874C47.7058 15.358 47.009 14.4592 45.9258 13.8953C44.9709 13.4033 43.919 13.2896 42.8746 13.2657C41.4064 13.2328 39.9607 13.2941 38.5313 13.7802C37.5257 14.1211 36.7513 14.5788 36.3514 15.5913C36.053 16.3391 36.338 17.377 36.9483 17.7195C37.7748 18.1861 38.8327 18.1114 39.3489 17.2708C39.6218 16.8026 39.8458 16.3075 40.0174 15.7932C40.4008 14.7463 41.1244 14.2333 42.2315 14.4277C42.7299 14.516 43.2998 14.6895 43.4714 15.2698C43.6495 15.8634 43.7498 16.4778 43.7698 17.0974C43.787 17.4161 43.7002 17.7319 43.5226 17.9968C43.3449 18.2618 43.086 18.4616 42.7851 18.566C41.6034 18.9594 40.4486 19.4185 39.3012 19.9046C38.2045 20.3697 37.2123 20.9709 36.4439 21.8952C36.0448 22.362 35.7818 22.93 35.6839 23.5369C35.586 24.1438 35.6569 24.766 35.8889 25.335C36.094 25.9238 36.4699 26.4376 36.9683 26.8107C37.4668 27.1838 38.0651 27.399 38.6865 27.4289C39.641 27.5218 40.6032 27.3673 41.481 26.9802C42.1211 26.69 42.6314 26.2473 43.1819 25.842C43.5848 25.5429 43.7788 25.6102 43.928 26.0783C44.0148 26.348 44.1644 26.5931 44.3644 26.7934C44.5645 26.9936 44.8092 27.1433 45.0783 27.23C46.7837 27.8282 48.6786 27.212 49.8528 25.8989C49.9029 25.8501 49.9421 25.7913 49.9679 25.7263C49.9937 25.6613 50.0055 25.5916 50.0026 25.5217C49.9996 25.4518 49.9819 25.3833 49.9507 25.3207C49.9195 25.2582 49.8755 25.2029 49.8215 25.1586ZM43.555 23.8036C43.3371 24.4841 42.3076 25.1406 41.4989 25.1062C40.917 25.0808 40.2546 24.4317 40.1173 23.6944C39.8189 22.0971 40.5038 21.0472 41.8928 20.3024C42.2554 20.1065 42.615 19.9046 42.9626 19.6862C43.1417 19.574 43.3118 19.4813 43.5162 19.583C43.7206 19.6847 43.6788 19.8821 43.6788 20.0646V21.7785C43.6206 22.3618 43.7817 23.0932 43.552 23.8036H43.555Z" fill="#FDFDFD"/>
<path d="M53.3665 27.1596H50.8076C50.5331 27.1596 50.2884 27.1207 50.2795 26.7663C50.2795 26.4447 50.2795 26.1037 50.6748 26.0275C51.7596 25.8151 52.5294 25.1077 53.3247 24.4182C54.3393 23.5373 55.0316 22.3558 56.082 21.5078C56.346 21.2939 56.2312 21.0367 56.0581 20.7824C55.7836 20.3756 55.3673 20.1244 55.0435 19.7684C54.0722 18.6961 53.3247 17.4458 52.3325 16.3929C52.146 16.194 52.043 15.9442 51.8849 15.7184C51.4805 15.1575 51.0076 14.7119 50.3541 14.4711C50.2417 14.4316 50.1453 14.3566 50.0793 14.2572C50.0134 14.1579 49.9815 14.0398 49.9885 13.9207C49.9706 13.5558 50.0915 13.3972 50.4869 13.4077C52.8453 13.4765 55.2041 13.4825 57.5635 13.4257C57.8172 13.4257 58.1484 13.3284 58.1932 13.7457C58.235 14.1286 58.0723 14.2931 57.6844 14.4337C57.0369 14.6685 56.5445 15.2069 57.1652 15.9128C57.7247 16.5499 58.2424 17.2244 58.7885 17.875C59.0421 18.1741 59.2615 18.2115 59.5882 17.875C60.2343 17.2229 60.9206 16.6202 61.2116 15.7049C61.404 15.0977 61.313 14.9003 60.7162 14.7044C60.3477 14.5832 59.9284 14.5548 59.7956 14.0777C59.6807 13.6664 59.818 13.4212 60.2432 13.4182C61.9501 13.4107 63.657 13.4182 65.3624 13.4286C65.5549 13.4286 65.7876 13.4152 65.8562 13.6694C65.8973 13.7821 65.9017 13.9049 65.8687 14.0202C65.8357 14.1355 65.7671 14.2373 65.6727 14.311C65.5264 14.4453 65.3536 14.5473 65.1654 14.6102C64.494 14.7522 63.9837 15.1501 63.5242 15.6122C62.4171 16.7219 61.3384 17.8556 60.2417 18.9698C60.0343 19.1792 60 19.2973 60.2059 19.5471C61.4224 21.0317 62.6777 22.4834 63.9718 23.9022C64.4284 24.4033 64.4701 24.65 64.0763 25.1869C63.7778 25.5967 63.6585 26.1037 63.3541 26.515C63.0706 26.8964 62.8035 27.1806 62.2619 27.1596C61.0832 27.1118 59.903 27.1177 58.7228 27.1252C58.3707 27.1252 58.2141 26.9757 58.2051 26.6496C58.1962 26.3236 58.2752 26.0514 58.6945 26.0065C59.6166 25.9003 59.7628 25.5474 59.1928 24.7682C58.6691 24.0533 58.1171 23.3593 57.5635 22.6744C57.3174 22.3678 57.104 22.2556 56.7578 22.6609C56.2073 23.3085 55.5836 23.8963 55.1166 24.6171C54.6496 25.338 54.9197 25.9078 55.7701 25.9796C56.2819 26.0245 56.4803 26.2129 56.4445 26.7274C56.4206 27.0474 56.3147 27.1761 55.982 27.1656C55.1121 27.1477 54.2393 27.1656 53.368 27.1656L53.3665 27.1596Z" fill="#FDFDFD"/>
<path d="M73.2911 19.1539C73.2911 20.8813 73.2911 22.6087 73.2911 24.3376C73.2911 24.7474 73.3179 25.1422 73.5895 25.5236C73.6885 25.6841 73.8286 25.8151 73.9952 25.903C74.1618 25.9908 74.3489 26.0323 74.5369 26.0231C74.9443 26.0231 75.2098 26.234 75.2531 26.6213C75.2919 26.9653 74.8622 27.1433 74.4071 27.1239C72.9807 27.067 71.5588 26.8591 70.125 27.0446C69.4088 27.1373 68.6792 27.1343 67.9571 27.1627C67.7228 27.1627 67.4543 27.1792 67.3782 26.8816C67.3021 26.584 67.5274 26.4853 67.7557 26.3836C68.8001 25.9349 69.1477 25.057 69.1447 23.9906C69.1447 21.7173 69.1612 19.4425 69.1298 17.1707C69.1224 16.5486 69.0672 15.8995 68.4241 15.5017C68.2258 15.3505 67.9839 15.2681 67.7348 15.2669C67.4021 15.2938 67.2021 15.1906 67.1932 14.8346C67.1842 14.4787 67.1633 14.1123 67.6154 14.0106C67.8609 13.9587 68.1106 13.9302 68.3614 13.9253C69.8923 13.8819 71.3709 13.52 72.8554 13.203C73.3165 13.1043 73.2657 13.4587 73.2687 13.7115C73.2821 14.6567 73.2687 15.6019 73.2687 16.5531C73.2687 17.4265 73.2687 18.2984 73.2687 19.1718L73.2911 19.1539Z" fill="#FDFDFD"/>
<path d="M91.3193 10.3436C90.7613 10.2419 90.2749 10.0444 89.9497 9.51649C89.8109 9.29215 89.7154 9.0364 89.9213 8.89582C90.1272 8.75523 90.3973 8.92274 90.5181 9.13362C90.8374 9.7154 91.3417 9.63015 91.846 9.54041C91.9571 9.5296 92.0601 9.47761 92.1349 9.39461C92.2097 9.31161 92.2509 9.20359 92.2504 9.09174C92.2668 8.81206 92.1012 8.6999 91.8654 8.65055C91.4178 8.55932 91.0359 8.30656 90.5808 8.22879C90.1496 8.15401 90.0631 7.74272 90.0526 7.37481C90.0407 7.03083 90.0526 6.71676 90.4376 6.45353C91.1299 5.98392 91.7132 6.13647 92.3384 6.52532C92.4695 6.62075 92.5751 6.74712 92.6458 6.89324C92.7413 7.0428 92.8323 7.24171 92.6249 7.37033C92.4608 7.47203 92.3265 7.37033 92.2131 7.22077C91.8818 6.8364 91.4387 6.79453 90.9702 6.86482C90.721 6.90371 90.5823 7.03532 90.5972 7.3135C90.6121 7.59167 90.727 7.71879 90.9926 7.73824C91.4828 7.76121 91.9569 7.92016 92.3623 8.19738C92.971 8.62961 92.9397 9.63165 92.2832 9.99208C91.9788 10.1581 91.7028 10.3854 91.3193 10.3436Z" fill="#FDFDFD"/>
<path d="M37.9419 6.26489C38.2194 6.37257 38.67 6.39949 38.9102 6.8377C38.9908 6.98726 39.231 7.10391 39.0177 7.28637C38.8416 7.43593 38.6447 7.28637 38.5462 7.15775C38.2925 6.81675 37.9494 6.77638 37.5823 6.81676C37.3063 6.84816 36.9766 6.84218 36.9378 7.24749C36.899 7.65279 37.178 7.75748 37.5137 7.79786C37.8707 7.8642 38.2139 7.99115 38.5283 8.17325C39.3295 8.5636 39.4474 9.26354 38.8013 9.86476C38.1553 10.466 36.893 10.2656 36.4931 9.52078C36.4215 9.38618 36.2395 9.24558 36.4603 9.11098C36.4987 9.0856 36.5417 9.06816 36.5868 9.05968C36.632 9.0512 36.6784 9.05186 36.7233 9.06161C36.7682 9.07137 36.8107 9.09002 36.8483 9.11648C36.8859 9.14293 36.9178 9.17666 36.9422 9.21567C37.3242 9.72716 37.7838 9.80344 38.3671 9.55218C38.6118 9.44599 38.7058 9.35027 38.7043 9.09154C38.7155 8.9949 38.689 8.89768 38.6304 8.82019C38.5717 8.7427 38.4854 8.69095 38.3895 8.67577C37.9762 8.54117 37.6211 8.30187 37.1511 8.24803C36.7199 8.19718 36.5006 7.76346 36.5319 7.28637C36.5588 6.87658 36.5782 6.47127 37.1437 6.4294C37.372 6.41295 37.5659 6.21404 37.9419 6.26489Z" fill="#FDFDFD"/>
<path d="M49.9602 8.96289C49.9602 8.72659 49.9781 8.4873 49.9602 8.25399C49.9532 8.05374 49.884 7.86069 49.7623 7.70172C49.6406 7.54276 49.4725 7.42579 49.2814 7.36711C48.6249 7.17268 48.0325 7.35963 47.8281 7.75147C47.7714 7.86065 47.6551 7.96833 47.8013 8.08499C47.8278 8.11004 47.859 8.1296 47.8931 8.14256C47.9272 8.15552 47.9635 8.16162 48 8.1605C48.0364 8.15939 48.0723 8.1511 48.1055 8.13609C48.1387 8.12108 48.1687 8.09964 48.1937 8.07302C48.2474 8.02366 48.2757 7.94889 48.3309 7.90551C48.4335 7.82922 48.5553 7.78308 48.6826 7.77225C48.8099 7.76142 48.9376 7.78633 49.0516 7.8442C49.0825 7.85352 49.1112 7.86899 49.136 7.88968C49.1608 7.91036 49.1812 7.93583 49.1959 7.96458C49.2107 7.99334 49.2195 8.02478 49.2219 8.05703C49.2243 8.08927 49.2201 8.12167 49.2098 8.15229C49.1749 8.26709 49.1076 8.36931 49.0159 8.44655C48.9243 8.52379 48.8123 8.57275 48.6935 8.5875C48.5708 8.62137 48.4447 8.64094 48.3175 8.64583C47.852 8.6219 47.6968 9.00627 47.5432 9.3009C47.4074 9.56412 47.6372 9.8094 47.8505 9.99485C48.1325 10.2401 48.4309 10.3613 48.7875 10.1444C48.9934 10.0158 49.2157 9.92007 49.4574 10.0218C49.8782 10.1997 49.9752 9.98139 49.9722 9.62095C49.9722 9.40409 49.9722 9.18574 49.9722 8.96738L49.9602 8.96289ZM48.6622 9.75406C48.3891 9.76752 48.1504 9.5701 48.1698 9.34876C48.2026 8.97037 48.5861 8.93896 48.8815 8.91653C48.9341 8.90888 48.9878 8.91255 49.0389 8.92729C49.09 8.94204 49.1373 8.96751 49.1779 9.00204C49.2184 9.03656 49.2511 9.07933 49.2738 9.1275C49.2965 9.17568 49.3088 9.22816 49.3097 9.28145C49.171 9.52075 48.983 9.73761 48.6622 9.75406Z" fill="#FDFDFD"/>
<path d="M43.0553 8.80149C43.0046 8.4575 43.2299 7.98639 42.7793 7.66036C42.6942 7.59904 42.7464 7.48836 42.83 7.43302C43.0538 7.28347 43.0971 7.05913 43.1105 6.81684C43.1194 6.65083 43.194 6.53118 43.3776 6.54165C43.4512 6.54481 43.5215 6.5738 43.576 6.62354C43.6305 6.67329 43.6659 6.74063 43.676 6.81385C43.6893 6.8485 43.6893 6.88689 43.676 6.92154C43.4432 7.29394 44.4533 7.37021 43.8893 7.81889C43.5133 8.11801 43.7222 8.52779 43.679 8.88823C43.6536 9.0991 43.6312 9.33691 43.7804 9.51787C43.8633 9.60224 43.9165 9.71132 43.9321 9.82866C43.9477 9.94601 43.9249 10.0653 43.867 10.1684C43.857 10.1896 43.8422 10.2082 43.8237 10.2226C43.8053 10.237 43.7837 10.2468 43.7608 10.2513C43.7378 10.2558 43.7142 10.2549 43.6916 10.2485C43.6691 10.2422 43.6484 10.2306 43.6312 10.2148C43.4387 10.0249 43.0463 10.0338 43.0568 9.63752C43.0613 9.37728 43.0553 9.12304 43.0553 8.80149Z" fill="#FDFDFD"/>
<path d="M115.627 12.1099C115.757 12.0829 115.912 12.0784 115.986 12.1786C116.52 12.9264 117.264 12.4778 117.915 12.5166C118.139 12.5301 118.165 12.2968 118.145 12.1024L118.134 12.1128C118.485 12.0904 118.967 11.5834 119.029 11.1676C119.11 10.7499 119.05 10.317 118.857 9.93765C118.665 9.55832 118.351 9.25429 117.967 9.07381C117.84 9.008 117.669 8.96014 117.719 8.78516C117.77 8.61018 117.968 8.66103 118.1 8.68196C118.622 8.76871 119.31 9.52398 119.443 10.1132C119.55 10.6571 119.482 11.2211 119.249 11.7238C119.015 12.2265 118.629 12.6419 118.145 12.91C117.613 13.1927 116.102 12.919 115.69 12.4613C115.644 12.416 115.614 12.3569 115.604 12.293C115.595 12.2292 115.606 12.1638 115.636 12.1069L115.627 12.1099Z" fill="#FDFDFD"/>
<path d="M113.895 8.27348C113.895 8.74459 113.895 9.2157 113.895 9.68681C113.895 9.86927 113.844 10.0906 113.643 10.119C113.441 10.1474 113.401 9.8917 113.298 9.7556C113.287 9.74153 113.28 9.72431 113.279 9.70625C113.298 8.67579 113.313 7.64533 113.346 6.61487C113.346 6.48924 113.416 6.31575 113.613 6.33669C113.81 6.35763 113.876 6.54458 113.88 6.69862C113.898 7.22208 113.888 7.74554 113.888 8.27348H113.895Z" fill="#FDFDFD"/>
<path d="M118.134 12.1022V12.1127L118.145 12.1022H118.134ZM118.089 11.7628C118.059 11.6773 118.013 11.5978 117.955 11.5279C117.936 11.5039 117.915 11.481 117.893 11.4591C117.87 11.4352 117.846 11.4143 117.822 11.3933C117.512 11.1301 117.59 10.9163 117.876 10.6979C118.324 10.3524 118.324 10.0817 117.861 9.7467C117.612 9.56573 116.599 9.53433 116.342 9.70333C116.284 9.74072 116.193 9.79606 116.193 9.84391C116.183 10.5139 116.193 11.1899 116.193 11.9826C116.329 11.833 116.384 11.7942 116.389 11.7553C116.426 11.4861 116.421 11.1959 116.768 11.1137C117.114 11.0314 117.252 11.2632 117.464 11.4861C117.676 11.7089 117.731 12.1127 118.14 12.1022C118.148 12.0087 118.139 11.9146 118.115 11.8241C118.108 11.803 118.1 11.7825 118.089 11.7628ZM117.069 10.5334C116.865 10.493 116.593 10.4526 116.581 10.2103C116.568 9.92767 116.859 9.89925 117.061 9.92916C117.264 9.95908 117.588 9.91869 117.578 10.2283C117.57 10.4945 117.293 10.505 117.069 10.5334Z" fill="#FDFDFD"/>
<path d="M102.362 7.37603C103.073 7.39098 103.499 7.81423 103.458 8.43191C103.445 8.61437 103.42 8.7744 103.206 8.76991C103.026 8.76991 102.988 8.62035 102.972 8.46182C102.909 7.86359 102.6 7.65719 102.011 7.84115C101.959 7.85401 101.911 7.87858 101.871 7.91295C101.775 8.00567 101.802 9.43096 101.892 9.54612C101.981 9.66128 102.244 9.73606 102.027 9.90655C101.946 9.96939 101.844 9.99908 101.742 9.98965C101.64 9.98021 101.545 9.93236 101.477 9.85571C101.289 9.6109 101.171 9.31961 101.135 9.01282C101.099 8.70602 101.146 8.39518 101.273 8.11335C101.477 7.6228 101.78 7.27283 102.362 7.37603Z" fill="#FDFDFD"/>
<path d="M107.217 8.77307C107.217 7.68727 107.693 7.23859 108.692 7.37021C109.207 7.43751 109.647 8.16436 109.459 8.60705C109.395 8.75661 109.335 8.87177 109.161 8.84335C108.986 8.81494 108.964 8.65042 108.976 8.50685C109.006 8.15538 109.01 7.85777 108.528 7.82785C107.842 7.78598 107.761 7.85477 107.893 8.53676C107.938 8.69339 107.923 8.86122 107.852 9.00786C107.806 9.08646 107.785 9.17764 107.793 9.26858C107.802 9.35952 107.838 9.44566 107.897 9.51487C107.988 9.63452 108.294 9.75417 108.021 9.92018C107.969 9.9494 107.911 9.96749 107.852 9.97332C107.792 9.97915 107.732 9.9726 107.675 9.95406C107.618 9.93553 107.566 9.90541 107.521 9.86561C107.476 9.82581 107.44 9.77717 107.415 9.72276C107.298 9.41913 107.231 9.09835 107.217 8.77307Z" fill="#FDFDFD"/>
<path d="M96.6144 8.64584C96.695 8.15828 96.3473 7.53612 96.6398 6.91844C96.7009 6.78982 96.686 6.61035 96.8755 6.61035C97.065 6.61035 97.0665 6.78234 97.0904 6.92741C97.1068 7.03061 97.1217 7.17568 97.1918 7.22653C97.5574 7.48527 97.4335 7.62137 97.2127 7.97432C96.9516 8.3886 97.0143 8.98833 97.2127 9.48786C97.2813 9.65686 97.5275 9.76155 97.3724 9.99786C97.3216 10.0756 97.2411 10.1474 97.1471 10.0891C96.9397 9.95897 96.6442 9.89914 96.6144 9.59703C96.5876 9.32035 96.6144 9.04516 96.6144 8.64584Z" fill="#FDFDFD"/>
<path d="M68.4854 8.76842C68.5212 8.31974 68.4316 7.90697 68.8449 7.59439C69.2582 7.28181 69.7506 7.3521 70.134 7.47325C70.5175 7.59439 70.7309 8.01913 70.6607 8.49323C70.6369 8.67419 70.61 8.82525 70.3937 8.82376C70.1549 8.82376 70.1743 8.64279 70.1713 8.4723C70.1624 7.82321 69.6461 7.53307 69.0866 7.8606C69.0571 7.87716 69.0312 7.89954 69.0105 7.9264C68.924 8.04755 69.0926 9.50125 69.212 9.59847C69.3313 9.69568 69.4582 9.73457 69.3821 9.88861C69.2925 10.0666 69.1478 9.97386 69.0061 9.93497C68.3182 9.74803 68.5376 9.1812 68.4854 8.76842Z" fill="#FDFDFD"/>
<path d="M81.2508 7.37608C81.3776 7.36935 81.5046 7.36935 81.6313 7.37608C81.8417 7.39702 81.9834 7.51666 81.9372 7.73651C81.8969 7.93393 81.7298 7.8786 81.5835 7.85168C81.2851 7.79784 80.8375 7.70212 80.745 7.96534C80.6257 8.32129 81.1404 8.32428 81.3612 8.49777C81.5821 8.67126 81.8372 8.70117 82.052 8.89261C82.4057 9.20519 82.3624 9.4699 82.067 9.75555C81.9416 9.8767 81.776 10.0412 81.6014 9.87521C81.3672 9.64938 81.7044 9.6404 81.773 9.53571C81.9222 9.31137 81.9013 9.14536 81.6328 9.10198C81.3001 9.04814 81.036 8.85372 80.7376 8.73706C80.3541 8.5875 80.0885 8.34373 80.2124 7.92795C80.2621 7.75318 80.3711 7.60132 80.5207 7.49863C80.6703 7.39594 80.851 7.34889 81.0315 7.36561H81.2493L81.2508 7.37608Z" fill="#FDFDFD"/>
<path d="M75.3321 7.37616C75.6962 7.35821 75.917 7.37616 76.0781 7.54516C76.1781 7.64387 76.281 7.78745 76.1796 7.92953C76.0781 8.07161 75.9647 7.92204 75.8588 7.87867C75.5514 7.75454 75.1008 7.62442 74.9964 7.94448C74.8815 8.29445 75.3261 8.50831 75.6514 8.59655C76.0154 8.69825 76.3452 8.76556 76.4377 9.21274C76.4668 9.35366 76.4555 9.49996 76.4051 9.6347C76.3546 9.76943 76.2671 9.88708 76.1527 9.97399C76.0919 10.0294 76.0133 10.061 75.9311 10.0632C75.849 10.0654 75.7688 10.038 75.7051 9.98596C75.5857 9.8708 75.7364 9.75713 75.811 9.66889C76.0856 9.34286 75.9931 9.13347 75.6051 9.05719C75.3217 9.00186 75.1441 8.77004 74.8845 8.69227C74.6249 8.6145 74.5189 8.42457 74.5861 8.19275C74.6696 7.92055 74.5861 7.54068 74.9904 7.44496C75.103 7.41607 75.2171 7.39311 75.3321 7.37616Z" fill="#FDFDFD"/>
<path d="M64.6744 8.27356C64.6744 8.72224 64.6744 9.18287 64.6744 9.63753C64.6744 9.80504 64.6416 9.99797 64.4386 10.0069C64.2357 10.0159 64.1969 9.80953 64.1954 9.651C64.1855 8.70678 64.1855 7.75958 64.1954 6.80939C64.1954 6.65983 64.2193 6.43698 64.4297 6.43997C64.6699 6.43997 64.6789 6.67179 64.6819 6.84976C64.6908 7.32087 64.6819 7.79497 64.6819 8.26608L64.6744 8.27356Z" fill="#FDFDFD"/>
<path d="M59.8986 7.87729C59.8813 7.88305 59.8632 7.88608 59.8449 7.88626C58.6185 7.64248 58.6095 7.64997 58.5946 8.90177C58.5946 9.17397 58.5946 9.44616 58.5797 9.71835C58.5797 9.82903 58.52 9.93671 58.3857 9.93671C58.33 9.93755 58.2761 9.91665 58.2354 9.87842C58.1948 9.84019 58.1706 9.78762 58.1679 9.73182C58.1529 9.0618 58.1529 8.38579 58.1544 7.72025C58.1608 7.66433 58.1848 7.61191 58.2231 7.5707C58.4469 7.28953 59.7614 7.32542 59.9837 7.62155C60.009 7.65595 59.9837 7.72475 59.9837 7.77111L59.8986 7.87729Z" fill="#FDFDFD"/>
<path d="M54.2619 8.7565C54.2619 9.06459 54.2619 9.37268 54.2619 9.68077C54.2619 9.80789 54.2395 9.96194 54.0858 9.97988C53.9023 9.99335 53.8456 9.83033 53.8441 9.68077C53.8352 9.02869 53.8352 8.37812 53.8441 7.72605C53.8441 7.58546 53.9098 7.47179 54.0649 7.4688C54.2201 7.46581 54.2693 7.59592 54.2708 7.72903C54.2708 8.07302 54.2708 8.417 54.2708 8.76099L54.2619 8.7565Z" fill="#FDFDFD"/>
<path d="M116.325 8.67435C116.448 8.68333 116.607 8.67436 116.612 8.83887C116.612 8.95702 116.554 9.10957 116.413 9.12452C115.944 9.17687 115.726 9.51039 115.518 9.87232C115.466 9.96803 115.399 10.0682 115.269 10.0219C115.139 9.97551 115.156 9.85138 115.163 9.7452C115.187 9.42514 116.012 8.66837 116.325 8.67435Z" fill="#FDFDFD"/>
<path d="M59.9851 7.78297C60.2298 7.74858 60.3133 7.89963 60.3178 8.10154C60.3283 8.59059 60.3268 9.07965 60.3178 9.5702C60.3178 9.71976 60.2865 9.89325 60.1015 9.88726C59.9165 9.88128 59.9015 9.7093 59.9015 9.55675L59.8926 7.8772L59.9851 7.78297Z" fill="#FDFDFD"/>
<path d="M102.721 10.0249C102.688 10.0039 102.608 9.98298 102.583 9.93363C102.56 9.88395 102.556 9.82782 102.572 9.77559C102.588 9.72336 102.622 9.67856 102.668 9.64947C102.806 9.54179 102.996 9.49991 103.085 9.32642C103.135 9.2307 103.187 9.11554 103.32 9.17686C103.452 9.23818 103.446 9.39073 103.402 9.50589C103.288 9.79753 103.057 9.95158 102.721 10.0249Z" fill="#FDFDFD"/>
<path d="M70.5233 9.13477C70.6591 9.41294 70.6323 9.60737 70.4592 9.77936C70.2861 9.95135 70.0936 10.1488 69.9146 9.94687C69.7087 9.71356 70.031 9.64775 70.1682 9.53558C70.2954 9.4101 70.4141 9.27619 70.5233 9.13477Z" fill="#FDFDFD"/>
<path d="M109.285 8.93164C109.486 9.52987 109.328 9.90078 108.969 9.95911C108.86 9.97855 108.74 9.98902 108.685 9.87236C108.673 9.84742 108.667 9.82013 108.667 9.7925C108.667 9.76486 108.673 9.73757 108.685 9.71262C108.697 9.68768 108.714 9.66571 108.736 9.64832C108.757 9.63094 108.782 9.61857 108.809 9.61213C109.08 9.52688 109.198 9.32049 109.285 8.93164Z" fill="#FDFDFD"/>
<path d="M74.7847 9.40283C74.8888 9.43216 74.9821 9.49117 75.0534 9.57268C75.1246 9.65419 75.1707 9.7547 75.186 9.86198C75.198 9.99957 75.0801 10.0325 74.9637 10.0115C74.734 9.98162 74.5415 9.89937 74.543 9.62418C74.5445 9.48061 74.6549 9.41629 74.7847 9.40283Z" fill="#FDFDFD"/>
<path d="M80.9647 9.73003C80.9752 9.93792 80.8618 9.95138 80.7513 9.95736C80.5096 9.96933 80.3037 9.90651 80.2843 9.62235C80.2739 9.5042 80.2843 9.27388 80.4037 9.32324C80.623 9.4025 80.7991 9.60141 80.9647 9.73003Z" fill="#FDFDFD"/>
<path d="M115.636 12.0993C115.573 12.135 115.499 12.1449 115.429 12.1271C115.359 12.1093 115.299 12.065 115.26 12.0036C115.216 11.9365 115.188 11.8599 115.178 11.7799C115.168 11.6998 115.178 11.6187 115.205 11.5429C115.218 11.5218 115.237 11.5043 115.258 11.492C115.28 11.4798 115.304 11.4731 115.329 11.4727C115.498 11.51 115.529 11.6611 115.566 11.7987C115.593 11.9004 115.608 12.0066 115.627 12.1098L115.636 12.0993Z" fill="#FDFDFD"/>
<path d="M28.5767 39.7841C28.5289 39.8244 28.5081 39.796 28.4946 39.7512C28.5513 39.6883 28.5827 39.6898 28.5767 39.7841Z" fill="#EB1E26"/>
<path d="M11.9611 51.2118C11.9611 51.499 11.7014 51.7323 11.5045 51.9252C11.3075 52.1182 10.7824 51.8819 10.6824 51.5618C10.5723 51.1757 10.5524 50.7694 10.6242 50.3743C10.6884 49.9541 10.5183 49.812 10.1229 49.815C8.87405 49.8269 9.03668 49.6759 9.03817 50.8619C9.03817 51.7174 8.91284 51.9447 8.41003 51.9596C7.90721 51.9746 7.71922 51.6919 7.72071 50.8484V49.3229C7.72071 48.7052 7.72071 48.0876 7.72071 47.4699C7.72071 47.0616 7.8923 46.767 8.34438 46.7221C8.72186 46.6862 8.98297 46.8044 9.00684 47.2321C9.00684 47.3413 9.02773 47.449 9.03071 47.5566C9.05459 48.5736 9.05309 48.5617 10.0751 48.5228C10.4392 48.5093 10.6152 48.3732 10.5929 48.0008C10.569 47.8207 10.569 47.6381 10.5929 47.4579C10.6585 47.1469 10.5929 46.7415 11.1106 46.7101C11.2101 46.6972 11.3111 46.7051 11.4074 46.7332C11.5037 46.7614 11.5931 46.8092 11.6701 46.8737C11.747 46.9381 11.8098 47.0179 11.8545 47.1079C11.8992 47.1979 11.9248 47.2962 11.9297 47.3966C12.0073 48.6679 11.9894 49.9421 11.9611 51.2118Z" fill="white"/>
<path d="M96.8694 41.8972C96.6605 41.5981 96.6157 41.2302 96.3263 40.9684C96.1383 40.8009 96.1651 40.5332 96.3949 40.3507C96.8977 39.9499 97.0976 39.428 96.9216 38.8148C96.7411 38.1792 96.0667 37.7006 95.3624 37.6707C94.8193 37.6467 94.2747 37.6527 93.7301 37.6617C93.1005 37.6707 92.7767 38.0072 92.7723 38.6413C92.7723 38.8746 92.7723 39.1094 92.7723 39.3427C92.7723 39.6538 92.7723 39.9649 92.7723 40.2775C92.7723 40.5676 92.7723 40.8592 92.7723 41.1494C92.7723 41.4395 92.7573 41.7312 92.7723 42.0213C92.7946 42.4565 92.9826 42.7975 93.4347 42.8917C93.8868 42.986 94.0405 42.6539 94.1658 42.2845C94.2164 42.0742 94.2365 41.8576 94.2255 41.6414C94.2389 41.4171 94.1509 41.121 94.4568 41.0432C94.7283 40.9744 94.8701 41.2137 95.0088 41.4066C95.2833 41.788 95.4475 42.2367 95.7548 42.6031C96.0353 42.9306 96.377 43.0114 96.7142 42.7975C97.0514 42.5837 97.1156 42.2412 96.8694 41.8972ZM94.8521 39.7899C94.5135 39.7734 94.0793 39.8632 94.0912 39.2844C94.0987 38.8357 94.3896 38.8103 94.8492 38.8552C95.0595 38.9195 95.5862 38.7415 95.6071 39.2889C95.6235 39.7256 95.2162 39.8093 94.8521 39.7899Z" fill="white"/>
<path d="M122.087 50.5252C122.087 50.4414 122.07 50.3591 122.061 50.2754L122.087 50.5252Z" fill="#161616"/>
<path d="M122.087 50.5252C122.087 50.4414 122.07 50.3591 122.061 50.2754L122.087 50.5252Z" fill="#161616"/>
<path d="M110.44 21.6291C110.44 22.1017 110.44 22.5743 110.44 23.0469C110.429 24.1327 109.425 25.1153 108.351 25.0989C108.023 25.106 107.703 24.9968 107.447 24.7905C107.192 24.5842 107.017 24.294 106.954 23.9712C106.534 22.2169 106.954 21.2926 108.464 20.3594C108.937 20.0602 109.436 19.812 109.927 19.5503C110.285 19.3588 110.443 19.5353 110.45 19.8838C110.464 20.4655 110.45 21.0473 110.45 21.6291H110.44Z" fill="#EB1E26"/>
<path d="M43.6758 21.7786C43.6221 22.3618 43.7817 23.0932 43.552 23.8051C43.3341 24.4841 42.3046 25.1406 41.496 25.1062C40.9141 25.0808 40.2516 24.4332 40.1143 23.6944C39.8159 22.0971 40.5008 21.0472 41.8899 20.3024C42.2524 20.108 42.612 19.9061 42.9596 19.6862C43.1387 19.5741 43.3088 19.4814 43.5132 19.5845C43.7176 19.6877 43.6758 19.8837 43.6758 20.0646V21.7786Z" fill="#EB1E26"/>
<path d="M49.3095 9.28317C49.1707 9.52096 48.9827 9.73185 48.6619 9.75428C48.3889 9.76774 48.1502 9.57182 48.1696 9.34897C48.2024 8.97059 48.5858 8.94068 48.8813 8.91675C48.934 8.90933 48.9876 8.91321 49.0387 8.92814C49.0898 8.94306 49.1372 8.96869 49.1777 9.00333C49.2181 9.03797 49.2508 9.08082 49.2735 9.12906C49.2963 9.1773 49.3085 9.22983 49.3095 9.28317Z" fill="#EB1E26"/>
<path d="M117.069 10.5334C116.863 10.493 116.593 10.4541 116.581 10.2118C116.568 9.92917 116.859 9.89926 117.061 9.92917C117.264 9.95908 117.588 9.9187 117.578 10.2283C117.57 10.4945 117.293 10.505 117.069 10.5334Z" fill="#EB1E26"/>
<path d="M122.619 51.4374C122.124 51.6288 121.637 51.8711 121.058 51.8427C119.954 51.7904 119.293 51.237 119.013 50.1632C118.755 49.1686 118.793 48.2189 119.523 47.4876C120.375 46.6366 121.891 46.3494 122.776 47.6641C123.014 48.0185 122.879 48.3311 122.462 48.4313C122.38 48.4625 122.302 48.5043 122.231 48.5554L121.979 48.2563C121.582 48.0589 121.187 47.863 120.724 47.9078L120.32 48.1232C120.309 48.2268 120.274 48.3262 120.216 48.4129C120.159 48.4997 120.081 48.5712 119.99 48.6212L119.981 48.6676C119.972 48.705 119.966 48.7439 119.96 48.7813C119.921 49.1561 119.921 49.534 119.96 49.9089C120.151 50.0914 120.283 50.3276 120.338 50.5864L120.746 50.7973C121.075 50.7254 121.414 50.7182 121.745 50.7764L122.065 50.6104L122.047 50.5326H122.094L122.067 50.2828C122.019 49.9538 121.758 49.9837 121.527 49.9598C121.427 49.9589 121.329 49.9261 121.249 49.8662C121.168 49.8062 121.109 49.7222 121.079 49.6263C121.027 49.3959 121.251 49.2763 121.413 49.1776C121.771 48.9682 122.796 49.1566 123.055 49.4543C123.408 49.8895 123.167 51.2265 122.619 51.4374Z" fill="white"/>
</svg>
