<svg width="16" height="16" viewBox="0 0 16 16" fill="none" xmlns="http://www.w3.org/2000/svg">
<path d="M14.9211 10.5486C15.1867 10.4098 15.4437 10.2539 15.7299 10.0904C15.5594 9.79764 15.4075 9.5205 15.24 9.25342C15.1535 9.1156 15.158 9.02305 15.2863 8.91189C15.5257 8.70516 15.75 8.48133 15.9975 8.24895C15.7666 8.00349 15.5559 7.76658 15.33 7.54477C15.2108 7.42807 15.2018 7.33351 15.2973 7.19972C15.4809 6.94269 15.6494 6.67611 15.8396 6.39494C15.5881 6.23147 15.3753 6.06951 15.1419 5.94225C14.9085 5.815 14.8235 5.67215 14.9573 5.40707C15.079 5.16564 15.1489 4.89755 15.248 4.62342C14.9176 4.50472 14.6203 4.39457 14.3205 4.29196C14.1807 4.24166 14.1239 4.17778 14.1571 4.0138C14.2074 3.76231 14.2169 3.49925 14.2577 3.24323C14.2798 3.10692 14.2536 3.03851 14.1068 3.02493C13.8407 3.00079 13.5756 2.95703 13.309 2.93741C13.143 2.92484 13.0751 2.85442 13.0631 2.68894C13.0429 2.42236 12.9987 2.15778 12.9735 1.8917C12.9595 1.74081 12.891 1.71918 12.7537 1.74081C12.5234 1.78104 12.2849 1.78105 12.0581 1.83235C11.8313 1.88366 11.7407 1.81072 11.6788 1.60349C11.5938 1.3193 11.4807 1.04367 11.373 0.748414C11.0627 0.863095 10.785 0.953632 10.518 1.06882C10.3303 1.1498 10.2162 1.12716 10.1095 0.939048C9.96265 0.678501 9.78611 0.436061 9.60654 0.159419C9.32587 0.347033 9.05828 0.516539 8.80176 0.700633C8.66797 0.796703 8.57341 0.789159 8.45671 0.670455C8.2349 0.445117 7.99849 0.233859 7.75253 0.000976562C7.52015 0.247943 7.29985 0.473784 7.0891 0.711193C6.97944 0.836437 6.8879 0.84499 6.74606 0.75747C6.47947 0.589473 6.20183 0.438075 5.90909 0.268569C5.74311 0.560301 5.58667 0.82638 5.4398 1.09749C5.36083 1.24285 5.27683 1.30623 5.10028 1.23581C4.87545 1.14628 4.63301 1.10302 4.40666 1.01701C4.22257 0.947098 4.15065 1.00544 4.10991 1.18299C4.05961 1.4023 3.97863 1.61556 3.92732 1.83688C3.88407 2.01946 3.80107 2.11101 3.59887 2.08385C3.39667 2.05668 3.18139 2.05417 2.97266 2.03656C2.6598 2.0094 2.64169 2.02499 2.63264 2.33131C2.63322 2.56659 2.62029 2.8017 2.5939 3.03549C2.58024 3.08137 2.55608 3.12344 2.52334 3.15836C2.49061 3.19328 2.45018 3.22009 2.40529 3.23669C2.14579 3.30188 1.88258 3.35126 1.6171 3.38457C1.46621 3.40469 1.41239 3.44744 1.45011 3.60991C1.50947 3.8614 1.52707 4.12396 1.59296 4.37344C1.63873 4.54647 1.57988 4.6189 1.43301 4.67523C1.13977 4.79344 0.850551 4.92119 0.535178 5.05549C0.670985 5.36734 0.789691 5.65907 0.926 5.94527C0.997927 6.09617 0.976297 6.1867 0.836467 6.28026C0.575417 6.45832 0.32493 6.65197 0.0513056 6.85266C0.257027 7.12628 0.434079 7.37929 0.630747 7.6167C0.744422 7.75351 0.745427 7.84958 0.623705 7.98136C0.409432 8.21324 0.213266 8.46171 0 8.71421C0.266583 8.93653 0.502987 9.14628 0.75448 9.34094C0.878717 9.43701 0.895319 9.52402 0.820877 9.65983C0.669981 9.93798 0.530652 10.2242 0.371708 10.537C0.689092 10.694 0.971268 10.8388 1.25847 10.9731C1.39679 11.0375 1.43905 11.115 1.39277 11.2689C1.31632 11.5249 1.27306 11.7905 1.20113 12.048C1.16039 12.1924 1.20516 12.2427 1.34499 12.2683C1.57485 12.3096 1.79767 12.38 2.03056 12.4192C2.24734 12.4554 2.35247 12.5465 2.33235 12.7834C2.31072 13.0082 2.33235 13.2361 2.3233 13.4624C2.31676 13.6284 2.38667 13.6847 2.54712 13.6787C2.79007 13.6696 3.03402 13.6847 3.27645 13.6706C3.45502 13.6606 3.53147 13.732 3.56316 13.903C3.60893 14.1495 3.68639 14.3899 3.72814 14.6369C3.75681 14.8089 3.82874 14.8381 3.98466 14.7913C4.18586 14.7294 4.3951 14.7043 4.59126 14.6359C4.84276 14.5489 4.99365 14.5961 5.09425 14.8607C5.18982 15.1167 5.33166 15.3556 5.46596 15.6278C5.7602 15.4769 6.03886 15.3466 6.30745 15.1962C6.4669 15.1072 6.57052 15.1137 6.68721 15.2701C6.87432 15.5216 7.08658 15.7535 7.29431 16.001C7.5614 15.7746 7.80334 15.5805 8.03169 15.3712C8.15442 15.2591 8.24596 15.2545 8.37674 15.3617C8.62119 15.5629 8.87973 15.7435 9.15285 15.9467C9.35103 15.6791 9.54568 15.4386 9.71418 15.1811C9.82132 15.0176 9.92695 15.0051 10.0899 15.086C10.3147 15.1977 10.5512 15.2872 10.778 15.3929C10.9088 15.4552 10.9762 15.422 11.0295 15.2923C11.121 15.0584 11.2307 14.831 11.3197 14.5971C11.3826 14.4352 11.456 14.3537 11.6557 14.4105C11.9042 14.481 12.1662 14.5006 12.4192 14.5549C12.5485 14.5826 12.6028 14.5514 12.6204 14.4171C12.6592 14.1525 12.7261 13.892 12.7542 13.6264C12.7728 13.4508 12.8629 13.3985 13.0133 13.3925C13.2477 13.3834 13.4826 13.3633 13.7175 13.3709C13.9363 13.3784 13.9956 13.2823 13.9745 13.0822C13.9498 12.8407 13.9468 12.5968 13.9242 12.3553C13.9091 12.1989 13.9745 12.129 14.1208 12.0938C14.3487 12.039 14.5695 11.958 14.7974 11.9031C14.989 11.8574 15.069 11.7809 14.984 11.5722C14.899 11.3634 14.8622 11.1361 14.7767 10.9279C14.6897 10.7342 14.7531 10.6366 14.9211 10.5486ZM5.1355 11.0737C4.8356 11.3105 4.45533 11.4213 4.0752 11.3826C3.95549 11.37 3.79856 11.3363 3.73619 11.2538C3.65685 11.137 3.62402 10.9947 3.64414 10.8549C3.6713 10.6965 3.82622 10.6849 3.97159 10.7247C4.22308 10.7926 4.48111 10.8252 4.69186 10.6497C4.79246 10.5662 4.9006 10.3892 4.87595 10.285C4.84728 10.1643 4.68934 10.0159 4.5641 9.98878C4.29752 9.93144 4.01535 9.94804 3.73971 9.92893C3.19145 9.8912 2.79762 9.48076 2.85848 8.9486C2.88212 8.74339 3.00937 8.52107 3.15172 8.36464C3.41427 8.07743 3.77995 7.95672 4.16372 7.91195C4.40717 7.88479 4.56259 8.00903 4.57215 8.21374C4.58171 8.41846 4.47155 8.48586 4.20296 8.51553C4.0249 8.53414 3.83125 8.57288 3.68538 8.66643C3.58479 8.73132 3.49023 8.91189 3.50582 9.02506C3.51739 9.11006 3.70148 9.19356 3.8227 9.2338C3.92883 9.26851 4.05508 9.24084 4.17479 9.24084C4.17454 9.23615 4.17454 9.23145 4.17479 9.22676C4.37598 9.2499 4.57718 9.25341 4.77083 9.30019C5.21346 9.40783 5.43578 9.73276 5.52531 10.1553C5.60227 10.5421 5.4398 10.8449 5.1355 11.0737ZM8.36467 9.59544C8.23741 9.71013 8.10161 9.77602 7.95021 9.61405C7.82245 9.47724 7.69469 9.27052 7.54279 9.24638C7.38183 9.22072 7.19724 9.39073 7.01465 9.44757C6.75059 9.52805 6.67765 9.66385 6.73952 9.94351C6.8215 10.3162 6.71739 10.4415 6.4161 10.4405C6.24508 10.449 6.147 10.364 6.12436 10.1814C6.01069 9.2509 5.89551 8.32038 5.77881 7.38985C5.75165 7.16904 5.87941 7.04681 6.05999 6.96433C6.23201 6.88586 6.40101 6.86926 6.54134 7.02971C7.17108 7.74898 7.80049 8.46825 8.42956 9.18752C8.57592 9.35351 8.49142 9.48177 8.36467 9.59544ZM10.6231 8.62267C10.2463 8.78413 9.87514 8.95816 9.49891 9.12163C9.23182 9.23782 9.13927 9.20463 9.02408 8.9486C8.65891 8.14014 8.29643 7.33083 7.93663 6.52069C7.83603 6.29032 7.87979 6.17765 8.09959 6.07957C8.3194 5.98149 8.41899 6.02625 8.52764 6.26718C8.82088 6.91503 9.11009 7.56439 9.40132 8.21324C9.43804 8.29573 9.47828 8.37671 9.52657 8.47831C9.82836 8.34552 10.11 8.22682 10.3877 8.09453C10.5753 8.005 10.7091 8.03468 10.7966 8.22833C10.8841 8.42198 10.8102 8.54169 10.6231 8.62166V8.62267ZM13.0968 7.5161C12.6657 7.70019 12.2417 7.89988 11.8116 8.088C11.542 8.2062 11.4595 8.17551 11.3413 7.90843C10.9767 7.09962 10.6196 6.28731 10.2509 5.48052C10.1503 5.26121 10.2141 5.12842 10.4184 5.03939C10.8694 4.8382 11.3202 4.63701 11.7709 4.43581C11.954 4.35332 12.0792 4.41368 12.1552 4.58972C12.2311 4.76577 12.1778 4.88146 12.0093 4.95741C11.6602 5.11434 11.3117 5.27228 10.943 5.43927C11.0607 5.70132 11.1683 5.94226 11.2835 6.19777C11.4726 6.11528 11.6356 6.0509 11.7915 5.97445C11.9474 5.89799 12.0933 5.91107 12.1713 6.08057C12.2553 6.26215 12.1713 6.38237 11.9967 6.4563C11.8368 6.5237 11.6804 6.60066 11.5008 6.68315C11.6165 6.9432 11.7246 7.18614 11.8413 7.44669C12.1934 7.28875 12.5319 7.1449 12.8624 6.98897C13.046 6.90195 13.1893 6.91755 13.2809 7.10768C13.3789 7.30937 13.2949 7.4316 13.0968 7.51509V7.5161Z" fill="#EB1E26"/>
<path d="M6.49027 7.86731L7.24928 8.77269L6.61351 9.05838L6.43896 7.89196L6.49027 7.86731Z" fill="#EB1E26"/>
</svg>
