<svg width="169" height="74" viewBox="0 0 169 74" fill="none" xmlns="http://www.w3.org/2000/svg">
<g filter="url(#filter0_d_3_9655)">
<path d="M83.3273 59.6274C83.3111 59.5659 83.3053 59.502 83.3103 59.4385C83.3038 59.5019 83.309 59.5659 83.3254 59.6274C83.3111 59.6445 83.2985 59.6628 83.2876 59.6822C83.2998 59.6632 83.313 59.6449 83.3273 59.6274ZM149.882 62.3391C149.882 62.1501 149.882 61.9498 149.882 61.7552C149.882 61.9441 149.882 62.1444 149.882 62.3391C149.882 62.6244 149.882 62.906 149.873 63.1951C149.875 62.9097 149.882 62.6244 149.882 62.3391Z" fill="#FDFDFD"/>
<path d="M164.992 5.48373C164.992 4.50112 164.888 3.56575 164.332 2.6644C163.316 1.01663 161.992 0.0189033 159.997 0.0189033H65.8334C46.9273 0.0189033 28.0205 0.0125976 9.11306 0C8.17589 0.0125409 7.26003 0.281125 6.46479 0.776638C4.70558 1.81216 4.03405 3.53929 4.02837 5.45917C3.99054 16.2452 3.99054 27.0325 4.02837 37.8211C4.02837 39.3536 4.72071 40.6688 5.93513 41.7024C6.97553 42.5868 8.16725 42.7889 9.46302 42.7852C16.1859 42.7751 22.9093 42.7751 29.6334 42.7852H89.1837H159.991C161.086 42.7852 162.157 42.6245 163.018 41.8989C164.37 40.7651 165.002 39.2818 165 37.5055C164.994 26.8303 164.991 16.1564 164.992 5.48373ZM150.013 12.3072C150.037 11.9066 151.083 10.9504 151.481 10.9599C151.638 10.9712 151.838 10.9599 151.844 11.1678C151.844 11.317 151.77 11.5098 151.592 11.5287C150.996 11.5948 150.72 12.0162 150.457 12.4735C150.391 12.5944 150.306 12.721 150.141 12.6625C149.977 12.6039 150.003 12.4414 150.013 12.3072ZM147.701 8.35598C147.701 8.19725 147.79 7.97806 148.04 8.00262C148.289 8.02719 148.373 8.26528 148.378 8.4618C148.401 9.12317 148.388 9.78454 148.388 10.4516H148.399C148.399 11.0468 148.399 11.6421 148.399 12.2354C148.399 12.4678 148.335 12.7456 148.079 12.7834C147.824 12.8212 147.773 12.4962 147.642 12.3242C147.628 12.3056 147.62 12.2833 147.618 12.26C147.642 10.958 147.659 9.65605 147.701 8.35598ZM141.803 9.31969C142.456 9.40662 143.014 10.325 142.775 10.8843C142.694 11.0733 142.618 11.2188 142.397 11.1829C142.176 11.147 142.149 10.9372 142.162 10.7577C142.2 10.3136 142.206 9.93572 141.595 9.89981C140.725 9.8469 140.623 9.93194 140.789 10.7955C140.848 10.9932 140.83 11.206 140.738 11.3907C140.679 11.49 140.653 11.6052 140.663 11.7201C140.673 11.835 140.719 11.9439 140.795 12.0313C140.91 12.1806 141.298 12.3337 140.952 12.5434C140.885 12.5803 140.812 12.603 140.737 12.6103C140.661 12.6175 140.585 12.6091 140.513 12.5855C140.441 12.5619 140.374 12.5236 140.318 12.4731C140.261 12.4226 140.215 12.361 140.184 12.2921C140.039 11.9078 139.957 11.5026 139.942 11.0922C139.938 9.71085 140.536 9.14396 141.803 9.31969ZM142.157 12.5831C142.019 12.6058 141.867 12.6209 141.797 12.4735C141.782 12.4419 141.774 12.4072 141.774 12.3721C141.773 12.3369 141.781 12.3022 141.796 12.2705C141.811 12.2387 141.833 12.2107 141.861 12.1886C141.888 12.1666 141.92 12.1509 141.954 12.1428C142.299 12.037 142.448 11.7762 142.558 11.283C142.809 12.0351 142.609 12.5094 142.157 12.5831ZM126.526 8.74146C126.604 8.57896 126.585 8.3522 126.825 8.3522C127.065 8.3522 127.067 8.5695 127.098 8.75091C127.118 8.88319 127.137 9.06459 127.226 9.12884C127.69 9.45574 127.533 9.62959 127.253 10.0737C126.922 10.5971 127.001 11.3529 127.253 11.986C127.34 12.1995 127.652 12.3318 127.455 12.6303C127.391 12.7286 127.289 12.8193 127.169 12.7456C126.906 12.5812 126.534 12.5056 126.494 12.1239C126.46 11.7838 126.494 11.4361 126.494 10.9316C126.592 10.308 126.152 9.52188 126.522 8.74146H126.526ZM120.473 10.9391C119.906 10.822 119.421 10.5045 118.844 10.4062C118.298 10.3118 118.188 9.79021 118.175 9.32725C118.161 8.86429 118.175 8.49581 118.663 8.16324C119.54 7.568 120.28 7.76074 121.073 8.25393C121.24 8.37362 121.374 8.53352 121.462 8.71879C121.583 8.90775 121.699 9.15908 121.436 9.32158C121.228 9.45008 121.058 9.32158 120.914 9.13262C120.494 8.64698 119.932 8.59596 119.338 8.68478C119.022 8.73391 118.846 8.9002 118.865 9.25167C118.884 9.60314 119.03 9.76375 119.366 9.78832C119.988 9.81735 120.589 10.0182 121.103 10.3684C121.875 10.9127 121.835 12.1787 121.003 12.636C120.624 12.842 120.273 13.1292 119.786 13.0782C119.079 12.9478 118.462 12.7003 118.05 12.0332C117.874 11.7498 117.753 11.4266 118.014 11.2471C118.275 11.0676 118.617 11.283 118.771 11.5495C119.177 12.2845 119.815 12.1768 120.454 12.0634C120.595 12.0498 120.726 11.9841 120.82 11.8792C120.915 11.7743 120.967 11.6379 120.967 11.4966C120.971 11.1432 120.757 11.0015 120.464 10.9391H120.473ZM107.506 11.506C107.084 11.4399 106.749 11.1942 106.371 11.0468C105.885 10.8579 105.548 10.5498 105.705 10.0245C105.768 9.80371 105.906 9.61183 106.096 9.48208C106.286 9.35234 106.515 9.29289 106.744 9.31402H107.02C107.18 9.30551 107.341 9.30551 107.502 9.31402C107.769 9.34236 107.949 9.49165 107.89 9.76943C107.831 10.0472 107.627 9.94894 107.442 9.91681C107.063 9.84879 106.496 9.72785 106.379 10.0604C106.227 10.5102 106.88 10.512 107.16 10.7312C107.44 10.9504 107.763 10.9901 108.036 11.2301C108.484 11.6269 108.429 11.9614 108.055 12.3223C107.896 12.4735 107.686 12.6832 107.464 12.4716C107.167 12.1882 107.597 12.1768 107.682 12.0445C107.86 11.7762 107.837 11.5646 107.496 11.5098L107.506 11.506ZM106.658 12.2883C106.672 12.5529 106.528 12.568 106.388 12.5755C106.082 12.5925 105.821 12.5132 105.796 12.1541C105.785 12.0049 105.796 11.7139 105.949 11.7762C106.216 11.8802 106.439 12.1296 106.649 12.2921L106.658 12.2883ZM99.86 11.438C99.5006 11.3681 99.2755 11.0752 98.9463 10.9769C98.6172 10.8786 98.4829 10.6387 98.568 10.3458C98.674 10.0019 98.568 9.52 99.0806 9.3915C99.2793 9.34237 99.4855 9.31969 99.5119 9.31402C99.9735 9.29134 100.253 9.31402 100.458 9.52755C100.584 9.65226 100.717 9.83367 100.586 10.0132C100.456 10.1927 100.314 10.0037 100.18 9.94895C99.79 9.79211 99.2187 9.62582 99.0863 10.0302C98.9407 10.4743 99.5044 10.7426 99.9167 10.856C100.378 10.9826 100.796 11.0695 100.914 11.6345C100.95 11.8123 100.936 11.9968 100.872 12.1667C100.808 12.3366 100.697 12.4849 100.552 12.5944C100.475 12.6647 100.376 12.705 100.272 12.7081C100.168 12.7113 100.066 12.677 99.9848 12.6114C99.8335 12.4659 100.025 12.3223 100.119 12.2089C100.46 11.8027 100.352 11.5362 99.8505 11.4418L99.86 11.438ZM99.3322 12.4565C99.3474 12.6284 99.1979 12.6719 99.0504 12.6455C98.7591 12.6077 98.515 12.5037 98.5169 12.156C98.5169 11.9671 98.6494 11.8858 98.8234 11.8688C98.9552 11.9082 99.0726 11.9852 99.1613 12.0902C99.25 12.1953 99.3061 12.3239 99.3228 12.4603L99.3322 12.4565ZM93.2582 11.1451C92.9556 11.1451 92.9783 10.9164 92.9764 10.701C92.9631 9.88091 92.3086 9.51432 91.6012 9.92815C91.5624 9.94791 91.5287 9.97637 91.5028 10.0113C91.3931 10.1644 91.6068 12.0011 91.7582 12.1239C91.9095 12.2467 92.0722 12.2959 91.9738 12.4886C91.8603 12.7154 91.6768 12.5963 91.4971 12.5491C90.6251 12.3129 90.905 11.6043 90.8369 11.0752C90.8823 10.5083 90.7688 9.98674 91.2928 9.5918C91.8168 9.19687 92.441 9.28379 92.9272 9.43685C93.4133 9.58991 93.6838 10.1266 93.5949 10.7256C93.5552 10.958 93.5212 11.1508 93.2488 11.1489L93.2582 11.1451ZM93.3396 12.3507C93.1504 12.5396 92.8761 12.8193 92.6491 12.5642C92.3881 12.2694 92.7967 12.1863 92.9707 12.0445C93.1319 11.886 93.2823 11.7168 93.4209 11.5381C93.5836 11.8934 93.542 12.1371 93.3301 12.3545L93.3396 12.3507ZM86.0038 12.1787C86.0038 12.3885 85.9622 12.6341 85.705 12.6455C85.4477 12.6568 85.3985 12.396 85.3966 12.1957C85.384 11.0015 85.384 9.80469 85.3966 8.6054C85.3966 8.41644 85.4269 8.13489 85.6936 8.13867C85.9982 8.13867 86.0095 8.43156 86.0133 8.65454C86.0246 9.25166 86.0133 9.8488 86.0133 10.4459C85.9963 11.0336 86.0001 11.608 85.9944 12.1825L86.0038 12.1787ZM80.4822 10.2324C80.4954 10.8503 80.4954 11.4682 80.4822 12.0861C80.4822 12.2751 80.4425 12.4962 80.2079 12.4886C79.9733 12.4811 79.9544 12.2619 79.9544 12.071L79.9431 9.94895C79.9211 9.95623 79.8981 9.96005 79.875 9.96028C78.3201 9.65038 78.3087 9.66172 78.2898 11.2433C78.2898 11.5873 78.2898 11.9312 78.2709 12.2732C78.2709 12.4149 78.1952 12.5491 78.025 12.5491C77.9544 12.5511 77.8858 12.5253 77.8341 12.4772C77.7824 12.4291 77.7517 12.3626 77.7488 12.2921C77.7299 11.4455 77.7299 10.5914 77.7318 9.75054C77.7398 9.67987 77.7703 9.61365 77.8188 9.56157C78.1025 9.20443 79.769 9.25167 80.0509 9.62581C80.0831 9.66739 80.0509 9.75431 80.0509 9.81478C80.3611 9.79021 80.4671 9.97917 80.4727 10.2362L80.4822 10.2324ZM72.8022 12.226C72.8022 12.3885 72.7738 12.5831 72.579 12.6039C72.3463 12.6209 72.2744 12.4149 72.2725 12.226C72.2612 11.4021 72.2612 10.5782 72.2725 9.75431C72.2725 9.57857 72.3558 9.43497 72.5525 9.43119C72.7492 9.42741 72.8116 9.58991 72.8135 9.75998C72.8135 10.1946 72.8135 10.6292 72.8135 11.0638C72.7946 11.4531 72.7984 11.8424 72.7927 12.2297L72.8022 12.226ZM64.2899 11.7479C64.479 11.3699 64.6814 10.89 65.2716 10.9202C65.4282 10.9143 65.5837 10.8908 65.7351 10.8503C65.8844 10.8303 66.0247 10.7678 66.1394 10.6703C66.2541 10.5728 66.3383 10.4444 66.382 10.3004C66.3952 10.2617 66.4004 10.2208 66.3974 10.1801C66.3944 10.1393 66.3832 10.0996 66.3645 10.0633C66.3458 10.0269 66.3199 9.99474 66.2885 9.96861C66.257 9.94248 66.2207 9.92293 66.1815 9.91115C66.037 9.83804 65.875 9.80656 65.7137 9.82024C65.5523 9.83393 65.3979 9.89223 65.2678 9.98862C65.1979 10.0434 65.1619 10.1379 65.0938 10.2003C65.0621 10.2339 65.0242 10.261 64.982 10.2799C64.9399 10.2989 64.8944 10.3094 64.8482 10.3108C64.802 10.3122 64.756 10.3045 64.7128 10.2881C64.6695 10.2717 64.63 10.247 64.5963 10.2154C64.4072 10.068 64.5585 9.93194 64.6304 9.79399C64.8895 9.29891 65.6405 9.0627 66.4728 9.30836C66.7151 9.3825 66.9283 9.53028 67.0825 9.73114C67.2368 9.93199 67.3245 10.1759 67.3335 10.4289C67.3619 10.7237 67.3335 11.026 67.3335 11.3246H67.3505C67.3505 11.6005 67.3505 11.8764 67.3505 12.1504C67.3505 12.6058 67.2314 12.8817 66.6979 12.6568C66.3915 12.5283 66.1096 12.6568 65.8486 12.8117C65.3965 13.0914 65.0182 12.9383 64.6606 12.6228C64.3977 12.3941 64.1064 12.0842 64.2785 11.7517L64.2899 11.7479ZM58.3123 9.38583C58.5961 9.19686 58.6509 8.91531 58.668 8.6073C58.6812 8.39755 58.7739 8.24827 59.0066 8.2615C59.1001 8.26513 59.1893 8.30161 59.2585 8.36453C59.3277 8.42745 59.3725 8.51275 59.3849 8.6054C59.4018 8.64918 59.4018 8.69769 59.3849 8.74146C59.0898 9.21009 60.3704 9.30836 59.6554 9.8658C59.1787 10.2437 59.4435 10.7634 59.3887 11.2188C59.3565 11.4852 59.3281 11.7857 59.5173 12.0143C59.6226 12.1208 59.6903 12.2586 59.7101 12.4069C59.7299 12.5553 59.7007 12.706 59.627 12.8363C59.6144 12.8631 59.5956 12.8865 59.5722 12.9047C59.5488 12.9229 59.5215 12.9353 59.4924 12.941C59.4633 12.9467 59.4333 12.9455 59.4048 12.9375C59.3762 12.9295 59.35 12.9149 59.3281 12.8949C59.0841 12.653 58.5866 12.6662 58.5999 12.1655C58.5999 11.8442 58.5999 11.523 58.5999 11.1167C58.5356 10.6821 58.8212 10.0869 58.2499 9.67305C58.1289 9.59936 58.1951 9.45953 58.301 9.38961L58.3123 9.38583ZM50.2238 11.5117C50.2724 11.4796 50.3269 11.4576 50.3841 11.4468C50.4414 11.4361 50.5002 11.437 50.5571 11.4493C50.6141 11.4616 50.6679 11.4852 50.7156 11.5186C50.7633 11.552 50.8038 11.5947 50.8347 11.6439C51.319 12.2902 51.9016 12.3866 52.6413 12.0672C52.9515 11.9349 53.0706 11.814 53.0688 11.4871C53.0834 11.3649 53.05 11.2418 52.9755 11.1438C52.9011 11.0458 52.7914 10.9805 52.6696 10.9618C52.1456 10.7898 51.6954 10.4894 51.1015 10.4195C50.5529 10.3571 50.2748 9.80911 50.3146 9.20632C50.3486 8.68856 50.3732 8.17646 51.0901 8.12355C51.3795 8.10087 51.6254 7.85145 52.1021 7.91569C52.454 8.05175 53.0252 8.08576 53.3298 8.63943C53.4319 8.82839 53.7365 8.97578 53.466 9.20632C53.2428 9.39528 52.9931 9.20631 52.8682 9.0438C52.5467 8.61296 52.1116 8.56195 51.6463 8.61297C51.2963 8.65076 50.8783 8.64321 50.8291 9.15719C50.7799 9.67117 51.1336 9.80155 51.5592 9.85257C52.0116 9.93657 52.4465 10.0963 52.8455 10.325C53.8613 10.8182 54.0108 11.7044 53.1917 12.4641C52.3726 13.2237 50.7723 12.9705 50.2654 12.0294C50.1765 11.8594 49.9457 11.6798 50.2238 11.5117ZM47.6549 33.5751C47.6076 34.1098 47.3863 34.3555 46.8226 34.3309C44.895 34.2365 42.9675 34.1231 41.0399 34.1042C39.5947 34.0909 38.1476 34.1854 36.7062 34.2931C36.0593 34.3366 35.418 34.312 34.7748 34.329C34.3965 34.3385 34.1639 34.1779 34.1506 33.7621C34.1374 33.3464 34.0768 32.9345 34.6235 32.8476C35.1702 32.7606 35.6772 32.5131 36.2011 32.3884C37.2699 32.1352 37.4931 31.2678 37.7012 30.4553C37.879 29.7561 37.8525 28.9946 37.8563 28.2614C37.8714 24.1659 37.8714 20.0717 37.8563 15.9788C37.8563 15.6311 37.9887 15.0623 37.5972 15.0113C37.2056 14.9603 37.3493 15.5498 37.2188 15.8427C36.7459 16.9501 36.2825 18.0612 35.8379 19.1798C35.3934 20.2985 34.981 21.4833 34.5138 22.619C34.0106 23.8378 33.621 25.0982 33.0497 26.2943C32.7763 26.8441 32.5522 27.417 32.3801 28.0063C32.1909 28.6753 31.875 29.278 31.6234 29.9111C31.1278 31.2055 30.5906 32.4848 30.1423 33.7981C30.0896 33.991 29.9656 34.1568 29.7953 34.2621C29.6251 34.3673 29.4212 34.404 29.2248 34.3649C28.7689 34.3139 28.2052 34.6559 27.9101 33.9662C27.3427 32.6435 26.7752 31.3377 26.2398 30.0093C25.7858 28.8755 25.294 27.7588 24.8552 26.6288C24.4163 25.4988 23.8942 24.433 23.531 23.2803C23.3135 22.5868 23.1092 21.8461 22.6779 21.2131C22.3847 20.7822 22.2636 20.2361 22.1104 19.7637C21.8948 19.0683 21.454 18.4731 21.3349 17.7343C21.2478 17.1863 20.8695 16.7157 20.7068 16.1564C20.5858 15.735 20.3115 15.3439 20.2528 14.879C20.2377 14.7448 20.1753 14.5748 20.0315 14.5615C19.8197 14.5408 19.7913 14.7505 19.7705 14.8998C19.7383 15.1504 19.7251 15.4031 19.7308 15.6557C19.7308 17.8413 19.7308 20.0264 19.7308 22.2108H19.7591C19.7591 24.4425 19.744 26.6722 19.7591 28.9039C19.7448 29.989 20.0967 31.0474 20.7579 31.9084C21.2403 32.532 21.9421 32.5698 22.6022 32.7399C23.0354 32.8513 23.5481 32.8173 23.4894 33.5241C23.4421 34.091 23.2473 34.3801 22.6401 34.3328C21.4502 34.2421 20.2604 34.1306 19.0687 34.1136C18.0832 34.0966 17.0976 34.2024 16.1102 34.2554C15.7319 34.278 15.3308 34.2969 14.9431 34.3328C14.3756 34.3838 14.1542 34.0607 14.0824 33.577C14.0048 33.0403 14.3131 32.874 14.786 32.7606C15.7413 32.5339 16.7344 32.3468 17.2603 31.3453C17.4026 31.1092 17.4911 30.8447 17.5194 30.5706C17.5592 29.9054 17.6329 29.2478 17.6386 28.5751C17.684 23.15 17.6556 17.7229 17.7881 12.2997C17.8353 10.3552 16.8422 9.65416 15.0357 9.35371C14.1996 9.21954 14.0672 9.09293 14.1524 8.25393C14.1921 7.87601 14.402 7.70973 14.7425 7.74185C17.4041 7.98561 20.0694 7.8231 22.7347 7.8042C23.1981 7.8042 23.3967 7.99317 23.5632 8.42779C24.0077 9.61637 24.5222 10.7785 25.0387 11.9387C25.2675 12.4546 25.417 12.9969 25.6402 13.5185C26.5652 15.6764 27.4599 17.8476 28.3528 20.0188C29.1094 21.848 29.885 23.6715 30.5944 25.5196C30.6719 25.7236 30.687 26.043 30.9557 26.0543C31.2243 26.0657 31.2281 25.7388 31.3207 25.5403C32.0774 23.9474 32.6449 22.2826 33.2691 20.6443C33.7231 19.4557 34.1412 18.2369 34.5933 17.0445C35.0454 15.8522 35.471 14.6012 36.0006 13.4126C36.4622 12.3733 36.8405 11.2925 37.2132 10.2173C37.4231 9.61259 37.7504 9.0627 37.9149 8.42967C38.036 7.96293 38.4541 7.67382 39.0386 7.72484C41.5879 7.89963 44.1461 7.90342 46.6959 7.73618C47.5036 7.68894 47.6757 7.90813 47.6228 8.69989C47.5944 9.09482 47.4223 9.26678 47.0156 9.26678C46.4945 9.24967 45.9759 9.3444 45.4947 9.54456C44.2065 10.1436 44.0854 11.3133 43.97 12.4848C43.9114 13.0782 43.9265 13.681 43.9265 14.2781C43.936 19.2686 43.9265 24.2592 43.9757 29.2497C43.9757 30.2474 44.093 31.2924 44.9594 31.9972C45.5432 32.4431 46.2433 32.7114 46.9758 32.7701C47.5131 32.8306 47.7022 33.0535 47.6549 33.5751ZM67.1954 32.7172C65.7086 34.3763 63.3062 35.1624 61.1422 34.399C60.8002 34.2893 60.4893 34.0998 60.2354 33.8461C59.9814 33.5924 59.7916 33.2818 59.6819 32.9402C59.4927 32.3487 59.2449 32.2674 58.7361 32.6416C58.0381 33.1537 57.3911 33.713 56.5796 34.0796C55.4667 34.5687 54.2467 34.7639 53.0366 34.6465C52.2488 34.6088 51.4903 34.3368 50.8583 33.8655C50.2263 33.3941 49.7498 32.7448 49.4898 32.001C49.1957 31.282 49.1057 30.4959 49.2299 29.7291C49.354 28.9623 49.6875 28.2446 50.1935 27.6549C51.1677 26.4871 52.4256 25.7274 53.8159 25.1397C55.2706 24.5256 56.7347 23.9455 58.2329 23.4485C58.615 23.319 58.9445 23.0688 59.1717 22.7358C59.399 22.4028 59.5117 22.0049 59.4927 21.6023C59.467 20.8208 59.3399 20.0458 59.1144 19.297C58.8969 18.5638 58.1686 18.3522 57.5424 18.2331C56.1389 17.9875 55.2214 18.6375 54.7353 19.9583C54.5178 20.6081 54.2338 21.2337 53.8878 21.8253C53.2333 22.8816 51.8922 22.9761 50.8442 22.3922C50.0743 21.9595 49.7187 20.6481 50.0876 19.7033C50.5945 18.424 51.5763 17.8457 52.8512 17.4149C54.6634 16.8008 56.4964 16.7233 58.3577 16.7649C59.6819 16.7951 61.0193 16.9387 62.2261 17.5604C63.5994 18.2671 64.4828 19.4028 64.5774 20.9617C64.6758 22.5642 64.6001 24.1741 64.6001 25.786H64.6512C64.6512 27.326 64.6512 28.8661 64.6512 30.4062C64.6512 31.6722 65.2527 32.0275 66.3366 31.4133C66.8133 31.145 66.9476 31.6023 67.167 31.7913C67.2332 31.848 67.2868 31.918 67.3245 31.9966C67.3621 32.0753 67.3829 32.1609 67.3856 32.248C67.3882 32.3351 67.3727 32.4218 67.34 32.5026C67.3072 32.5834 67.258 32.6565 67.1954 32.7172ZM87.2656 18.0914C87.0801 18.2611 86.861 18.3898 86.6224 18.4693C85.7712 18.6488 85.1242 19.1515 84.5416 19.7354C83.138 21.1375 81.7704 22.5698 80.38 23.9776C80.1171 24.2422 80.0736 24.3914 80.3346 24.707C81.8782 26.5828 83.4697 28.417 85.1091 30.2096C85.6879 30.8427 85.7428 31.1545 85.2415 31.8328C84.8632 32.3506 84.7119 32.9893 84.326 33.5108C83.9666 33.9927 83.628 34.3517 82.9413 34.3253C81.4469 34.2648 79.9506 34.2724 78.4544 34.2818C78.0079 34.2818 77.8093 34.0928 77.798 33.6809C77.7866 33.269 77.8869 32.925 78.4184 32.8665C79.5893 32.7342 79.7728 32.2882 79.0502 31.3037C78.3863 30.4005 77.6864 29.5237 76.9846 28.6582C76.6725 28.2709 76.402 28.1273 75.9631 28.6412C75.2651 29.4594 74.4744 30.2021 73.8823 31.1129C73.2902 32.0237 73.6326 32.7436 74.7108 32.8343C75.3597 32.8891 75.6113 33.1291 75.5659 33.7792C75.5356 34.1835 75.4013 34.3461 74.9794 34.3328C73.8766 34.3101 72.77 34.3328 71.6653 34.3328H68.4155C68.0675 34.3328 67.7572 34.2837 67.7459 33.834C67.7459 33.4296 67.7459 32.9987 68.2472 32.9024C69.6224 32.6321 70.5984 31.7402 71.6067 30.8691C72.893 29.7561 73.7707 28.2633 75.1024 27.1919C75.4372 26.9217 75.2916 26.5966 75.0721 26.2754C74.7241 25.7614 74.1963 25.4421 73.7877 24.9923C72.5544 23.6394 71.6067 22.0596 70.3487 20.7293C70.1123 20.478 69.9818 20.1624 69.7813 19.8752C69.2686 19.1666 68.669 18.6054 67.8405 18.2993C67.6984 18.2495 67.5763 18.1549 67.4927 18.0299C67.4091 17.9048 67.3685 17.7559 67.377 17.6057C67.3543 17.1447 67.5075 16.9425 68.0088 16.9576C70.9988 17.0445 73.9895 17.0515 76.9808 16.9784C77.3024 16.9784 77.7223 16.8575 77.7791 17.3847C77.8339 17.8684 77.6258 18.0744 77.134 18.252C76.313 18.5506 75.6888 19.2289 76.4757 20.1227C77.1851 20.9277 77.8434 21.78 78.5338 22.6019C78.8554 22.9799 79.1335 23.0271 79.5477 22.6019C80.3668 21.7781 81.2388 21.0166 81.6058 19.8601C81.8498 19.0929 81.7344 18.8435 80.9778 18.5959C80.5106 18.4429 79.979 18.407 79.8107 17.8042C79.665 17.2845 79.8409 16.9746 80.3782 16.9708C82.5422 16.9595 84.7062 16.9708 86.8683 16.9841C87.1123 16.9841 87.4074 16.9671 87.4944 17.2883C87.5452 17.4293 87.5503 17.5825 87.5093 17.7266C87.4682 17.8707 87.383 17.9982 87.2656 18.0914ZM98.3391 34.2629C96.5307 34.1911 94.728 33.9284 92.9102 34.1628C92.0022 34.278 91.0791 34.2761 90.1616 34.3101C89.8646 34.3215 89.5242 34.3328 89.4277 33.9549C89.3312 33.577 89.6168 33.456 89.9063 33.3275C91.2304 32.7606 91.6712 31.6514 91.6674 30.2928C91.6674 27.4205 91.6882 24.5483 91.6485 21.676C91.639 20.8918 91.569 20.0717 90.7537 19.5691C90.5024 19.378 90.1956 19.2739 89.8798 19.2724C89.4579 19.3064 89.2045 19.176 89.1931 18.7263C89.1818 18.2766 89.1553 17.8136 89.7285 17.6851C90.0395 17.6188 90.3562 17.5827 90.6743 17.5774C92.6151 17.5226 94.4897 17.0653 96.3718 16.6628C96.9564 16.5381 96.892 16.9878 96.8958 17.3072C96.9128 18.5014 96.8958 19.6957 96.8958 20.8975V24.2063H96.9053C96.9053 26.3888 96.9053 28.5713 96.9053 30.7538C96.9053 31.2716 96.9393 31.7724 97.2836 32.2523C97.4079 32.4564 97.5853 32.6229 97.7968 32.7344C98.0082 32.8458 98.246 32.898 98.4848 32.8854C99.0012 32.8854 99.3379 33.1499 99.3928 33.6412C99.4609 34.0607 98.9161 34.2856 98.3391 34.2629ZM132.434 33.9039C132.377 34.3782 132.002 34.4046 131.656 34.4008C130.646 34.3857 129.634 34.3461 128.63 34.312C126.905 34.2554 125.181 34.312 123.456 34.399C123.027 34.4216 122.51 34.484 122.474 33.8321C122.442 33.2255 122.76 32.8872 123.386 32.8684C123.617 32.8756 123.844 32.8003 124.024 32.6559C124.205 32.5114 124.328 32.3074 124.372 32.0804C124.549 31.5342 124.647 30.9651 124.661 30.391C124.648 28.046 124.661 25.701 124.661 23.354C124.661 22.3563 124.394 21.3983 124.22 20.4326C124.061 19.5502 122.669 18.9323 121.722 19.2478C121.221 19.4134 120.758 19.6777 120.362 20.025C119.965 20.3723 119.642 20.7956 119.412 21.2698C118.995 22.1161 118.785 23.0495 118.801 23.9927C118.772 26.3831 118.735 28.7754 118.81 31.1734C118.844 32.2334 119.24 32.7436 120.254 32.9534C120.736 33.0535 121.001 33.2538 120.944 33.7811C120.88 34.3706 120.464 34.3838 120.03 34.3479C118.566 34.2421 117.104 34.0702 115.632 34.1287C114.463 34.1741 113.296 34.2724 112.127 34.3442C111.686 34.3725 111.338 34.2648 111.304 33.7433C111.28 33.3937 111.361 33.1556 111.779 33.0422C113.166 32.6643 113.465 32.3676 113.499 30.9504C113.578 27.7134 113.673 24.4689 113.357 21.2376C113.185 19.4765 111.563 18.7509 110.007 19.5899C108.588 20.3457 108.028 21.591 107.81 23.0611C107.464 25.3892 107.515 27.738 107.574 30.0792C107.595 30.9069 107.595 31.7913 108.196 32.4999C108.431 32.7758 108.669 32.9704 109.065 32.9515C109.592 32.925 109.88 33.1801 109.869 33.7395C109.853 34.3612 109.422 34.3517 108.995 34.3309C107.205 34.2383 105.414 34.142 103.621 34.193C102.675 34.2251 101.738 34.2648 100.8 34.3272C100.342 34.3574 100.002 34.2289 99.9376 33.7603C99.8732 33.2916 100.223 33.0422 100.607 32.9307C101.08 32.7909 101.589 32.8457 101.946 32.3525C102.357 31.7856 102.406 31.1658 102.406 30.5214C102.406 27.7607 102.406 25.0018 102.387 22.2429C102.378 20.871 101.566 19.9017 100.219 19.6447C99.7749 19.5596 99.7446 19.2478 99.7333 18.9342C99.72 18.5071 99.8619 18.1594 100.373 18.1178C101.284 18.0239 102.189 17.8807 103.085 17.6889C104.192 17.4791 105.274 17.1938 106.362 16.933C106.963 16.7838 107.237 17.0124 107.266 17.5944C107.29 18.1216 107.298 18.6507 107.313 19.1798C107.313 19.3688 107.313 19.5785 107.515 19.656C107.718 19.7335 107.818 19.5256 107.928 19.382C109.299 17.5793 111.096 16.5967 113.389 16.6383C115.237 16.6723 116.803 17.3374 117.938 18.8397C118.127 19.0835 118.178 19.4255 118.307 19.7146C118.462 20.0642 118.661 20.0585 118.833 19.7373C119.478 18.5336 120.517 17.7116 121.701 17.1749C122.699 16.7507 123.788 16.5837 124.867 16.6893C126.466 16.8159 127.917 17.2789 128.957 18.5959C129.407 19.1453 129.671 19.8225 129.714 20.5309C129.835 22.4376 129.804 24.3442 129.823 26.6609C129.884 27.9251 129.695 29.6068 129.958 31.2773C130.103 32.1938 130.455 32.8778 131.403 32.9024C131.54 32.9204 131.675 32.9521 131.806 32.9968C132.294 33.1046 132.492 33.4201 132.434 33.9039ZM133.353 12.5151C133.25 12.5936 133.121 12.6306 132.992 12.6187C132.862 12.6068 132.742 12.5469 132.655 12.4508C132.417 12.1415 132.267 11.7735 132.221 11.3858C132.176 10.9982 132.236 10.6055 132.396 10.2494C132.655 9.63148 133.039 9.18931 133.777 9.3178C134.679 9.33481 135.218 9.86958 135.167 10.6519C135.15 10.8805 135.12 11.0827 134.847 11.0789C134.619 11.0789 134.571 10.89 134.551 10.6897C134.471 9.92249 134.079 9.67306 133.332 9.9036C133.267 9.9213 133.206 9.95288 133.154 9.99619C133.033 10.1133 133.069 11.9142 133.181 12.0597C133.293 12.2052 133.629 12.2996 133.353 12.5151ZM135.095 12.0124C134.952 12.379 134.658 12.5793 134.233 12.6662C134.191 12.6398 134.089 12.6133 134.057 12.551C134.028 12.4883 134.023 12.4172 134.043 12.3511C134.063 12.285 134.106 12.2284 134.165 12.1919C134.341 12.054 134.581 12.003 134.694 11.7838C134.757 11.6628 134.823 11.5154 134.991 11.5948C135.16 11.6742 135.158 11.8669 135.095 12.0124ZM151.412 33.2633C149.742 34.5331 147.888 35.1095 145.794 34.4689C145.272 34.2909 144.829 33.9333 144.546 33.4598C144.368 33.1953 144.23 32.8929 144.071 32.6227C143.882 32.2939 143.744 32.224 143.405 32.5433C141.425 34.4084 139.134 35.3268 136.435 34.4122C135.33 34.0343 134.543 33.1669 134.106 32.0407C133.16 29.6427 134.74 27.2051 136.493 26.1394C137.919 25.2739 139.454 24.724 140.954 24.0608C141.499 23.8081 142.057 23.5848 142.626 23.3918C143.634 23.0668 143.999 22.447 143.993 21.3775C144.004 20.9176 143.959 20.4581 143.857 20.0094C143.553 18.8454 142.942 18.2652 141.777 18.3087C140.611 18.3522 139.964 18.5676 139.518 19.7165C139.201 20.4699 138.84 21.2043 138.438 21.916C138.112 22.5301 136.955 22.9799 136.194 22.8249C135.782 22.7291 135.409 22.5101 135.125 22.1971C134.841 21.8842 134.659 21.4921 134.603 21.0732C134.393 19.3272 135.114 18.1537 137.193 17.4451C138.657 16.968 140.182 16.7058 141.722 16.6666C143.613 16.591 145.516 16.7649 147.207 17.8193C148.855 18.8435 149.201 20.4648 149.258 22.2051C149.299 23.5147 149.258 24.8261 149.258 26.1356C149.258 27.4697 149.258 28.8031 149.258 30.1359C149.248 30.4809 149.296 30.8251 149.4 31.1545C149.621 31.8045 149.967 31.9405 150.574 31.5853C151.35 31.1261 151.687 31.2244 151.974 32.0501C152.182 32.6076 151.759 33.0025 151.412 33.2633ZM153.786 16.3114C153.113 16.6685 151.197 16.3114 150.675 15.7445C150.64 15.707 150.612 15.6643 150.591 15.6179C150.561 15.5461 150.555 15.4665 150.574 15.3911C150.578 15.3757 150.582 15.3606 150.588 15.3457C150.591 15.3341 150.596 15.3227 150.601 15.3117C150.522 15.3534 150.431 15.3637 150.345 15.3406C150.259 15.3174 150.185 15.2625 150.137 15.187C150.081 15.1023 150.045 15.0054 150.033 14.9043C150.021 14.8032 150.033 14.7007 150.068 14.605C150.084 14.5783 150.107 14.5562 150.135 14.5407C150.162 14.5252 150.193 14.5168 150.225 14.5162C150.438 14.5634 150.478 14.7543 150.525 14.9281C150.559 15.0529 150.578 15.1851 150.601 15.3061H150.614V15.3174C150.777 15.2853 150.972 15.2815 151.061 15.4062C151.738 16.351 152.682 15.7841 153.506 15.8333H153.529C153.547 15.8352 153.566 15.8352 153.584 15.8333C153.599 15.8318 153.614 15.8279 153.628 15.8219C153.64 15.8182 153.652 15.8125 153.663 15.8049C153.686 15.7922 153.706 15.7748 153.722 15.7539L153.745 15.7237C153.789 15.6366 153.81 15.5396 153.805 15.4421C153.805 15.41 153.805 15.3798 153.805 15.3495C153.804 15.342 153.804 15.3344 153.805 15.3268H153.79V15.3136C153.272 15.3268 153.196 14.8034 152.933 14.5351C152.67 14.2668 152.491 13.9587 152.05 14.0646C151.609 14.1704 151.617 14.5351 151.569 14.8752C151.569 14.9244 151.494 14.9659 151.322 15.1624C151.322 14.1553 151.322 13.3068 151.322 12.4603C151.322 12.3998 151.435 12.3299 151.511 12.2826C151.836 12.0691 153.121 12.1088 153.436 12.3374C154.021 12.7607 154.03 13.0933 153.455 13.5393C153.092 13.8151 152.994 14.0854 153.387 14.4179C153.418 14.4444 153.448 14.4708 153.476 14.5011C153.504 14.5287 153.531 14.5577 153.556 14.588C153.629 14.6763 153.687 14.7767 153.726 14.8847C153.736 14.9098 153.744 14.9357 153.75 14.9621C153.782 15.0766 153.792 15.1955 153.783 15.3136H153.796C153.795 15.3173 153.795 15.3212 153.796 15.325C153.813 15.3268 153.83 15.3268 153.847 15.325H153.881C153.911 15.3185 153.94 15.3096 153.968 15.2985L154.057 15.2588C154.088 15.2446 154.117 15.2282 154.146 15.2097C154.208 15.1711 154.267 15.1281 154.324 15.0812C154.39 15.0274 154.454 14.9693 154.513 14.9074C154.528 14.8903 154.543 14.8752 154.556 14.8582C154.57 14.8412 154.577 14.8337 154.587 14.8223C154.633 14.7686 154.675 14.7118 154.713 14.6522C154.736 14.6182 154.755 14.5861 154.774 14.5521C154.793 14.5181 154.812 14.4841 154.827 14.4501C154.842 14.416 154.857 14.382 154.87 14.348C154.884 14.314 154.889 14.297 154.897 14.2724C154.904 14.2479 154.906 14.2403 154.91 14.2233C154.914 14.2063 154.921 14.1723 154.925 14.1477C155.028 13.6199 154.951 13.0729 154.707 12.5937C154.463 12.1144 154.066 11.7303 153.578 11.5022C153.418 11.4191 153.2 11.3586 153.264 11.1375C153.329 10.9164 153.58 10.9807 153.747 11.0071C154.409 11.1167 155.281 12.071 155.449 12.8155C155.575 13.4988 155.482 14.2043 155.183 14.8318C154.885 15.4593 154.396 15.977 153.786 16.3114Z" fill="#EB1E26"/>
<path d="M27.8763 65.5592C26.7545 65.614 25.6195 65.6839 24.5073 65.5743C23.9247 65.5195 23.7052 64.8903 23.6939 64.3026C23.6806 63.6148 23.6939 62.9251 23.6939 62.2372C23.6939 61.6401 23.6939 61.043 23.6939 60.4459C23.6806 59.5521 24.1176 59.0929 25.018 59.0891C25.8447 59.0891 26.6732 59.0891 27.4998 59.0891C28.0333 59.0891 28.474 59.263 28.5326 59.8639C28.578 60.3249 28.0957 60.6443 27.4525 60.6424C26.9702 60.6424 26.4878 60.6329 26.0054 60.6424C25.7671 60.6424 25.5193 60.7199 25.5117 61.0203C25.5042 61.3208 25.7425 61.4568 26.013 61.4719C26.3568 61.4965 26.702 61.4965 27.0458 61.4719C27.2049 61.447 27.3675 61.4562 27.5227 61.4989C27.678 61.5416 27.8223 61.6168 27.9462 61.7195C28.1222 61.8725 28.5327 61.9236 28.3983 62.2221C28.264 62.5207 28.0824 62.91 27.619 62.9062C27.0912 62.9062 26.5616 62.9062 26.0338 62.9062C25.6801 62.9062 25.3944 63.0196 25.3907 63.4504C25.3869 63.8812 25.6706 64.0267 26.0111 64.0475C26.5786 64.0853 27.1593 64.074 27.7325 64.0702C28.177 64.0702 28.5118 64.21 28.5629 64.6976C28.614 65.1851 28.3529 65.5366 27.8763 65.5592Z" fill="#161616"/>
<path d="M62.4454 49.6352C62.3955 49.3191 62.2784 49.0174 62.1018 48.7505C61.9253 48.4835 61.6935 48.2574 61.4221 48.0876C60.3363 47.345 59.1218 47.5868 57.9528 47.7191C57.514 47.7682 57.1962 48.3068 57.2794 48.7168C57.4421 49.5445 57.3078 50.3646 57.3759 51.0354C57.3759 51.7913 57.3759 52.379 57.3759 52.9761C57.391 53.8113 57.6331 54.091 58.4598 54.1363C59.0087 54.1533 59.5581 54.1401 60.1055 54.0966C60.7127 54.0793 61.292 53.838 61.7318 53.4193C62.1715 53.0006 62.4406 52.4341 62.487 51.8291C62.5703 51.0992 62.5563 50.3614 62.4454 49.6352ZM60.743 52.0917C60.5538 52.6945 59.9636 52.5811 59.5153 52.5811C59.067 52.5811 58.9648 52.1919 58.9856 51.7856C59.0008 51.4663 58.9856 51.145 58.9856 50.8238C58.9856 50.5271 58.997 50.2285 58.9856 49.9319C58.9648 49.5539 59.0197 49.176 59.4453 49.1401C59.9315 49.1004 60.5254 49.074 60.7411 49.6579C61.0108 50.4495 61.0102 51.3081 60.7392 52.0993L60.743 52.0917Z" fill="#161616"/>
<path d="M113.404 62.3315C113.425 62.0333 113.425 61.734 113.404 61.4358C113.262 60.3512 112.636 59.5121 111.668 59.1531C111.191 58.9743 110.679 58.9147 110.174 58.9796C109.67 59.0444 109.189 59.2318 108.773 59.5252C108.358 59.8187 108.021 60.2093 107.792 60.6629C107.563 61.1166 107.448 61.6194 107.459 62.1274C107.459 63.5069 107.937 64.7389 109.278 65.4513C109.937 65.799 111.639 65.6403 112.235 65.2094C113.215 64.5084 113.531 63.5522 113.404 62.3315ZM111.454 63.7638C111.179 64.0586 110.843 64.3553 110.374 64.24C109.708 64.0794 109.339 63.5805 109.155 62.9778C108.919 62.2049 109.129 61.466 109.606 60.8443C110.082 60.2227 111.391 60.4664 111.686 61.1958C111.822 61.5924 111.882 62.011 111.862 62.4298C111.832 62.7963 111.823 63.3632 111.444 63.7638H111.454Z" fill="#161616"/>
<path d="M78.6435 62.0275C78.5659 60.5158 77.6485 58.9228 75.5261 59.0589C73.6647 58.8888 72.6187 60.5195 72.6187 62.2712C72.6187 64.1136 73.6704 65.6972 75.7115 65.6726C77.6844 65.6537 78.7494 64.0966 78.6435 62.0275ZM77.0564 62.2051C77.0696 63.0819 76.6024 63.8888 76.0047 64.1231C75.2972 64.4009 74.6521 64.0381 74.4365 63.3181C74.2336 62.6886 74.2231 62.013 74.4062 61.3774C74.5954 60.7028 75.0664 60.512 75.6188 60.4799C75.8716 60.4487 76.127 60.5116 76.3364 60.6566C76.5457 60.8016 76.6943 61.0185 76.7537 61.266C76.8616 61.6118 77.098 61.9179 77.0564 62.2051Z" fill="#161616"/>
<path d="M53.2503 61.4585C52.9098 59.8788 52.0019 59.0455 50.2029 59.0625C49.8087 58.9986 49.4043 59.0515 49.0399 59.2147C48.6755 59.378 48.3669 59.6443 48.1524 59.9808C47.3958 61.0787 47.1896 62.2163 47.5849 63.5712C48.1373 65.4948 50.0554 65.9918 51.5573 65.4759C51.9304 65.3604 52.2691 65.1547 52.5436 64.8772C52.8182 64.5997 53.0199 64.2588 53.1312 63.8848C53.3693 63.0981 53.4102 62.2648 53.2503 61.4585ZM51.7597 62.2295C51.7597 63.0855 51.546 63.9415 50.8139 64.1569C50.5237 64.2554 50.2075 64.2447 49.9247 64.1267C49.6419 64.0088 49.4119 63.7917 49.2779 63.5164C48.7974 62.6547 48.9904 61.8157 49.3517 61.0183C49.5579 60.561 50.0819 60.4514 50.5321 60.4778C50.9501 60.5043 51.3928 60.6479 51.5441 61.1524C51.65 61.5247 51.79 61.8913 51.7597 62.2295Z" fill="#161616"/>
<path d="M43.3931 53.4164C43.3839 52.9795 43.231 52.5578 42.958 52.2164C42.417 51.5362 42.4549 51.3189 43.0413 50.6802C43.6825 49.981 43.3704 48.5354 42.557 48.0517C41.4788 47.4073 40.3325 47.6227 39.2032 47.6737C38.6546 47.6983 38.3652 48.1065 38.3633 48.6734C38.3633 49.4292 38.3633 50.1851 38.3633 50.9409C38.3633 51.6968 38.3633 52.4526 38.3633 53.2085C38.3633 53.6998 38.5733 54.0947 39.1029 54.1212C39.6704 54.1514 39.8747 53.7017 39.9579 53.2255C40.0014 52.9817 39.9485 52.721 39.9693 52.4696C39.992 52.1654 39.8047 51.7289 40.1811 51.608C40.5576 51.487 40.777 51.9424 41.0588 52.1522C41.1232 52.1994 41.1232 52.3223 41.1723 52.3978C41.492 52.8967 41.8098 53.3975 42.1409 53.8888C42.3811 54.2459 42.7594 54.1741 43.0867 54.0947C43.4139 54.0154 43.4139 53.6904 43.3931 53.4164ZM40.2303 50.2663C40.1698 50.3174 40.1433 50.2814 40.1263 50.2248L39.9371 49.9564C39.9618 49.8524 39.9808 49.747 39.9939 49.6409C40.0487 49.0513 40.4933 49.1666 40.8678 49.1552C41.1875 49.1552 41.5431 49.1004 41.6244 49.5332C41.7247 49.998 41.3558 50.1284 41.0361 50.289L40.2303 50.2663Z" fill="#161616"/>
<path d="M97.9604 48.8568C97.6351 48.3145 97.1111 47.7646 96.4471 47.6343C94.2737 47.211 92.5277 48.3693 92.5542 50.72C92.5409 52.3338 92.8095 52.8534 94.1412 53.7831C94.8487 54.2782 96.1823 54.2858 96.9333 53.8398C98.8381 52.7023 98.9081 50.4385 97.9604 48.8568ZM96.8557 51.5893C96.7859 51.917 96.6025 52.2096 96.3377 52.4154C96.0729 52.6211 95.7438 52.7267 95.4086 52.7136C94.8147 52.689 94.2547 52.1165 94.2018 51.4287C94.169 51.0411 94.174 50.6512 94.2169 50.2646C94.2468 49.9176 94.4061 49.5945 94.6633 49.3593C94.9204 49.1241 95.2567 48.994 95.6054 48.9948C96.2523 48.9948 96.8368 49.607 96.8992 50.3572C96.9125 50.5178 96.9163 50.6785 96.9276 50.9411C96.9174 51.1585 96.8933 51.3749 96.8557 51.5893Z" fill="#161616"/>
<path d="M123.736 62.4565C123.736 61.5117 123.753 61.5117 123.193 60.3306C122.586 59.057 120.427 58.6866 119.41 59.3272C117.885 60.272 117.465 61.729 117.87 63.2955C118.447 65.5404 120.69 66.3189 122.493 65.1492C123.469 64.5218 123.808 63.4977 123.736 62.4565ZM121.986 63.3522C121.833 63.8699 121.396 64.1231 120.908 64.2044C120.452 64.2819 120.077 64.0759 119.797 63.6791C119.296 62.9704 119.23 61.7894 119.699 61.0884C119.827 60.8667 120.021 60.6905 120.254 60.5845C120.487 60.4784 120.747 60.4478 120.998 60.4969C121.566 60.6103 122.02 60.924 122.086 61.5797C122.111 61.8064 122.116 62.037 122.141 62.4111C122.113 62.7282 122.061 63.0428 121.986 63.3522Z" fill="#161616"/>
<path d="M149.383 65.4211C149.059 65.7537 148.683 65.6346 148.359 65.3134C147.629 64.5934 147.249 63.6505 146.736 62.7907C146.659 62.6584 146.655 62.4354 146.449 62.46C146.243 62.4846 146.209 62.7208 146.203 62.8965C146.188 63.4634 146.203 64.0435 146.19 64.618C146.19 65.1074 146.001 65.5477 145.48 65.5496C144.96 65.5515 144.69 65.0639 144.678 64.6048C144.639 63.1346 144.646 61.6626 144.678 60.1924C144.695 59.4366 145.386 58.8697 145.912 59.104C146.29 59.2722 146.46 59.6709 146.631 59.9959C147.009 60.7234 147.599 61.3187 147.845 62.1274C147.888 62.2711 147.993 62.3769 148.153 62.3164C148.217 62.2879 148.269 62.2398 148.303 62.1793C148.337 62.1188 148.351 62.0489 148.342 61.9801C148.342 61.4528 148.342 60.9237 148.342 60.3946C148.339 60.1419 148.354 59.8892 148.388 59.6388C148.414 59.502 148.484 59.3772 148.586 59.2821C148.687 59.1871 148.817 59.1267 148.955 59.1097C149.249 59.0417 149.43 59.1947 149.578 59.429C149.766 59.6916 149.867 60.0058 149.869 60.3285C149.856 60.799 149.858 61.2733 149.869 61.7438C149.869 61.9328 149.869 62.1331 149.869 62.3277C149.869 62.6131 149.869 62.8946 149.858 63.1837C149.858 63.5428 149.858 63.8999 149.88 64.2571C149.931 64.7673 149.674 65.1225 149.383 65.4211Z" fill="#161616"/>
<path d="M52.6999 53.4033C52.7093 53.9701 52.3215 54.0986 51.8051 54.0854C50.9312 54.0627 50.0573 54.0854 49.1833 54.0854C48.404 54.0741 48.1543 53.8417 48.124 53.0575C48.0956 52.3243 48.124 51.5892 48.124 50.8541H48.1089C48.1089 50.1644 48.1089 49.4766 48.1089 48.7869C48.1089 48.0669 48.3605 47.7325 49.0547 47.6909C49.9721 47.6361 50.8934 47.6417 51.8127 47.6625C52.2648 47.6739 52.6469 47.9044 52.6337 48.4184C52.6204 48.9324 52.2024 49.0798 51.7578 49.0949C51.2755 49.1119 50.7912 49.0949 50.3088 49.0949C49.9759 49.0949 49.6865 49.2385 49.6997 49.6013C49.713 49.9641 49.9778 50.1229 50.3164 50.1285C50.8442 50.1285 51.3776 50.0586 51.8959 50.2003C52.1986 50.2854 52.5561 50.3402 52.5031 50.8012C52.4924 50.9765 52.4129 51.1405 52.2818 51.2576C52.1508 51.3747 51.9788 51.4355 51.8032 51.4267C51.2982 51.455 50.7912 51.4361 50.2899 51.438C49.9286 51.438 49.6316 51.5609 49.6184 51.9652C49.609 52.0524 49.6189 52.1405 49.6474 52.2233C49.6759 52.3062 49.7223 52.3818 49.7833 52.4447C49.8443 52.5077 49.9185 52.5564 50.0005 52.5875C50.0825 52.6186 50.1703 52.6313 50.2578 52.6247C50.7855 52.6455 51.3152 52.6247 51.843 52.638C52.3707 52.6512 52.6923 52.8912 52.6999 53.4033Z" fill="#161616"/>
<path d="M76.8463 54.0305C75.9005 54.346 74.251 54.055 73.7005 52.8816C73.4395 52.3241 73.5246 51.7308 74.0202 51.521C74.5877 51.2829 74.809 51.7232 75.0038 52.1163C75.2498 52.6113 75.6338 52.8362 76.1634 52.7285C76.4736 52.6643 76.799 52.5263 76.7555 52.0974C76.7528 51.9327 76.6877 51.7751 76.5732 51.6566C76.4587 51.538 76.3035 51.4673 76.1388 51.4587C75.5651 51.4121 75.0125 51.2209 74.5328 50.9031C73.9426 50.4836 73.5492 49.724 73.7119 49.1042C73.9634 48.1367 74.4893 47.6586 75.3519 47.6189C75.5581 47.6189 75.7643 47.6189 76.031 47.6189C76.9011 47.4602 77.5348 47.8476 77.9359 48.6733C78.1345 49.0853 78.1742 49.5048 77.7183 49.7315C77.2624 49.9583 76.8993 49.8676 76.6458 49.3536C76.3166 48.6885 75.7359 48.5713 75.3481 49.0418C75.1117 49.3272 75.0682 49.6408 75.5108 49.7013C76.1766 49.7901 76.7328 50.1794 77.4119 50.2682C77.8356 50.3268 78.1402 50.8672 78.2801 51.3018C78.6717 52.5017 78.0721 53.6223 76.8463 54.0305Z" fill="#161616"/>
<path d="M9.55394 59.8317C9.51989 60.1246 9.44612 60.6178 8.91079 60.6726C8.53246 60.7123 7.99902 60.4345 7.79284 60.9202C7.65096 61.2527 7.72852 61.676 7.72474 62.0728C7.72474 62.944 7.72474 63.817 7.72474 64.6881C7.72474 65.2361 7.53557 65.6329 6.90188 65.6329C6.26819 65.6329 6.09416 65.2361 6.10551 64.6881C6.11686 64.1401 6.10551 63.5864 6.10551 63.0366C6.10551 62.5547 6.07146 62.0691 6.10551 61.591C6.16415 60.9277 5.96931 60.5951 5.23536 60.6613C4.67733 60.7104 4.36521 60.3873 4.3917 59.8242C4.41629 59.3215 4.77002 59.1061 5.22968 59.1004C6.44789 59.0815 7.6661 59.1004 8.88241 59.1004C8.97576 59.1006 9.06806 59.1202 9.15347 59.1578C9.23888 59.1954 9.31556 59.2503 9.37867 59.319C9.44177 59.3877 9.48992 59.4688 9.52009 59.557C9.55026 59.6453 9.56178 59.7388 9.55394 59.8317Z" fill="#161616"/>
<path d="M103.038 63.8829C102.695 65.0923 101.157 66.0503 99.6611 65.4419C98.2216 64.8561 97.8452 63.6977 97.8111 61.9555C97.7241 60.1547 99.2677 58.9321 100.953 59.0719C101.99 59.1551 102.99 59.9827 103.034 60.8463C103.053 61.2053 103.085 61.6286 102.61 61.7495C102.188 61.8572 101.946 61.6513 101.767 61.2469C101.668 61.0101 101.498 60.8099 101.281 60.6743C101.063 60.5388 100.808 60.4747 100.552 60.491C100.039 60.5326 99.6838 60.869 99.4966 61.4358C99.252 62.0815 99.2608 62.7956 99.5212 63.4351C99.6076 63.6735 99.7659 63.8793 99.9742 64.0241C100.183 64.1689 100.431 64.2457 100.685 64.2438C101.207 64.2684 101.604 63.8905 101.77 63.4219C101.937 62.9532 102.268 62.717 102.701 62.8455C103.231 62.9854 103.149 63.488 103.038 63.8829Z" fill="#161616"/>
<path d="M62.3302 60.3663C61.9026 61.0881 61.3995 61.7646 60.9682 62.4827C60.6163 63.0703 60.8206 63.7412 60.779 64.3723C60.7601 64.6633 60.8528 64.9789 60.6334 65.2302C60.4139 65.4815 60.1888 65.6837 59.8105 65.6213C59.6388 65.5997 59.481 65.5161 59.3667 65.3862C59.2524 65.2564 59.1896 65.0894 59.1901 64.9165C59.156 64.5764 59.1901 64.2287 59.1901 63.6939C59.3906 63.0628 59.0009 62.4033 58.5356 61.8043C58.2026 61.3867 58.0418 60.884 57.7335 60.457C57.4252 60.0299 57.3344 59.5443 57.8357 59.1758C58.248 58.8753 58.8552 59.1267 59.122 59.7049C59.2431 59.9481 59.3835 60.1813 59.5419 60.4022C60.0507 61.158 60.0262 61.158 60.5426 60.3606C60.7406 60.0322 60.9592 59.7167 61.1971 59.4158C61.5168 59.0378 61.8308 58.9207 62.1864 59.1834C62.5817 59.4895 62.5647 59.9619 62.3302 60.3663Z" fill="#161616"/>
<path d="M40.5026 65.6442C39.3676 65.5289 38.4805 64.3214 38.8285 63.2273C38.9137 62.9628 39.029 62.7662 39.3468 62.7795C39.6646 62.7927 39.9541 62.8191 40.0543 63.1895C40.0817 63.3241 40.1184 63.4567 40.164 63.5863C40.2034 63.7206 40.2858 63.8383 40.3985 63.9212C40.5113 64.0042 40.6482 64.0478 40.7883 64.0455C41.1552 64.0228 41.1893 63.7054 41.1912 63.4295C41.205 62.3726 41.205 61.3156 41.1912 60.2587C41.1774 60.1124 41.1934 59.9648 41.2383 59.8248C41.2831 59.6848 41.3559 59.5554 41.4522 59.4443C41.6849 59.1835 41.8873 58.9851 42.2637 59.0871C42.6402 59.1891 42.7707 59.499 42.7858 59.8203C42.818 60.5308 42.7858 61.2432 42.7858 61.9537H42.8047C42.7765 62.4572 42.7765 62.9619 42.8047 63.4654C42.975 64.7749 41.7114 65.767 40.5026 65.6442Z" fill="#161616"/>
<path d="M87.8915 52.7815C87.1575 53.9455 86.085 54.4292 84.8649 54.0343C83.5407 53.611 82.7954 52.5679 82.75 50.9882C82.7084 49.5634 83.3175 48.4429 84.6417 47.7758C84.8912 47.654 85.1625 47.5828 85.4397 47.5662C85.717 47.5497 85.9948 47.5882 86.2571 47.6794C86.9873 47.9194 87.6777 48.2822 88.0201 49.0702C88.2093 49.5218 88.1506 49.8809 87.7628 50.1605C87.3751 50.4402 87.1254 50.2758 86.9059 49.9281C86.8227 49.794 86.6808 49.6995 86.59 49.5691C86.3101 49.1647 85.9412 48.8869 85.4437 49.0022C84.8762 49.142 84.4525 49.4859 84.3863 50.1265C84.3598 50.3779 84.3485 50.6311 84.3295 50.8824C84.3012 51.5797 84.3939 52.2051 85.0862 52.6001C85.6972 52.944 86.2212 52.8098 86.5749 52.1806C86.609 52.122 86.6222 52.0502 86.6619 51.9916C86.957 51.5627 87.2635 51.128 87.882 51.4115C88.2452 51.5929 88.2339 52.2391 87.8915 52.7815Z" fill="#161616"/>
<path d="M133.319 65.3022C133.041 65.5781 132.737 65.6801 132.394 65.4344C131.927 65.1075 131.709 64.5879 131.412 64.1325C131.315 63.9266 131.197 63.7316 131.059 63.5505C130.87 63.3615 130.841 62.7946 130.503 63.0119C130.164 63.2292 129.784 63.5127 129.848 64.0474C129.899 64.3894 129.878 64.7381 129.788 65.0716C129.699 65.3626 129.555 65.5592 129.22 65.5724C129.083 65.5891 128.944 65.5571 128.827 65.4817C128.711 65.4064 128.625 65.2927 128.584 65.1604C128.487 64.9278 128.437 64.6777 128.439 64.4254C128.439 63.0233 128.439 61.6211 128.439 60.2209C128.431 59.9914 128.478 59.7633 128.577 59.5558C128.694 59.3177 128.823 59.1098 129.144 59.1438C129.272 59.1477 129.395 59.1891 129.498 59.2628C129.602 59.3364 129.682 59.439 129.727 59.5577C129.843 59.8584 129.89 60.1812 129.865 60.5025C129.865 60.6404 129.837 60.7784 129.841 60.9144C129.844 61.0505 129.841 61.162 129.967 61.213C130.094 61.264 130.204 61.1733 130.306 61.0637C130.805 60.5346 131.337 60.0376 131.819 59.4972C132.148 59.1306 132.489 58.8925 132.931 59.2553C133.259 59.5237 133.172 60.2833 132.818 60.6385C132.658 60.8315 132.478 61.0058 132.279 61.1582C131.656 61.555 131.8 62.0199 132.12 62.5074C132.546 63.1549 132.978 63.7986 133.416 64.4386C133.468 64.501 133.506 64.5732 133.53 64.6509C133.553 64.7286 133.56 64.8103 133.551 64.8909C133.542 64.9715 133.517 65.0495 133.477 65.1202C133.437 65.1909 133.384 65.2528 133.319 65.3022Z" fill="#161616"/>
<path d="M117.134 53.3484C117.134 54.0022 116.48 54.0627 115.927 54.0627C115.171 54.0627 114.414 54.0627 113.657 54.0627C112.901 54.0627 112.572 53.7698 112.562 53.0064C112.551 52.294 112.562 51.5835 112.562 50.8711C112.562 50.1832 112.562 49.4935 112.562 48.8057C112.562 48.065 112.888 47.7022 113.637 47.6719C114.463 47.6379 115.292 47.6568 116.118 47.6511C116.234 47.6491 116.348 47.6701 116.455 47.713C116.562 47.7558 116.659 47.8196 116.741 47.9006C116.93 48.0725 117.172 48.2105 117.095 48.5128C117.056 48.6355 116.981 48.7436 116.88 48.8232C116.778 48.9027 116.656 48.9499 116.527 48.9588C116.163 49.0045 115.797 49.0247 115.43 49.0192C115.154 49.0192 114.878 49.0079 114.603 49.0192C114.27 49.0192 114.004 49.1591 113.994 49.5313C113.988 49.607 113.997 49.6832 114.02 49.7554C114.044 49.8276 114.082 49.8943 114.132 49.9516C114.182 50.0089 114.242 50.0556 114.311 50.0889C114.379 50.1222 114.454 50.1414 114.529 50.1454C115.008 50.1908 115.492 50.1719 115.975 50.1776C116.393 50.1776 116.816 50.2626 116.826 50.7634C116.835 51.2641 116.461 51.4455 115.977 51.4285C115.492 51.4115 115.01 51.4285 114.528 51.4285C114.227 51.4285 113.981 51.5173 113.96 51.8839C113.939 52.2505 114.028 52.5245 114.422 52.6209C114.921 52.7456 115.428 52.6568 115.935 52.6776C116.442 52.6984 117.144 52.6435 117.134 53.3484Z" fill="#161616"/>
<path d="M139.887 64.5783C139.843 65.0507 139.789 65.6309 139.064 65.6384C138.644 65.6384 138.118 65.1339 138.105 64.5783C138.075 63.0893 138.056 61.5984 138.12 60.1112C138.137 59.7012 138.357 59.2023 138.877 59.0738C139.465 58.9264 139.881 59.3781 139.904 60.1793C139.923 60.8898 139.904 61.6003 139.904 62.3108C139.896 63.0666 139.948 63.8282 139.887 64.5783Z" fill="#161616"/>
<path d="M108.002 48.5411C107.901 49.0684 107.852 49.5975 107.557 50.1077C107.228 50.6745 107.143 51.3813 106.895 52.0162C106.683 52.5623 106.424 53.1008 106.248 53.6677C106.202 53.8339 106.097 53.9777 105.953 54.0721C105.922 54.0914 105.89 54.1084 105.857 54.1231H105.84L105.79 54.142C105.655 54.1843 105.514 54.2041 105.372 54.2006H105.287C105.279 54.2024 105.271 54.2024 105.263 54.2006C105.247 54.2026 105.231 54.2026 105.215 54.2006H105.134C105.081 54.1927 105.028 54.1801 104.977 54.1628C104.523 54.0116 104.171 53.5506 104.052 52.9289C103.863 51.9708 103.473 51.0846 103.106 50.1889C102.901 49.6606 102.726 49.1212 102.582 48.5733C102.472 48.1953 102.771 47.7834 103.121 47.6285C103.471 47.4735 103.855 47.483 104.139 47.9214C104.381 48.2993 104.61 48.6432 104.616 49.1043C104.616 49.7165 105.058 50.1984 105.149 50.7898C105.151 50.8245 105.161 50.8584 105.177 50.8892C105.193 50.92 105.215 50.9471 105.243 50.9687C105.27 50.9903 105.302 51.0058 105.335 51.0144C105.369 51.023 105.404 51.0244 105.438 51.0185C105.645 50.9826 105.628 50.7898 105.688 50.6519C106.095 49.8129 106.133 48.8567 106.583 48.0215C106.825 47.5699 107.131 47.4848 107.529 47.5963C107.99 47.7248 108.072 48.1632 108.002 48.5411Z" fill="#161616"/>
<path d="M68.913 52.7814C68.949 53.2708 68.6804 53.6129 68.4515 53.9662C68.2434 54.2875 67.6665 54.2005 67.4659 53.8396C67.3639 53.6598 67.3062 53.4584 67.2976 53.2519C67.2843 51.6495 67.2768 50.0395 67.2976 48.4447C67.2976 48.1291 67.3165 47.7361 67.7724 47.6303C68.2283 47.5244 68.4799 47.7928 68.6974 48.1518C68.8361 48.3883 68.9019 48.6604 68.8866 48.9341C68.8866 49.5747 68.8866 50.2172 68.8866 50.8578C68.9017 51.4965 68.8676 52.1389 68.913 52.7814Z" fill="#161616"/>
<path d="M84.8196 61.1393C84.7912 61.4832 85.0806 61.6231 85.4325 61.6231C85.8921 61.6231 86.3783 61.5172 86.7982 61.8007C86.872 61.8876 86.9477 61.9764 87.0233 62.0615C87.0441 62.4658 87.0233 62.668 86.9004 62.7795C86.8884 62.7917 86.8751 62.8025 86.8606 62.8116C86.7074 62.8864 86.5409 62.93 86.3707 62.9401C85.8808 63.0063 85.2774 62.7096 84.9274 63.1291C84.6002 63.5222 84.8574 64.1023 84.8139 64.5974C84.7572 65.2493 84.3145 65.6915 83.7603 65.6537C83.3933 65.6272 83.2136 65.4874 83.2968 65.1038C83.0869 64.6673 83.2117 64.2062 83.206 63.7565C83.189 62.6227 83.1928 61.4889 83.189 60.3419C83.189 60.1151 83.1531 59.8808 83.2798 59.6767C83.2907 59.6573 83.3033 59.639 83.3176 59.6219C83.3012 59.5604 83.296 59.4964 83.3025 59.433C83.3013 59.416 83.3013 59.3989 83.3025 59.382C83.3088 59.3542 83.3204 59.3279 83.3366 59.3045C83.3437 59.293 83.3519 59.2822 83.3611 59.2724C83.3696 59.262 83.3791 59.2525 83.3895 59.244C83.5086 59.1616 83.6515 59.1204 83.7962 59.1269C84.7591 59.0928 85.7238 59.0645 86.6866 59.1004C87.1293 59.1193 87.5152 59.5048 87.483 59.8959C87.4414 60.3929 86.9704 60.6915 86.4634 60.7576C86.147 60.7884 85.8277 60.7687 85.5176 60.699C85.1204 60.6197 84.8404 60.7916 84.8196 61.1393Z" fill="#161616"/>
<path d="M19.7834 22.1977C19.7834 24.4294 19.7683 26.661 19.7834 28.8908C19.7688 29.976 20.1207 31.0344 20.7822 31.8953C21.2646 32.5189 21.9664 32.5586 22.6265 32.7268C23.0597 32.8401 23.5723 32.8042 23.5137 33.511C23.4664 34.0779 23.2716 34.367 22.6644 34.3197C21.4745 34.2309 20.2847 34.1194 19.093 34.1005C18.1074 34.0854 17.1219 34.1893 16.1345 34.2441C15.7561 34.2649 15.3551 34.2838 14.9673 34.3197C14.3999 34.3707 14.1766 34.0476 14.1067 33.5639C14.0291 33.0272 14.3374 32.8609 14.8103 32.7494C15.7656 32.5227 16.7587 32.3337 17.2846 31.3322C17.4269 31.0968 17.5154 30.8329 17.5437 30.5594C17.5816 29.8923 17.6572 29.2272 17.6629 28.562C17.7083 23.1369 17.6799 17.7098 17.8123 12.2866C17.8596 10.3421 16.8665 9.64106 15.06 9.34061C14.2239 9.20645 14.0915 9.08173 14.1766 8.24084C14.2164 7.86291 14.4263 7.69663 14.7668 7.72875C17.4283 7.97252 20.0936 7.81 22.7589 7.7911C23.2224 7.7911 23.421 7.98007 23.5875 8.41657C24.032 9.60327 24.5465 10.7654 25.0629 11.9256C25.2918 12.4415 25.4413 12.9857 25.6645 13.5054C26.5895 15.6633 27.4842 17.8345 28.3771 20.0057C29.1337 21.8368 29.9093 23.6584 30.6186 25.5083C30.6962 25.7105 30.7113 26.0318 30.9799 26.0412C31.2486 26.0507 31.2523 25.7257 31.345 25.5272C32.1017 23.9343 32.6692 22.2695 33.2934 20.6312C33.7474 19.4426 34.1654 18.2238 34.6175 17.0314C35.0696 15.8391 35.4953 14.5881 36.0249 13.3996C36.4865 12.3603 36.8629 11.2813 37.2374 10.2042C37.4474 9.59949 37.7747 9.0496 37.9392 8.41847C38.0603 7.94984 38.4783 7.66261 39.0629 7.71174C41.6121 7.88716 44.1703 7.89158 46.7202 7.72497C47.5279 7.67584 47.7 7.89503 47.6452 8.68868C47.6187 9.08362 47.456 9.25557 47.0398 9.25557C46.5098 9.23849 45.9824 9.33716 45.4944 9.54469C44.2062 10.1456 44.0851 11.3134 43.9697 12.4869C43.9111 13.0783 43.9262 13.6811 43.9262 14.2782C43.9357 19.2688 43.9262 24.2593 43.9754 29.2498C43.9754 30.2476 44.0908 31.2925 44.9591 31.9974C45.5423 32.4446 46.2426 32.7136 46.9755 32.7721C47.5052 32.8307 47.6943 33.0537 47.6471 33.5752C47.5998 34.0967 47.3784 34.3556 46.8147 34.3311C44.8872 34.2366 42.9596 34.1213 41.032 34.1024C39.5868 34.0892 38.1397 34.1837 36.6983 34.2914C36.0514 34.3348 35.4101 34.3103 34.767 34.3273C34.3887 34.3367 34.156 34.1761 34.1427 33.7604C34.1295 33.3447 34.069 32.9346 34.6156 32.8477C35.1623 32.7608 35.6693 32.5113 36.1933 32.3866C37.262 32.1334 37.4852 31.2661 37.6933 30.4535C37.8711 29.7544 37.8447 28.9928 37.8484 28.2597C37.8636 24.1642 37.8636 20.07 37.8484 15.977C37.8484 15.6293 37.9809 15.0605 37.5893 15.0114C37.1977 14.9623 37.3396 15.5481 37.211 15.841C36.7381 16.9483 36.2746 18.0594 35.8301 19.1781C35.3855 20.2967 34.9732 21.4815 34.5059 22.6172C34.0028 23.836 33.6131 25.0964 33.0418 26.2925C32.7684 26.8423 32.5443 27.4153 32.3722 28.0046C32.183 28.6735 31.8671 29.2763 31.6155 29.9093C31.1199 31.2056 30.5827 32.4849 30.1344 33.7982C30.0821 33.9914 29.9582 34.1575 29.7878 34.2628C29.6175 34.3681 29.4133 34.4046 29.217 34.3651C28.7611 34.3141 28.1974 34.658 27.9023 33.9664C27.3348 32.6436 26.7673 31.3379 26.232 30.0095C25.778 28.8757 25.2862 27.7589 24.8473 26.6289C24.4084 25.4989 23.8864 24.4331 23.5232 23.2805C23.3056 22.5889 23.1013 21.8462 22.67 21.2132C22.3768 20.7843 22.2558 20.2363 22.1025 19.7639C21.8869 19.0685 21.4462 18.4732 21.327 17.7344C21.24 17.1883 20.8616 16.7159 20.699 16.1584C20.5779 15.7351 20.3036 15.344 20.245 14.8791C20.2298 14.745 20.1674 14.5749 20.0237 14.5617C19.8118 14.5428 19.7834 14.7506 19.7626 14.9018C19.7304 15.1524 19.7171 15.4051 19.7229 15.6577C19.7229 17.8421 19.7229 20.0265 19.7229 22.2109L19.7834 22.1977Z" fill="#FDFDFD"/>
<path d="M129.823 26.6591C129.884 27.9233 129.695 29.6031 129.958 31.2736C130.103 32.1919 130.455 32.8741 131.403 32.8987C131.54 32.9169 131.675 32.9485 131.806 32.9932C132.294 33.1046 132.492 33.4202 132.434 33.9058C132.375 34.3915 132.002 34.4047 131.656 34.4009C130.646 34.3858 129.634 34.3461 128.63 34.3121C126.905 34.2554 125.179 34.3121 123.456 34.4009C123.027 34.4236 122.51 34.4841 122.474 33.834C122.442 33.2275 122.76 32.8892 123.386 32.8722C123.618 32.879 123.844 32.8033 124.024 32.6585C124.205 32.5138 124.328 32.3095 124.372 32.0823C124.549 31.5362 124.647 30.9671 124.661 30.393C124.648 28.048 124.661 25.7029 124.661 23.356C124.661 22.3602 124.394 21.4002 124.22 20.4346C124.061 19.5522 122.669 18.9342 121.722 19.2498C121.221 19.4154 120.758 19.6797 120.362 20.027C119.965 20.3743 119.642 20.7975 119.412 21.2717C118.994 22.1178 118.785 23.0514 118.801 23.9947C118.772 26.387 118.735 28.7774 118.81 31.1753C118.844 32.2354 119.24 32.7456 120.254 32.9554C120.736 33.0555 121.001 33.2558 120.944 33.783C120.88 34.3745 120.464 34.3858 120.03 34.3499C118.566 34.2441 117.104 34.0721 115.632 34.1288C114.463 34.1761 113.294 34.2724 112.127 34.3461C111.686 34.3726 111.338 34.2649 111.304 33.7452C111.28 33.3938 111.361 33.1557 111.779 33.0423C113.166 32.6643 113.465 32.3677 113.499 30.9523C113.578 27.7135 113.673 24.469 113.357 21.2377C113.185 19.4766 111.563 18.751 110.007 19.5899C108.588 20.3458 108.028 21.5911 107.81 23.0612C107.464 25.3892 107.515 27.7381 107.574 30.0793C107.595 30.907 107.595 31.7913 108.196 32.5C108.431 32.7758 108.669 32.9724 109.065 32.9516C109.592 32.927 109.88 33.1821 109.867 33.7414C109.853 34.3612 109.422 34.3537 108.995 34.331C107.205 34.2384 105.414 34.1421 103.621 34.195C102.675 34.2252 101.738 34.2649 100.8 34.3272C100.342 34.3575 100.002 34.229 99.9375 33.7603C99.8732 33.2917 100.223 33.0423 100.607 32.9289C101.08 32.791 101.589 32.8439 101.946 32.3507C102.357 31.7838 102.406 31.164 102.406 30.5196C102.406 27.7607 102.406 25 102.387 22.2411C102.378 20.8711 101.566 19.8999 100.219 19.6429C99.7749 19.5578 99.7446 19.2479 99.7333 18.9324C99.72 18.5053 99.8619 18.1576 100.373 18.1179C101.284 18.0221 102.189 17.879 103.085 17.689C104.192 17.4773 105.274 17.192 106.362 16.9218C106.963 16.7725 107.237 17.0011 107.266 17.5832C107.29 18.1123 107.298 18.6414 107.313 19.1686C107.313 19.3575 107.313 19.5673 107.515 19.6448C107.718 19.7222 107.818 19.5163 107.928 19.3708C109.299 17.568 111.096 16.5854 113.389 16.627C115.237 16.661 116.803 17.3262 117.938 18.8284C118.127 19.0741 118.178 19.4142 118.307 19.7052C118.462 20.0529 118.661 20.0491 118.833 19.726C119.478 18.5223 120.517 17.7022 121.701 17.1637C122.7 16.7432 123.789 16.5801 124.867 16.6894C126.466 16.8141 127.917 17.277 128.957 18.596C129.407 19.1446 129.672 19.8212 129.714 20.5291C129.835 22.4339 129.804 24.3405 129.823 26.6591Z" fill="#FDFDFD"/>
<path d="M151.993 32.0445C151.705 31.2187 151.369 31.1205 150.593 31.5796C149.995 31.9349 149.647 31.7988 149.418 31.1488C149.315 30.8195 149.267 30.4753 149.276 30.1303C149.276 28.7962 149.276 27.4628 149.276 26.1299C149.276 24.8204 149.31 23.509 149.276 22.1995C149.22 20.4572 148.874 18.8378 147.226 17.8136C145.523 16.7592 143.632 16.5854 141.74 16.661C140.194 16.7001 138.662 16.9643 137.193 17.4452C135.112 18.1538 134.393 19.3348 134.603 21.0733C134.659 21.4922 134.841 21.8842 135.125 22.1972C135.409 22.5101 135.782 22.7291 136.194 22.8249C136.951 22.9799 138.112 22.5302 138.437 21.916C138.84 21.2031 139.2 20.4674 139.518 19.7127C139.964 18.5638 140.586 18.3465 141.776 18.3049C142.966 18.2634 143.552 18.8435 143.857 20.0056C143.958 20.4544 144.004 20.9138 143.993 21.3737C143.993 22.4432 143.634 23.0631 142.625 23.3881C142.057 23.5811 141.498 23.8044 140.953 24.057C139.453 24.724 137.927 25.2739 136.493 26.1356C134.739 27.2014 133.158 29.639 134.106 32.0369C134.55 33.1707 135.329 34.0343 136.434 34.4084C139.134 35.323 141.424 34.4084 143.405 32.5396C143.743 32.2202 143.885 32.2901 144.071 32.6189C144.23 32.8986 144.368 33.1858 144.545 33.4561C144.829 33.9295 145.271 34.2872 145.794 34.4651C147.888 35.1057 149.742 34.5294 151.412 33.2595C151.758 33.0025 152.182 32.6076 151.993 32.0445ZM144.031 27.3204C144.031 27.9156 144.031 28.5128 144.031 29.1099C144.018 30.4837 142.745 31.7233 141.383 31.7044C140.967 31.7136 140.561 31.5754 140.237 31.3143C139.913 31.0531 139.693 30.6859 139.614 30.2777C139.079 28.063 139.614 26.8952 141.526 25.7161C142.126 25.3382 142.758 25.0245 143.38 24.6938C143.834 24.4519 144.035 24.6749 144.044 25.1152C144.048 25.8578 144.025 26.5929 144.025 27.328L144.031 27.3204Z" fill="#FDFDFD"/>
<path d="M67.1652 31.7877C66.9457 31.5987 66.8114 31.1357 66.3347 31.4097C65.2508 32.0239 64.6588 31.6686 64.6493 30.4026C64.6399 28.8625 64.6493 27.3224 64.6493 25.7824H64.6001C64.6001 24.1743 64.6758 22.5606 64.5774 20.9582C64.4828 19.4049 63.5995 18.2692 62.2261 17.5568C61.0155 16.9351 59.6819 16.7915 58.3578 16.7613C56.4964 16.7197 54.6634 16.7972 52.8512 17.4113C51.5763 17.8421 50.5945 18.4204 50.0876 19.6997C49.7093 20.6445 50.0706 21.9559 50.8442 22.3886C51.8922 22.9782 53.2334 22.8837 53.8879 21.8217C54.2338 21.2301 54.5178 20.6045 54.7353 19.9548C55.2215 18.632 56.1389 17.9839 57.5425 18.2295C58.1743 18.341 58.8969 18.5602 59.1144 19.2934C59.3402 20.0435 59.4674 20.8197 59.4927 21.6025C59.5145 22.0053 59.4045 22.4042 59.1793 22.739C58.954 23.0738 58.6258 23.3262 58.2443 23.4581C56.7461 23.9551 55.282 24.5352 53.8273 25.1494C52.437 25.737 51.179 26.4967 50.2049 27.6645C49.6988 28.2542 49.3654 28.9719 49.2412 29.7387C49.1171 30.5055 49.207 31.2916 49.5012 32.0106C49.7612 32.7545 50.2377 33.4037 50.8697 33.8751C51.5016 34.3465 52.2602 34.6184 53.048 34.6561C54.2581 34.7735 55.4781 34.5783 56.591 34.0892C57.4025 33.7227 58.0494 33.1633 58.7474 32.6512C59.2582 32.2733 59.5041 32.3583 59.6933 32.9498C59.8033 33.2905 59.993 33.6002 60.2466 33.8532C60.5002 34.1062 60.8105 34.2953 61.1517 34.4048C63.3138 35.1607 65.7162 34.3821 67.2049 32.723C67.2684 32.6614 67.3181 32.5871 67.3508 32.505C67.3835 32.4229 67.3985 32.3348 67.3947 32.2465C67.391 32.1581 67.3686 32.0716 67.329 31.9926C67.2895 31.9135 67.2336 31.8437 67.1652 31.7877ZM59.2203 30.0757C58.9442 30.9354 57.6389 31.765 56.6137 31.7215C55.876 31.6894 55.0361 30.8693 54.862 29.9377C54.4837 27.9196 55.352 26.593 57.1131 25.652C57.5727 25.4045 58.0286 25.1494 58.4694 24.8735C58.6964 24.7318 58.912 24.6146 59.1712 24.7431C59.4303 24.8716 59.3773 25.121 59.3773 25.3516V27.5171C59.3036 28.254 59.5079 29.1781 59.2166 30.0757H59.2203Z" fill="#FDFDFD"/>
<path d="M71.6593 34.316H68.4152C68.0671 34.316 67.7569 34.2669 67.7455 33.819C67.7455 33.4128 67.7455 32.9819 68.2468 32.8856C69.622 32.6172 70.5981 31.7234 71.6063 30.8523C72.8926 29.7393 73.7704 28.2465 75.1021 27.1751C75.4369 26.9049 75.2912 26.5798 75.0718 26.2586C74.7237 25.7446 74.196 25.4272 73.7855 24.9774C72.554 23.6226 71.6063 22.0428 70.3484 20.7125C70.112 20.4612 69.9814 20.1456 69.7809 19.8603C69.2683 19.1517 68.6686 18.5886 67.8401 18.2843C67.6977 18.2345 67.5754 18.1396 67.4918 18.0142C67.4082 17.8887 67.3678 17.7394 67.3767 17.5889C67.354 17.1279 67.5072 16.9276 68.0085 16.9408C70.9985 17.0277 73.9892 17.0353 76.9804 16.9635C77.302 16.9635 77.722 16.8406 77.7787 17.3679C77.8317 17.8516 77.6255 18.0595 77.1337 18.2371C76.3127 18.5338 75.6885 19.214 76.4754 20.1059C77.1847 20.9109 77.8411 21.7632 78.5335 22.5851C78.855 22.9631 79.1331 23.0103 79.5474 22.5851C80.3665 21.7613 81.2366 20.9997 81.6055 19.8433C81.8495 19.0761 81.7341 18.8267 80.9774 18.5791C80.5102 18.4261 79.9787 18.3901 79.8103 17.7874C79.6647 17.2677 79.8387 16.9578 80.3778 16.954C82.5418 16.9446 84.7058 16.954 86.868 16.9672C87.112 16.9672 87.4071 16.9502 87.4941 17.2715C87.5462 17.4138 87.5517 17.569 87.5099 17.7146C87.4681 17.8603 87.3811 17.989 87.2614 18.0821C87.076 18.2518 86.8568 18.3806 86.6183 18.4601C85.767 18.6396 85.1201 19.1422 84.5375 19.7261C83.1339 21.1282 81.7663 22.5606 80.3759 23.9684C80.113 24.2329 80.0695 24.3822 80.3305 24.6978C81.8728 26.5735 83.4643 28.4077 85.105 30.2004C85.6838 30.8334 85.7368 31.1452 85.2374 31.8236C84.8591 32.3413 84.7077 32.9819 84.3218 33.5016C83.9624 33.9834 83.6238 34.3425 82.9372 34.316C81.4428 34.2555 79.9465 34.2631 78.4502 34.2725C78.0038 34.2725 77.8052 34.0836 77.7938 33.6716C77.7825 33.2597 77.8827 32.9158 78.4143 32.8591C79.5833 32.7249 79.7687 32.279 79.0461 31.2945C78.3821 30.3912 77.6822 29.5144 76.9804 28.649C76.6683 28.2616 76.3978 28.1199 75.959 28.632C75.261 29.4502 74.4703 30.1928 73.8782 31.1036C73.2861 32.0144 73.6285 32.7344 74.7067 32.8251C75.3555 32.8818 75.6071 33.1199 75.5617 33.7699C75.5315 34.1743 75.3972 34.3368 74.9753 34.3236C73.8725 34.3009 72.7659 34.3236 71.6612 34.3236L71.6593 34.316Z" fill="#FDFDFD"/>
<path d="M96.9207 24.2006C96.9207 26.3832 96.9207 28.5657 96.9207 30.7501C96.9207 31.2679 96.9548 31.7668 97.299 32.2486C97.4245 32.4515 97.6021 32.617 97.8134 32.728C98.0246 32.839 98.2618 32.8914 98.5002 32.8798C99.0166 32.8798 99.3533 33.1462 99.4082 33.6356C99.4574 34.0702 98.9126 34.2951 98.3356 34.2705C96.5273 34.1987 94.7245 33.9361 92.9067 34.1704C91.9987 34.2875 91.0737 34.2838 90.1582 34.3197C89.8612 34.3197 89.5207 34.3404 89.4242 33.9644C89.3277 33.5884 89.6134 33.4637 89.9028 33.3352C91.2269 32.7683 91.6677 31.6591 91.6639 30.3117C91.6639 27.4395 91.6847 24.5653 91.645 21.695C91.6355 20.9089 91.5655 20.0888 90.7502 19.5862C90.4989 19.3951 90.1921 19.291 89.8763 19.2895C89.4545 19.3235 89.201 19.1931 89.1896 18.7434C89.1783 18.2936 89.1518 17.8307 89.725 17.7022C90.0362 17.6367 90.3528 17.6006 90.6708 17.5945C92.6116 17.5397 94.4862 17.0824 96.3684 16.6818C96.9529 16.5571 96.8886 17.0049 96.8923 17.3243C96.9094 18.5185 96.8923 19.7128 96.8923 20.9146C96.8923 22.0181 96.8923 23.1198 96.8923 24.2233L96.9207 24.2006Z" fill="#FDFDFD"/>
<path d="M119.777 13.0688C119.069 12.9403 118.453 12.6909 118.04 12.0238C117.864 11.7404 117.743 11.4172 118.004 11.2396C118.266 11.062 118.608 11.2736 118.761 11.5401C119.166 12.2751 119.805 12.1674 120.445 12.0541C120.585 12.0404 120.716 11.9747 120.811 11.8698C120.906 11.765 120.958 11.6285 120.957 11.4872C120.978 11.1338 120.768 10.9921 120.469 10.9297C119.902 10.8145 119.418 10.4951 118.841 10.3969C118.294 10.3024 118.184 9.78272 118.171 9.31786C118.156 8.88325 118.171 8.48643 118.659 8.15385C119.537 7.56051 120.276 7.75325 121.069 8.24455C121.235 8.36512 121.369 8.5248 121.459 8.70941C121.58 8.89837 121.695 9.14969 121.432 9.3122C121.224 9.4407 121.054 9.3122 120.91 9.12324C120.49 8.6376 119.928 8.58469 119.334 8.6735C119.018 8.72263 118.842 8.88892 118.861 9.24039C118.88 9.59187 119.026 9.75248 119.363 9.77705C119.984 9.80607 120.585 10.0069 121.099 10.3572C121.871 10.9033 121.831 12.1693 120.999 12.6247C120.613 12.8345 120.263 13.1217 119.777 13.0688Z" fill="#FDFDFD"/>
<path d="M52.1039 7.91575C52.4557 8.05181 53.027 8.08582 53.3315 8.63949C53.4337 8.82845 53.7382 8.97584 53.4677 9.20638C53.2445 9.39534 52.9948 9.20637 52.87 9.04386C52.5484 8.61302 52.1133 8.56201 51.648 8.61303C51.298 8.65271 50.88 8.64515 50.8308 9.15725C50.7816 9.66934 51.1354 9.80161 51.561 9.85263C52.0136 9.93644 52.4487 10.0968 52.8473 10.3269C53.8631 10.8201 54.0125 11.7045 53.1934 12.4641C52.3744 13.2237 50.7741 12.9705 50.2671 12.0295C50.1763 11.8594 49.9455 11.6818 50.2255 11.5117C50.2741 11.4797 50.3286 11.4576 50.3859 11.4469C50.4431 11.4362 50.5019 11.437 50.5589 11.4494C50.6158 11.4617 50.6697 11.4852 50.7173 11.5187C50.765 11.5521 50.8055 11.5947 50.8365 11.644C51.3207 12.2903 51.9034 12.3866 52.643 12.0692C52.9532 11.935 53.0724 11.8141 53.0705 11.4872C53.0847 11.3651 53.0511 11.2422 52.9767 11.1443C52.9023 11.0464 52.7929 10.981 52.6714 10.9618C52.1474 10.7918 51.6972 10.4894 51.1013 10.4214C50.5546 10.3572 50.2766 9.80917 50.3163 9.20638C50.3503 8.68862 50.3749 8.17652 51.0918 8.12361C51.3813 8.10282 51.6272 7.85151 52.1039 7.91575Z" fill="#FDFDFD"/>
<path d="M67.3411 11.3247C67.3411 11.0261 67.3638 10.7238 67.3411 10.429C67.3322 10.176 67.2445 9.93207 67.0902 9.73122C66.9359 9.53037 66.7228 9.38258 66.4805 9.30844C65.6481 9.06279 64.8972 9.29899 64.638 9.79408C64.5661 9.93202 64.4186 10.0681 64.604 10.2155C64.6376 10.2471 64.6772 10.2718 64.7204 10.2882C64.7636 10.3046 64.8097 10.3123 64.8559 10.3109C64.9021 10.3095 64.9475 10.299 64.9897 10.28C65.0318 10.2611 65.0698 10.234 65.1015 10.2003C65.1696 10.138 65.2055 10.0435 65.2755 9.9887C65.4056 9.89231 65.5599 9.83401 65.7213 9.82033C65.8827 9.80664 66.0447 9.83812 66.1892 9.91123C66.2283 9.92302 66.2647 9.94256 66.2961 9.96869C66.3276 9.99483 66.3534 10.027 66.3721 10.0633C66.3908 10.0997 66.402 10.1394 66.4051 10.1801C66.4081 10.2209 66.4028 10.2618 66.3897 10.3005C66.3455 10.4456 66.2601 10.5747 66.144 10.6723C66.0278 10.7699 65.8858 10.8317 65.7352 10.8504C65.5796 10.8932 65.4197 10.9179 65.2585 10.9241C64.6683 10.8938 64.4716 11.3795 64.2767 11.7517C64.1046 12.0843 64.3959 12.3942 64.6664 12.6285C65.0239 12.9384 65.4022 13.0915 65.8543 12.8175C66.1154 12.655 66.3972 12.5341 66.7037 12.6625C67.2371 12.8874 67.3601 12.6115 67.3563 12.1561C67.3563 11.8821 67.3563 11.6062 67.3563 11.3304L67.3411 11.3247ZM65.6954 12.3243C65.3493 12.3413 65.0466 12.0919 65.0712 11.8122C65.1128 11.3341 65.599 11.2944 65.9735 11.2661C66.0402 11.2564 66.1082 11.2611 66.173 11.2797C66.2378 11.2983 66.2979 11.3305 66.3492 11.3741C66.4006 11.4178 66.442 11.4718 66.4709 11.5327C66.4997 11.5935 66.5152 11.6598 66.5164 11.7272C66.3405 12.0295 66.1021 12.3035 65.6954 12.3243Z" fill="#FDFDFD"/>
<path d="M58.5866 11.1207C58.5223 10.6861 58.808 10.0909 58.2367 9.67891C58.1289 9.60143 58.1951 9.4616 58.301 9.39168C58.5848 9.20272 58.6396 8.91927 58.6566 8.61315C58.668 8.4034 58.7626 8.25223 58.9952 8.26545C59.0886 8.26945 59.1777 8.30607 59.2468 8.36892C59.3159 8.43177 59.3608 8.51686 59.3736 8.60937C59.3905 8.65315 59.3905 8.70165 59.3736 8.74543C59.0785 9.21595 60.3591 9.31232 59.6441 9.87921C59.1674 10.2571 59.4322 10.7749 59.3773 11.2303C59.3452 11.4967 59.3168 11.7972 59.506 12.0258C59.611 12.1324 59.6785 12.2702 59.6983 12.4185C59.7181 12.5668 59.6891 12.7175 59.6157 12.8478C59.603 12.8746 59.5843 12.898 59.5609 12.9162C59.5375 12.9344 59.5101 12.9468 59.4811 12.9525C59.452 12.9582 59.422 12.957 59.3934 12.949C59.3649 12.941 59.3387 12.9264 59.3168 12.9064C59.0728 12.6664 58.5753 12.6778 58.5885 12.177C58.5942 11.8482 58.5866 11.527 58.5866 11.1207Z" fill="#FDFDFD"/>
<path d="M150.595 15.3006C150.76 15.2666 150.956 15.261 151.049 15.3876C151.726 16.3324 152.67 15.7655 153.495 15.8146C153.779 15.8316 153.813 15.5368 153.786 15.2912L153.773 15.3044C154.217 15.2761 154.828 14.6355 154.908 14.1102C155.011 13.5823 154.934 13.0354 154.69 12.5561C154.446 12.0768 154.049 11.6927 153.561 11.4647C153.4 11.3815 153.183 11.3211 153.247 11.1C153.311 10.8789 153.563 10.9431 153.729 10.9696C154.392 11.0792 155.264 12.0335 155.432 12.778C155.568 13.4652 155.482 14.1778 155.186 14.8129C154.89 15.448 154.4 15.9728 153.786 16.3116C153.113 16.6687 151.197 16.3229 150.674 15.7447C150.616 15.6874 150.578 15.6128 150.566 15.5321C150.554 15.4514 150.568 15.3688 150.606 15.2969L150.595 15.3006Z" fill="#FDFDFD"/>
<path d="M148.399 10.4537C148.399 11.0489 148.399 11.6441 148.399 12.2394C148.399 12.4699 148.335 12.7496 148.08 12.7855C147.824 12.8214 147.773 12.4982 147.643 12.3263C147.628 12.3085 147.62 12.2868 147.618 12.2639C147.643 10.962 147.662 9.66001 147.703 8.35805C147.703 8.19932 147.792 7.98013 148.042 8.00658C148.292 8.03304 148.375 8.26924 148.38 8.46387C148.403 9.12524 148.39 9.78662 148.39 10.4537H148.399Z" fill="#FDFDFD"/>
<path d="M153.773 15.2909V15.3041L153.786 15.2909H153.773ZM153.716 14.862C153.677 14.754 153.62 14.6536 153.546 14.5653C153.521 14.535 153.495 14.5059 153.467 14.4784C153.438 14.4481 153.408 14.4217 153.378 14.3952C152.984 14.0626 153.083 13.7924 153.446 13.5165C154.013 13.08 154.013 12.738 153.427 12.3147C153.111 12.0861 151.827 12.0464 151.501 12.2599C151.427 12.3072 151.312 12.3771 151.312 12.4376C151.299 13.2841 151.312 14.1382 151.312 15.1397C151.484 14.9508 151.554 14.9016 151.56 14.8525C151.607 14.5124 151.601 14.1458 152.04 14.0419C152.479 13.9379 152.655 14.2308 152.924 14.5124C153.192 14.7939 153.262 15.3041 153.781 15.2909C153.79 15.1728 153.779 15.0538 153.748 14.9394C153.74 14.9128 153.729 14.8869 153.716 14.862ZM152.422 13.3087C152.163 13.2577 151.819 13.2066 151.804 12.9005C151.787 12.5434 152.156 12.5075 152.413 12.5453C152.67 12.5831 153.081 12.532 153.067 12.9232C153.058 13.2595 152.706 13.2728 152.422 13.3087Z" fill="#FDFDFD"/>
<path d="M133.777 9.31976C134.679 9.33866 135.218 9.87343 135.167 10.6538C135.15 10.8844 135.118 11.0866 134.848 11.0809C134.619 11.0809 134.571 10.8919 134.551 10.6916C134.471 9.93579 134.08 9.67501 133.332 9.90744C133.267 9.92369 133.206 9.95473 133.155 9.99815C133.034 10.1153 133.068 11.9161 133.181 12.0616C133.295 12.2071 133.627 12.3016 133.353 12.517C133.25 12.5964 133.121 12.6339 132.992 12.622C132.862 12.6101 132.742 12.5496 132.655 12.4528C132.417 12.1435 132.267 11.7754 132.221 11.3878C132.176 11.0002 132.236 10.6074 132.396 10.2514C132.655 9.63155 133.039 9.18938 133.777 9.31976Z" fill="#FDFDFD"/>
<path d="M139.932 11.0848C139.932 9.71297 140.536 9.14607 141.803 9.31236C142.456 9.3974 143.014 10.3158 142.775 10.8751C142.694 11.064 142.618 11.2096 142.397 11.1737C142.176 11.1377 142.147 10.9299 142.162 10.7485C142.2 10.3044 142.206 9.92838 141.595 9.89059C140.725 9.83768 140.623 9.9246 140.789 10.7863C140.846 10.9842 140.828 11.1962 140.738 11.3815C140.679 11.4808 140.653 11.596 140.663 11.7109C140.673 11.8258 140.719 11.9346 140.795 12.0221C140.91 12.1733 141.298 12.3244 140.952 12.5342C140.886 12.5711 140.812 12.594 140.737 12.6013C140.661 12.6087 140.585 12.6004 140.513 12.577C140.441 12.5536 140.375 12.5155 140.318 12.4652C140.261 12.415 140.216 12.3535 140.184 12.2848C140.035 11.9011 139.95 11.4958 139.932 11.0848Z" fill="#FDFDFD"/>
<path d="M126.49 10.9241C126.592 10.3081 126.152 9.52198 126.522 8.74156C126.6 8.57905 126.581 8.35229 126.821 8.35229C127.061 8.35229 127.063 8.5696 127.094 8.7529C127.114 8.88328 127.133 9.06658 127.222 9.13082C127.686 9.45773 127.529 9.62969 127.249 10.0756C126.918 10.5991 126.997 11.3568 127.249 11.988C127.336 12.2015 127.648 12.3338 127.451 12.6323C127.387 12.7306 127.285 12.8213 127.165 12.7476C126.903 12.5832 126.528 12.5076 126.49 12.1259C126.456 11.7763 126.49 11.4286 126.49 10.9241Z" fill="#FDFDFD"/>
<path d="M90.8271 11.0789C90.8725 10.512 90.7591 9.99042 91.283 9.59549C91.807 9.20056 92.4312 9.28937 92.9174 9.44243C93.4035 9.59549 93.674 10.1321 93.5851 10.7312C93.5549 10.9598 93.5208 11.1507 93.2465 11.1488C92.9439 11.1488 92.9685 10.9201 92.9647 10.7047C92.9533 9.8846 92.2988 9.51801 91.5895 9.93184C91.552 9.95276 91.5192 9.98105 91.493 10.015C91.3833 10.168 91.597 12.0048 91.7484 12.1276C91.8997 12.2504 92.0605 12.2996 91.964 12.4942C91.8505 12.7191 91.667 12.6019 91.4873 12.5528C90.6153 12.3166 90.8934 11.6004 90.8271 11.0789Z" fill="#FDFDFD"/>
<path d="M107.012 9.3199C107.173 9.31139 107.334 9.31139 107.495 9.3199C107.761 9.34635 107.941 9.49752 107.882 9.7753C107.831 10.0247 107.619 9.95482 107.434 9.9208C107.056 9.85277 106.488 9.73184 106.371 10.0644C106.22 10.5141 106.872 10.5179 107.152 10.7371C107.432 10.9563 107.756 10.9941 108.028 11.236C108.476 11.6309 108.422 11.9654 108.047 12.3263C107.888 12.4794 107.678 12.6872 107.457 12.4775C107.16 12.1922 107.587 12.1808 107.674 12.0485C107.863 11.7651 107.837 11.5553 107.497 11.5005C107.075 11.4325 106.74 11.1869 106.362 11.0395C105.875 10.8505 105.539 10.5425 105.696 10.0172C105.759 9.79636 105.897 9.60448 106.087 9.47473C106.276 9.34499 106.505 9.28554 106.734 9.30667H107.01L107.012 9.3199Z" fill="#FDFDFD"/>
<path d="M99.5084 9.31976C99.9699 9.29708 100.25 9.31976 100.454 9.53329C100.581 9.65801 100.711 9.83941 100.583 10.0189C100.454 10.1984 100.31 10.0095 100.176 9.95468C99.7864 9.79784 99.2152 9.63344 99.0827 10.0378C98.9371 10.48 99.5008 10.7502 99.9132 10.8617C100.375 10.9902 100.793 11.0752 100.91 11.6402C100.947 11.8183 100.933 12.0031 100.869 12.1734C100.805 12.3436 100.694 12.4922 100.549 12.6021C100.472 12.672 100.372 12.712 100.268 12.7148C100.164 12.7176 100.062 12.6829 99.9813 12.6172C99.8299 12.4717 100.021 12.3281 100.116 12.2166C100.464 11.8046 100.346 11.5401 99.8545 11.4437C99.4951 11.3738 99.27 11.0809 98.9409 10.9826C98.6117 10.8844 98.4774 10.6444 98.5625 10.3515C98.6685 10.0076 98.5625 9.52762 99.0752 9.40669C99.218 9.37019 99.3625 9.34117 99.5084 9.31976Z" fill="#FDFDFD"/>
<path d="M85.9961 10.4537C85.9961 11.0206 85.9961 11.6026 85.9961 12.177C85.9961 12.3887 85.9544 12.6325 85.6972 12.6438C85.4399 12.6551 85.3907 12.3944 85.3889 12.1941C85.3762 11.0011 85.3762 9.8043 85.3889 8.60375C85.3889 8.41478 85.4191 8.13322 85.6858 8.137C85.9904 8.137 86.0017 8.42989 86.0055 8.65476C86.0169 9.25 86.0055 9.84902 86.0055 10.4443L85.9961 10.4537Z" fill="#FDFDFD"/>
<path d="M79.9411 9.95282C79.9191 9.96011 79.8962 9.96393 79.873 9.96416C78.3181 9.65615 78.3067 9.6656 78.2878 11.2472C78.2878 11.5911 78.2878 11.9351 78.2689 12.279C78.2689 12.4188 78.1933 12.5549 78.023 12.5549C77.9523 12.5559 77.884 12.5295 77.8325 12.4812C77.781 12.4329 77.7503 12.3665 77.7468 12.296C77.7279 11.4494 77.7279 10.5953 77.7298 9.75441C77.7378 9.68375 77.7683 9.61752 77.8168 9.56545C78.1006 9.2102 79.7671 9.25555 80.0489 9.6297C80.0811 9.67316 80.0489 9.76009 80.0489 9.81867L79.9411 9.95282Z" fill="#FDFDFD"/>
<path d="M72.7945 11.0638C72.7945 11.4531 72.7945 11.8423 72.7945 12.2316C72.7945 12.3922 72.7661 12.5869 72.5713 12.6095C72.3386 12.6265 72.2668 12.4206 72.2649 12.2316C72.2535 11.4077 72.2535 10.5857 72.2649 9.76186C72.2649 9.58423 72.3481 9.44061 72.5448 9.43683C72.7416 9.43305 72.804 9.59745 72.8059 9.76563C72.8059 10.2002 72.8059 10.6349 72.8059 11.0695L72.7945 11.0638Z" fill="#FDFDFD"/>
<path d="M151.48 10.96C151.635 10.9713 151.838 10.96 151.844 11.1679C151.844 11.3172 151.77 11.5099 151.592 11.5288C150.996 11.5949 150.72 12.0163 150.457 12.4736C150.391 12.5945 150.306 12.7211 150.141 12.6626C149.977 12.604 149.997 12.4472 150.007 12.313C150.037 11.9086 151.083 10.9524 151.48 10.96Z" fill="#FDFDFD"/>
<path d="M80.0509 9.83358C80.3611 9.79012 80.467 9.98097 80.4727 10.2361C80.4859 10.854 80.4841 11.4719 80.4727 12.0917C80.4727 12.2807 80.433 12.4999 80.1984 12.4923C79.9639 12.4847 79.9449 12.2674 79.9449 12.0747L79.9336 9.95263L80.0509 9.83358Z" fill="#FDFDFD"/>
<path d="M134.233 12.6664C134.191 12.6399 134.089 12.6135 134.057 12.5511C134.028 12.4884 134.023 12.4174 134.043 12.3514C134.063 12.2855 134.106 12.2289 134.165 12.1921C134.34 12.056 134.581 12.0031 134.694 11.7839C134.757 11.663 134.823 11.5175 134.991 11.595C135.159 11.6724 135.152 11.8652 135.095 12.0107C134.951 12.3792 134.658 12.5738 134.233 12.6664Z" fill="#FDFDFD"/>
<path d="M93.4113 11.542C93.5835 11.8935 93.5494 12.1391 93.33 12.3564C93.1106 12.5737 92.8665 12.8232 92.6395 12.5681C92.3785 12.2733 92.7871 12.1901 92.9611 12.0484C93.1224 11.8899 93.2728 11.7207 93.4113 11.542Z" fill="#FDFDFD"/>
<path d="M142.554 11.2852C142.809 12.041 142.609 12.5096 142.153 12.5833C142.015 12.6079 141.863 12.6211 141.793 12.4737C141.778 12.4422 141.771 12.4077 141.771 12.3728C141.771 12.3379 141.778 12.3034 141.793 12.2719C141.808 12.2404 141.83 12.2126 141.857 12.1907C141.885 12.1687 141.916 12.1531 141.95 12.1449C142.295 12.0372 142.444 11.7765 142.554 11.2852Z" fill="#FDFDFD"/>
<path d="M98.8138 11.8801C98.9457 11.9172 99.0641 11.9917 99.1544 12.0947C99.2447 12.1977 99.3032 12.3247 99.3226 12.4602C99.3378 12.6341 99.1883 12.6757 99.0408 12.6492C98.7495 12.6114 98.5054 12.5075 98.5073 12.1598C98.5092 11.9784 98.6492 11.8971 98.8138 11.8801Z" fill="#FDFDFD"/>
<path d="M106.649 12.2941C106.662 12.5567 106.518 12.5738 106.378 12.5813C106.072 12.5964 105.811 12.5171 105.786 12.158C105.773 12.0088 105.786 11.7178 105.937 11.7801C106.216 11.8803 106.439 12.1316 106.649 12.2941Z" fill="#FDFDFD"/>
<path d="M150.607 15.2871C150.527 15.3322 150.433 15.3448 150.344 15.3222C150.255 15.2997 150.179 15.2438 150.13 15.1662C150.074 15.0814 150.038 14.9846 150.026 14.8835C150.013 14.7824 150.025 14.6799 150.06 14.5842C150.077 14.5575 150.1 14.5354 150.127 14.5199C150.155 14.5043 150.186 14.4959 150.217 14.4954C150.431 14.5426 150.471 14.7335 150.518 14.9073C150.552 15.0358 150.571 15.17 150.595 15.3003L150.607 15.2871Z" fill="#FDFDFD"/>
<path d="M40.2305 50.2663C40.17 50.3173 40.1435 50.2814 40.1265 50.2247C40.1983 50.1453 40.2381 50.1472 40.2305 50.2663Z" fill="#EB1E26"/>
<path d="M19.1651 64.705C19.1651 65.0678 18.8359 65.3626 18.5862 65.6063C18.3365 65.8501 17.6707 65.5515 17.544 65.1471C17.4044 64.6593 17.3792 64.1459 17.4702 63.6468C17.5515 63.1158 17.3359 62.9363 16.8346 62.94C15.2513 62.9552 15.4575 62.7643 15.4594 64.2628C15.4594 65.3437 15.3005 65.6309 14.663 65.6498C14.0255 65.6687 13.7872 65.3115 13.7891 64.2458V62.3183C13.7891 61.5379 13.7891 60.7575 13.7891 59.9771C13.7891 59.4612 14.0066 59.089 14.5798 59.0323C15.0584 58.9869 15.3894 59.1362 15.4197 59.6766C15.4197 59.8146 15.4461 59.9506 15.4499 60.0867C15.4802 61.3716 15.4783 61.3565 16.7741 61.3074C17.2356 61.2904 17.4588 61.1184 17.4305 60.6479C17.4002 60.4203 17.4002 60.1896 17.4305 59.962C17.5137 59.5689 17.4305 59.0568 18.0868 59.0172C18.2129 59.0008 18.3411 59.0108 18.4631 59.0463C18.5852 59.0819 18.6986 59.1423 18.7961 59.2238C18.8937 59.3052 18.9733 59.406 19.03 59.5197C19.0866 59.6334 19.1191 59.7576 19.1253 59.8845C19.2237 61.4907 19.201 63.1007 19.1651 64.705Z" fill="#161616"/>
<path d="M126.814 52.9364C126.549 52.5584 126.492 52.0936 126.125 51.7629C125.887 51.5513 125.921 51.213 126.212 50.9825C126.85 50.476 127.103 49.8166 126.88 49.0418C126.651 48.2387 125.796 47.634 124.903 47.5962C124.215 47.566 123.524 47.5736 122.834 47.5849C122.035 47.5962 121.625 48.0214 121.619 48.8226C121.619 49.1174 121.619 49.4141 121.619 49.7089C121.619 50.1019 121.619 50.4949 121.619 50.8899C121.619 51.2565 121.619 51.625 121.619 51.9915C121.619 52.3581 121.6 52.7266 121.619 53.0932C121.648 53.6431 121.886 54.0739 122.459 54.193C123.032 54.312 123.227 53.8925 123.386 53.4258C123.45 53.16 123.476 52.8863 123.462 52.6132C123.479 52.3298 123.367 51.9556 123.755 51.8574C124.099 51.7704 124.279 52.0728 124.455 52.3166C124.803 52.7984 125.011 53.3653 125.401 53.8283C125.756 54.2421 126.189 54.3441 126.617 54.0739C127.044 53.8037 127.126 53.371 126.814 52.9364ZM124.256 50.2739C123.827 50.2531 123.276 50.3664 123.291 49.6352C123.301 49.0683 123.67 49.0361 124.252 49.0928C124.519 49.1741 125.187 48.9492 125.213 49.6408C125.234 50.1926 124.718 50.2984 124.256 50.2739Z" fill="#161616"/>
<path d="M158.784 63.8375C158.784 63.7317 158.763 63.6278 158.752 63.522L158.784 63.8375Z" fill="#161616"/>
<path d="M158.784 63.8375C158.784 63.7317 158.763 63.6278 158.752 63.522L158.784 63.8375Z" fill="#161616"/>
<path d="M144.018 27.3279C144.018 27.925 144.018 28.5222 144.018 29.1193C144.005 30.4912 142.732 31.7327 141.37 31.7119C140.954 31.7209 140.548 31.5829 140.224 31.3222C139.9 31.0615 139.679 30.6949 139.599 30.2871C139.066 28.0706 139.599 26.9028 141.514 25.7236C142.113 25.3457 142.745 25.032 143.367 24.7013C143.821 24.4595 144.022 24.6824 144.031 25.1227C144.048 25.8578 144.031 26.5928 144.031 27.3279H144.018Z" fill="#EB1E26"/>
<path d="M59.3732 27.5171C59.3051 28.2541 59.5075 29.1781 59.2162 30.0776C58.94 30.9355 57.6348 31.765 56.6095 31.7216C55.8718 31.6894 55.0319 30.8712 54.8579 29.9377C54.4796 27.9196 55.3478 26.5931 57.1089 25.652C57.5686 25.4064 58.0245 25.1513 58.4652 24.8735C58.6922 24.7318 58.9079 24.6146 59.167 24.745C59.4262 24.8754 59.3732 25.123 59.3732 25.3516V27.5171Z" fill="#EB1E26"/>
<path d="M66.5159 11.7291C66.34 12.0295 66.1017 12.296 65.695 12.3243C65.3488 12.3413 65.0461 12.0938 65.0707 11.8122C65.1124 11.3341 65.5985 11.2963 65.973 11.2661C66.0399 11.2567 66.1079 11.2616 66.1727 11.2805C66.2375 11.2994 66.2975 11.3317 66.3488 11.3755C66.4001 11.4193 66.4416 11.4734 66.4704 11.5344C66.4992 11.5953 66.5147 11.6617 66.5159 11.7291Z" fill="#EB1E26"/>
<path d="M152.422 13.3088C152.161 13.2578 151.819 13.2086 151.804 12.9025C151.787 12.5454 152.156 12.5076 152.413 12.5454C152.67 12.5832 153.081 12.5321 153.067 12.9233C153.058 13.2597 152.706 13.2729 152.422 13.3088Z" fill="#EB1E26"/>
<path d="M159.46 64.9903C158.832 65.2321 158.215 65.5383 157.481 65.5023C156.081 65.4362 155.243 64.737 154.887 63.3803C154.56 62.1237 154.609 60.9238 155.534 59.9997C156.615 58.9245 158.536 58.5617 159.658 60.2227C159.961 60.6705 159.789 61.0655 159.261 61.1921C159.157 61.2316 159.058 61.2843 158.968 61.3489L158.648 60.971C158.145 60.7216 157.644 60.474 157.057 60.5307L156.545 60.8028C156.531 60.9337 156.486 61.0593 156.413 61.1689C156.34 61.2785 156.242 61.3688 156.126 61.4321L156.115 61.4907C156.104 61.5379 156.096 61.587 156.089 61.6343C156.039 62.1079 156.039 62.5854 156.089 63.059C156.331 63.2896 156.498 63.588 156.567 63.915L157.086 64.1815C157.502 64.0906 157.932 64.0816 158.351 64.155L158.758 63.9453L158.735 63.847H158.794L158.76 63.5315C158.699 63.1157 158.368 63.1535 158.075 63.1233C157.948 63.1222 157.824 63.0808 157.722 63.005C157.62 62.9293 157.545 62.8232 157.507 62.7019C157.441 62.4109 157.725 62.2597 157.931 62.135C158.385 61.8705 159.685 62.1086 160.012 62.4846C160.46 63.0345 160.154 64.7238 159.46 64.9903Z" fill="#161616"/>
</g>
<defs>
<filter id="filter0_d_3_9655" x="0" y="0" width="169" height="73.6943" filterUnits="userSpaceOnUse" color-interpolation-filters="sRGB">
<feFlood flood-opacity="0" result="BackgroundImageFix"/>
<feColorMatrix in="SourceAlpha" type="matrix" values="0 0 0 0 0 0 0 0 0 0 0 0 0 0 0 0 0 0 127 0" result="hardAlpha"/>
<feOffset dy="4"/>
<feGaussianBlur stdDeviation="2"/>
<feComposite in2="hardAlpha" operator="out"/>
<feColorMatrix type="matrix" values="0 0 0 0 0 0 0 0 0 0 0 0 0 0 0 0 0 0 0.25 0"/>
<feBlend mode="normal" in2="BackgroundImageFix" result="effect1_dropShadow_3_9655"/>
<feBlend mode="normal" in="SourceGraphic" in2="effect1_dropShadow_3_9655" result="shape"/>
</filter>
</defs>
</svg>
