<svg width="12" height="12" viewBox="0 0 12 12" fill="none" xmlns="http://www.w3.org/2000/svg">
<path d="M5.49049 4.51671C5.48487 5.09945 5.08425 5.48582 4.49889 5.49107C3.33116 5.49856 2.16343 5.49856 0.9957 5.49107C0.398718 5.48732 0.00410235 5.07659 0.00185383 4.47924C-0.000394685 3.89874 0.00185383 3.3175 0.00185383 2.73738C0.00185383 2.16289 0.00185383 1.58839 0.00185383 1.01352C0.00410235 0.413915 0.414082 0.00168639 1.01369 0.00168639C2.16893 -0.00056213 3.32429 -0.00056213 4.47978 0.00168639C5.06851 0.00168639 5.48337 0.390305 5.48937 0.976044C5.50186 2.15652 5.50223 3.33674 5.49049 4.51671Z" fill="#EB1E26"/>
<path d="M5.49089 11.0178C5.48526 11.6058 5.07116 11.9922 4.48242 11.9952C3.90156 11.9974 3.32069 11.9952 2.7402 11.9952C2.1657 11.9952 1.5912 11.9971 1.01633 11.9952C0.414105 11.9929 0.00449704 11.5829 0.00149901 10.9833C-0.000499671 9.82811 -0.000499671 8.67299 0.00149901 7.518C0.00149901 6.9184 0.397242 6.50954 0.993849 6.50617C2.16183 6.49868 3.32968 6.49868 4.49742 6.50617C5.08278 6.50954 5.48414 6.8948 5.49014 7.47791C5.50213 8.65763 5.50238 9.83761 5.49089 11.0178Z" fill="#EB1E26"/>
<path d="M11.9989 9.25384C11.9989 9.82197 11.9989 10.3901 11.9989 10.9582C11.9989 11.5871 11.5953 11.9944 10.9717 11.9952C9.82248 11.9967 8.67324 11.9967 7.524 11.9952C6.92439 11.9952 6.51216 11.6028 6.50767 11.0058C6.49842 9.83833 6.49842 8.67085 6.50767 7.50337C6.51179 6.89964 6.91052 6.50877 7.51425 6.50577C8.66949 6.50003 9.82485 6.50003 10.9803 6.50577C11.6009 6.5084 11.9963 6.91201 11.9982 7.53073C12 8.10485 11.9989 8.67935 11.9989 9.25384Z" fill="#EB1E26"/>
<path d="M11.9983 4.47853C11.9983 5.07551 11.601 5.48549 11.0041 5.49036C9.83633 5.49786 8.66848 5.49786 7.5005 5.49036C6.90989 5.48662 6.51265 5.092 6.50778 4.49839C6.49903 3.33091 6.49903 2.16342 6.50778 0.995944C6.5119 0.396339 6.92338 0.00435503 7.51961 0.00173176C8.10048 -0.000516755 8.68135 0.00173176 9.26221 0.00173176C9.83671 0.00173176 10.4112 0.00173176 10.9861 0.00173176C11.5879 0.00398028 11.9979 0.41396 11.9979 1.01357C12.0004 2.1688 12.0005 3.32379 11.9983 4.47853Z" fill="#EB1E26"/>
</svg>
