<svg width="49" height="49" viewBox="0 0 49 49" fill="none" xmlns="http://www.w3.org/2000/svg">
<path d="M49 24.5C49 10.969 38.031 -5.47708e-06 24.5 -4.88563e-06C10.969 -4.29417e-06 -1.66239e-06 10.969 -1.07093e-06 24.5C-4.79471e-07 38.031 10.969 49 24.5 49C38.031 49 49 38.031 49 24.5Z" fill="#B9C4E1"/>
<path d="M24.4907 34.5627C29.7539 34.5627 34.0206 28.6531 34.0206 21.3632C34.0206 14.0732 29.7539 8.16357 24.4907 8.16357C19.2275 8.16357 14.9608 14.0732 14.9608 21.3632C14.9608 28.6531 19.2275 34.5627 24.4907 34.5627Z" fill="white"/>
<path d="M24.3395 33.7185C16.3645 33.7185 9.22936 35.629 4.48901 38.6367C6.74249 41.8277 9.72667 44.4332 13.1924 46.2359C16.6581 48.0385 20.5048 48.9858 24.4112 48.9988C28.3177 49.0117 32.1706 48.0899 35.6482 46.3104C39.1258 44.5308 42.1272 41.9451 44.4018 38.7691C39.6614 35.6858 32.4355 33.7185 24.3395 33.7185Z" fill="white"/>
<path d="M25.9437 24.4951H23.0382C21.0282 24.4951 19.3988 26.1245 19.3988 28.1346V36.416C19.3988 38.426 21.0282 40.0554 23.0382 40.0554H25.9437C27.9537 40.0554 29.5832 38.426 29.5832 36.416V28.1346C29.5832 26.1245 27.9537 24.4951 25.9437 24.4951Z" fill="white"/>
<path d="M16.4665 22.1116C16.7502 24.2302 16.2811 26.0651 15.4148 26.2126C14.5484 26.3602 13.6177 24.7599 13.334 22.6451C13.0503 20.5303 13.5156 18.6954 14.3819 18.5479C15.2483 18.4003 16.179 19.9817 16.4665 22.1116Z" fill="white"/>
<path d="M32.5189 22.1116C32.2314 24.2302 32.7005 26.0651 33.5669 26.2126C34.4332 26.3602 35.3639 24.7599 35.6514 22.6451C35.9389 20.5303 35.466 18.6954 34.5997 18.5479C33.7333 18.4003 32.8027 19.9817 32.5189 22.1116Z" fill="white"/>
<path d="M15.3054 20.8449C14.9825 18.7289 14.6622 16.6153 14.3444 14.5043C14.2272 13.7477 14.1137 12.9267 14.3936 12.2041C14.6736 11.4815 15.4945 10.9027 16.2247 11.1751C15.9334 9.7072 17.5602 8.62142 18.9751 8.14852C21.3431 7.28088 23.8787 6.96894 26.3864 7.23677C28.9028 7.51881 31.2378 8.68364 32.9767 10.5244C33.5245 11.1005 33.9481 11.783 34.2214 12.5295C34.7094 13.9784 34.3992 15.556 34.0852 17.0693L33.3285 20.6369C33.2934 20.9113 33.1878 21.1719 33.0221 21.3935C32.727 21.7226 32.2276 21.7453 31.785 21.7453L17.6056 21.7794C16.7165 21.7794 15.5588 21.56 15.4416 20.6785" fill="white"/>
</svg>
