<svg width="18" height="19" viewBox="0 0 18 19" fill="none" xmlns="http://www.w3.org/2000/svg">
<path d="M3.38005 9.74556C3.38005 10.5179 3.37555 11.248 3.38005 11.9787C3.38343 12.3786 3.62699 12.6644 3.9988 12.7347C4.16119 12.7663 4.32951 12.7412 4.47562 12.6636C4.62172 12.586 4.73674 12.4605 4.80147 12.3083C4.85215 12.1678 4.8773 12.0194 4.87572 11.8701C4.88416 11.2795 4.8791 10.6889 4.8791 10.0988V9.80968C4.9151 9.77986 4.92916 9.75849 4.94322 9.75849C5.86121 9.75343 6.77977 9.74218 7.69946 9.7523C8.02458 9.75568 8.22708 9.98574 8.25465 10.3148C8.26027 10.38 8.25465 10.4459 8.25465 10.5111C8.25465 12.7513 8.25465 14.9914 8.25465 17.2313C8.25465 17.8236 8.07521 18.0013 7.48234 18.0019H0.76275C0.172127 18.0019 0 17.8264 0 17.2262C0 14.9762 0 12.7262 0 10.4762C0 9.94468 0.196307 9.745 0.726742 9.745C1.60086 9.745 2.47331 9.74556 3.38005 9.74556Z" fill="#EB1E26"/>
<path d="M13.1246 9.76375C13.1246 10.5074 13.119 11.2189 13.1246 11.9305C13.1308 12.5042 13.582 12.8654 14.0893 12.718C14.4122 12.6229 14.6203 12.3451 14.6237 11.9766C14.6299 11.3489 14.6237 10.7206 14.6237 10.0928V9.76601C14.7233 9.75926 14.8048 9.74856 14.8864 9.74856C15.6924 9.74856 16.4985 9.74575 17.3051 9.74856C17.7979 9.74856 17.9998 9.95669 17.9998 10.4551C17.9998 12.7426 17.9998 15.03 17.9998 17.3175C17.9998 17.7979 17.7951 18.0043 17.3181 18.0049C15.0219 18.0049 12.7256 18.0049 10.4292 18.0049C9.95553 18.0049 9.74629 17.7957 9.74573 17.3153C9.74573 15.0278 9.74573 12.7403 9.74573 10.4528C9.74573 9.96344 9.95947 9.74969 10.4472 9.74856C11.2532 9.74575 12.0593 9.74856 12.8659 9.74856C12.9418 9.74688 13.015 9.75644 13.1246 9.76375Z" fill="#EB1E26"/>
<path d="M8.26025 0.000314284C8.26025 0.766436 8.25519 1.49542 8.26025 2.22442C8.26419 2.6536 8.53868 2.95567 8.92849 2.99054C9.38918 3.02879 9.73793 2.71492 9.74524 2.23343C9.75424 1.60512 9.74524 0.977369 9.74524 0.34906V0.0222456C9.84368 0.0143707 9.92356 0.00255219 10.0034 0.00198969C10.8191 0.00198969 11.6345 0.00198969 12.4497 0.00198969C12.9144 0.00198969 13.1202 0.204494 13.1208 0.668554C13.1208 2.97442 13.1208 5.28066 13.1208 7.58727C13.1208 8.05021 12.9149 8.25607 12.4492 8.25664C10.1527 8.25889 7.85619 8.25889 5.5597 8.25664C5.07933 8.25664 4.87964 8.05245 4.87964 7.56758C4.87964 5.27109 4.87964 2.9746 4.87964 0.678112C4.87964 0.20899 5.0827 0.00311578 5.5417 0.00311578C6.43663 -0.00138419 7.32651 0.000314284 8.26025 0.000314284Z" fill="#EB1E26"/>
</svg>
