<svg width="16" height="16" viewBox="0 0 16 16" fill="none" xmlns="http://www.w3.org/2000/svg">
<g clip-path="url(#clip0_3_12906)">
<path d="M15.9913 12.9779C15.9916 12.8497 15.9666 12.7228 15.9178 12.6043C15.8689 12.4858 15.7971 12.3781 15.7065 12.2875C15.6158 12.1968 15.5082 12.1249 15.3897 12.076C15.2713 12.027 15.1443 12.0019 15.0161 12.0022C14.3393 11.9884 13.6627 11.9884 12.9864 12.0022C12.4172 12.0122 12.0161 12.427 11.9974 13.0016C11.9924 13.1628 11.9974 13.3246 11.9974 13.4808H11.0116V8.52034H11.9968C11.9968 8.67214 11.9968 8.80519 11.9968 8.93824C12.0062 9.58601 12.406 9.99266 13.0501 10.0002C13.6942 10.0077 14.3408 10.0089 14.9867 10.0002C15.574 9.99079 15.9863 9.57539 15.9938 8.98946C16.0021 8.33399 16.0021 7.67831 15.9938 7.02241C15.9869 6.43461 15.5771 6.01609 14.9942 6.00734C14.3279 5.99652 13.6615 5.99652 12.9951 6.00734C12.4247 6.01671 12.0199 6.42899 11.9999 6.99805C11.9937 7.15921 11.9999 7.32162 11.9999 7.48653H11.0228V2.52362H11.9999C11.9999 2.6929 11.9962 2.84657 11.9999 2.99961C12.0174 3.57242 12.416 3.99095 12.9832 3.99907C13.66 4.01239 14.3366 4.01239 15.013 3.99907C15.5809 3.98782 15.9876 3.56805 15.9951 2.99961C16.0038 2.3331 16.0051 1.66722 15.9951 1.00071C15.9966 0.869915 15.9719 0.740142 15.9225 0.619028C15.8731 0.497914 15.8 0.387905 15.7074 0.295475C15.6149 0.203044 15.5047 0.130062 15.3836 0.0808207C15.2624 0.031579 15.1325 0.00707217 15.0017 0.00874712C14.3354 -0.00124741 13.669 -0.00124741 13.0026 0.00874712C12.421 0.016243 12.0149 0.434139 11.9993 1.02319C11.9949 1.17498 11.9993 1.3274 11.9993 1.50543H11.154C10.3837 1.50543 10.0008 1.88709 10.0001 2.6548C10.0001 4.15398 10.0001 5.65316 10.0001 7.15234V7.50278C9.68777 7.50278 9.41789 7.50965 9.14926 7.49778C9.08053 7.49778 8.97745 7.4503 8.95309 7.39658C8.81502 7.08425 8.55701 6.95932 8.25027 6.88749C7.89792 6.80253 7.7586 6.45023 7.94352 6.13165C8.23839 5.6263 8.20529 5.34708 7.79921 4.93793C7.70425 4.84173 7.61179 4.74491 7.51184 4.65121C7.16761 4.31889 6.85837 4.28266 6.4398 4.52628C6.02122 4.76989 5.7226 4.64809 5.59516 4.18209C5.46271 3.69736 5.22407 3.51246 4.72053 3.50808C4.60621 3.50808 4.49126 3.50808 4.37693 3.50808C3.7522 3.50808 3.54541 3.66737 3.38486 4.27204C3.36694 4.34814 3.33112 4.41886 3.28036 4.47833C3.22959 4.53779 3.16536 4.58427 3.09301 4.6139C3.02066 4.64354 2.94228 4.65547 2.86438 4.6487C2.78649 4.64193 2.71133 4.61667 2.64518 4.575C2.10478 4.26267 1.85052 4.29703 1.40446 4.74116C1.31637 4.82924 1.22641 4.91669 1.14019 5.00664C0.820329 5.33958 0.782846 5.65066 1.01525 6.05294C1.27513 6.50832 1.15831 6.77942 0.640407 6.92746C0.211841 7.04865 0.0156755 7.30226 0.00817871 7.73952C0.00817871 7.87445 0.00817871 8.01 0.00817871 8.14555C0.00817871 8.75022 0.176234 8.96947 0.752861 9.12126C1.10771 9.21434 1.25264 9.55853 1.0696 9.8746C0.765353 10.3968 0.799714 10.661 1.22703 11.0908C1.31512 11.1795 1.40258 11.2688 1.49192 11.3557C1.83864 11.6924 2.14601 11.7305 2.56271 11.4925C2.99752 11.2426 3.28365 11.3638 3.42109 11.856C3.54603 12.3058 3.79155 12.4988 4.24948 12.5063C4.41566 12.5094 4.58246 12.5063 4.74927 12.5063C5.21719 12.5 5.46209 12.3133 5.58766 11.8691C5.73197 11.3588 6.00998 11.2445 6.46228 11.5C6.86086 11.7267 7.17385 11.6874 7.50871 11.3657C7.59867 11.2795 7.68613 11.1895 7.77422 11.1008C8.21153 10.6598 8.24652 10.3993 7.93353 9.85899C7.89218 9.7926 7.86743 9.71723 7.86139 9.63925C7.85536 9.56128 7.86821 9.48299 7.89886 9.41104C7.92951 9.33908 7.97705 9.27557 8.03746 9.22589C8.09787 9.17621 8.16937 9.14182 8.2459 9.12564C8.55264 9.05193 8.81377 8.93199 8.95121 8.62029C8.9685 8.59152 8.99211 8.56706 9.02025 8.54877C9.04839 8.53048 9.08033 8.51884 9.11364 8.51472C9.40102 8.5041 9.68902 8.50972 10.002 8.50972V8.88452C10.002 10.3937 10.002 11.9029 10.002 13.412C10.002 14.0992 10.4043 14.4983 11.0872 14.5046C11.3845 14.5077 11.6825 14.5046 11.9999 14.5046C11.9999 14.682 11.9999 14.8169 11.9999 14.95C12.0105 15.594 12.4154 15.9988 13.0619 16.0031C13.7085 16.0075 14.3533 16.0106 14.9986 16.0031C15.5665 15.995 15.9882 15.5809 15.9982 15.0168C16.0049 14.3342 16.0026 13.6546 15.9913 12.9779ZM4.50438 9.74155C4.04131 9.74155 3.59714 9.55797 3.26924 9.23104C2.94133 8.90411 2.75645 8.46051 2.75513 7.9975C2.75768 7.54019 2.93927 7.10207 3.26098 6.777C3.5827 6.45194 4.01895 6.2658 4.47626 6.25845C4.93891 6.25495 5.3841 6.43486 5.7144 6.75879C6.04469 7.08273 6.23319 7.52431 6.23863 7.98689C6.24014 8.44915 6.05856 8.8932 5.73359 9.222C5.40861 9.5508 4.96668 9.73759 4.50438 9.74155Z" fill="#EB1E26"/>
<path d="M5.24151 7.98001C5.24316 8.07912 5.22513 8.17759 5.18847 8.26969C5.15181 8.36179 5.09725 8.44572 5.02794 8.51659C4.95862 8.58747 4.87593 8.64389 4.78466 8.6826C4.69339 8.72131 4.59535 8.74153 4.4962 8.74209C4.3017 8.73871 4.11612 8.65987 3.97868 8.52221C3.84124 8.38455 3.76269 8.19886 3.75964 8.00437C3.76055 7.80963 3.83722 7.62289 3.97341 7.48368C4.10961 7.34447 4.29464 7.26372 4.48933 7.25853C4.68382 7.25774 4.87099 7.33256 5.01133 7.46718C5.15168 7.6018 5.23421 7.78568 5.24151 7.98001Z" fill="#EB1E26"/>
</g>
<defs>
<clipPath id="clip0_3_12906">
<rect width="16" height="16" fill="white"/>
</clipPath>
</defs>
</svg>
