<svg width="15" height="16" viewBox="0 0 15 16" fill="none" xmlns="http://www.w3.org/2000/svg">
<path d="M14.0399 12.7982C13.8609 12.8089 13.6827 12.8297 13.5061 12.8605C13.3656 12.8872 13.286 12.8732 13.2893 12.7022C13.2893 12.5964 13.2607 12.4901 13.2425 12.382C13.1488 12.3731 13.1268 12.4569 13.0833 12.5023C10.9564 14.734 8.37204 15.5395 5.41917 14.6858C2.48549 13.8378 0.729502 11.7887 0.122631 8.78991C-0.0791906 7.79157 -0.0178484 6.78808 0.204109 5.79302C0.24157 5.62304 0.29776 5.57527 0.465867 5.63895C0.611495 5.69453 0.762443 5.73501 0.916337 5.75976C1.08632 5.78645 1.09475 5.8567 1.0629 6.01357C0.564202 8.4654 1.17997 10.5965 2.99075 12.329C5.62286 14.8483 9.86862 14.691 12.3387 12.0167C12.3996 11.9512 12.4825 11.8978 12.5068 11.7723C12.4703 11.7685 12.4335 11.7666 12.3968 11.7667C12.0034 11.7873 12.0034 11.7873 11.9547 11.3874C11.899 10.9313 11.8995 10.9346 12.3617 10.8816C12.8238 10.8287 13.2907 10.7721 13.7538 10.707C13.8812 10.6892 13.9341 10.7131 13.9491 10.8475C14.0153 11.444 14.0872 12.04 14.1649 12.6353C14.1818 12.7542 14.1495 12.7898 14.0399 12.7982Z" fill="#EB1E26"/>
<path d="M14.8779 6.22279C14.2692 3.23526 12.5202 1.19316 9.6006 0.339979C6.6908 -0.510389 4.12471 0.258041 1.99505 2.43172C1.95618 2.47153 1.93792 2.54832 1.85457 2.53427C1.77637 2.07022 1.77637 2.07022 1.31373 2.13953C1.22007 2.15311 1.12923 2.16949 1.03604 2.17839C0.95316 2.18588 0.911486 2.20648 0.926471 2.30763C1.0145 2.90076 1.09817 3.49483 1.17746 4.08984C1.1887 4.176 1.23037 4.19052 1.30248 4.18068C1.88875 4.09733 2.47486 4.01399 3.06082 3.93064C3.13153 3.9208 3.19427 3.91003 3.17414 3.8014C3.13574 3.59489 3.11233 3.38557 3.08751 3.17673C3.0758 3.07933 3.03366 3.05404 2.93392 3.05638C2.83418 3.05872 2.73256 3.14489 2.63189 3.06529C2.64949 3.0324 2.66986 3.00107 2.69276 2.97163C3.85593 1.75415 5.27805 1.05502 6.95397 0.923903C7.94409 0.84257 8.93982 0.985231 9.86728 1.34129C10.7947 1.69736 11.6301 2.25769 12.3115 2.98071C12.9928 3.70373 13.5026 4.57089 13.803 5.51784C14.1034 6.46479 14.1867 7.46723 14.0468 8.45078C14.0196 8.64886 13.8721 8.90313 13.9812 9.02675C14.0903 9.15037 14.3722 9.13492 14.5679 9.20657C14.7552 9.27587 14.8049 9.20657 14.8377 9.03519C15.0222 8.09913 15.0685 7.15698 14.8779 6.22279ZM2.63704 3.09103L2.60894 3.08776C2.61643 3.08167 2.62346 3.07464 2.63095 3.06809C2.63283 3.07558 2.63469 3.08307 2.63704 3.09103Z" fill="#EB1E26"/>
<path d="M7.06762 11.7871C6.97396 11.7969 6.93135 11.7468 6.88031 11.7168C5.88478 11.138 4.89159 10.5551 3.89372 9.97957C3.75886 9.90184 3.69939 9.8213 3.70033 9.656C3.70876 8.33924 3.70501 7.02248 3.70501 5.70385C3.79866 5.69167 3.85626 5.75583 3.91994 5.79282C4.9033 6.3627 5.88244 6.93819 6.87001 7.50338C7.01564 7.58673 7.07604 7.67336 7.07511 7.84662C7.06387 9.15589 7.06762 10.4652 7.06762 11.7871Z" fill="#EB1E26"/>
<path d="M11.2981 5.87451C11.2981 7.13882 11.2981 8.40032 11.3032 9.66276C11.3032 9.81495 11.2597 9.89689 11.1267 9.97322C10.0745 10.5782 9.02746 11.1907 7.9364 11.829V10.4382C7.9364 9.56412 7.9364 8.69111 7.9364 7.8192C7.9364 7.70729 7.94062 7.62019 8.0619 7.55042C9.12158 6.94168 10.1761 6.32451 11.2325 5.71062C11.2475 5.70501 11.2633 5.70168 11.2793 5.70078C11.3205 5.75228 11.2981 5.81738 11.2981 5.87451Z" fill="#EB1E26"/>
<path d="M10.8554 4.90917C9.76008 5.54695 8.69057 6.16927 7.62433 6.793C7.55549 6.83327 7.50024 6.86231 7.41361 6.81127C6.3341 6.17755 5.25304 5.54695 4.17041 4.91948C4.20132 4.84502 4.26406 4.82864 4.31838 4.79773C5.32671 4.20866 6.33473 3.61973 7.34243 3.03096C7.44217 2.9729 7.52038 2.942 7.63791 3.01177C8.67652 3.62519 9.71981 4.22925 10.7617 4.838C10.7851 4.85579 10.8081 4.87593 10.8554 4.90917Z" fill="#EB1E26"/>
<path d="M2.63443 3.06541L2.63102 3.06833C2.63081 3.06573 2.63081 3.06312 2.63102 3.06052L2.63785 3.06443L2.63443 3.06541Z" fill="#EB1E26"/>
<path d="M2.60901 3.08768C2.61647 3.08162 2.62347 3.07462 2.63094 3.06808C2.63094 3.07555 2.63466 3.08301 2.637 3.09094L2.60901 3.08768Z" fill="#EB1E26"/>
</svg>
