<svg width="16" height="15" viewBox="0 0 16 15" fill="none" xmlns="http://www.w3.org/2000/svg">
<path d="M14.6559 11.9855C14.6705 12.0952 14.6416 12.2062 14.5745 12.2972C14.5074 12.3882 14.4069 12.453 14.2921 12.4791C14.2027 12.498 14.1112 12.5063 14.0196 12.504C10.7638 12.504 7.5074 12.504 4.2503 12.504C3.38409 12.504 2.76687 12.0216 2.65415 11.2712C2.53641 10.4856 3.17618 9.74775 4.02185 9.69853C4.17816 9.68915 4.33598 9.69853 4.52735 9.69853C4.20973 8.2876 3.90412 6.92916 3.59902 5.57073C3.40363 4.70011 3.20842 3.82949 3.01336 2.95887C2.89212 2.41559 2.61558 2.20184 2.02592 2.1995C1.51691 2.19715 1.0074 2.19715 0.498399 2.192C0.269948 2.192 0.0665387 2.10106 0.0149368 1.89059C-0.0201859 1.73658 0.00713551 1.57586 0.0915897 1.43965C0.163732 1.33887 0.354612 1.26762 0.49539 1.26387C1.08756 1.24747 1.68123 1.25028 2.2734 1.26716C3.04042 1.28919 3.72627 1.81184 3.92667 2.52246C4.02343 2.85375 4.10085 3.18971 4.15862 3.52887C4.19068 3.7248 4.28286 3.75996 4.47124 3.75574C4.96271 3.74402 5.45468 3.75152 5.96619 3.75152C5.95367 5.95886 6.89753 7.68619 8.98265 8.73337C11.0678 9.78056 13.1138 9.55603 15.0897 8.30775C14.9334 8.99306 14.7891 9.64837 14.6313 10.2995C14.5847 10.4902 14.4214 10.5966 14.2125 10.6215C14.1126 10.6305 14.0122 10.6336 13.9119 10.6309H4.39309C4.31794 10.6309 4.24279 10.6309 4.16765 10.6309C3.85803 10.6412 3.6431 10.8254 3.63609 11.0846C3.62908 11.3438 3.8435 11.5435 4.14559 11.5646C4.22876 11.5702 4.31242 11.5646 4.39609 11.5646H13.9149C14.0151 11.5617 14.1155 11.5637 14.2155 11.5707C14.3296 11.5795 14.4367 11.6262 14.5174 11.7022C14.5981 11.7782 14.6472 11.8787 14.6559 11.9855Z" fill="#EB1E26"/>
<path d="M11.6549 0.000976562C11.0839 0.00177355 10.5187 0.107964 9.99165 0.313473C9.4646 0.518983 8.98607 0.819772 8.58346 1.1986C8.18086 1.57743 7.86209 2.02686 7.64543 2.52114C7.42877 3.01543 7.31847 3.54485 7.32084 4.07909C7.32363 5.15392 7.78257 6.1837 8.59675 6.94196C9.41092 7.70023 10.5136 8.12487 11.6624 8.12251C12.8111 8.12164 13.9126 7.69489 14.7257 6.93571C15.5388 6.17654 15.9972 5.14681 16.0005 4.07205C16.001 2.99308 15.5435 1.95808 14.7286 1.19464C13.9137 0.431207 12.8081 0.00184649 11.6549 0.000976562ZM13.8437 3.04784C13.6173 3.31737 13.3648 3.56815 13.1228 3.8269C12.6014 4.38502 12.0792 4.94283 11.5562 5.50033C11.208 5.87017 10.8253 5.88329 10.454 5.54064C10.0506 5.16564 9.64977 4.79064 9.25165 4.41564C8.9225 4.10486 8.90096 3.7308 9.18853 3.46549C9.4761 3.20018 9.86737 3.23112 10.205 3.5419C10.4425 3.76065 10.6796 3.98033 10.9164 4.20096C10.9275 4.21127 10.9465 4.21315 10.9766 4.22487C11.5717 3.58877 12.1724 2.95081 12.7676 2.30862C12.9369 2.12534 13.1363 2.01238 13.3993 2.04097C13.5182 2.05201 13.6316 2.093 13.7275 2.15959C13.8235 2.22617 13.8983 2.31586 13.944 2.41908C13.9898 2.52231 14.0048 2.63521 13.9874 2.74577C13.97 2.85633 13.9208 2.9604 13.8452 3.0469L13.8437 3.04784Z" fill="#EB1E26"/>
<path d="M7.98316 14.0596C7.98422 14.3081 7.87982 14.5468 7.69288 14.7233C7.50594 14.8998 7.25176 14.9996 6.9862 15.0009C6.72071 15.0016 6.46576 14.9038 6.27734 14.7288C6.08891 14.5538 5.9824 14.316 5.98121 14.0676C5.98027 13.8192 6.08474 13.5806 6.27166 13.4042C6.45859 13.2278 6.71269 13.1281 6.97817 13.1268C7.24357 13.1261 7.49844 13.2239 7.68686 13.3988C7.87527 13.5737 7.98183 13.8113 7.98316 14.0596Z" fill="#EB1E26"/>
<path d="M13.3293 14.0587C13.3289 14.307 13.2239 14.5452 13.0371 14.7216C12.8503 14.8979 12.5967 14.9983 12.3313 15.0009C12.1999 15.0017 12.0697 14.9782 11.9481 14.9317C11.8265 14.8851 11.716 14.8166 11.6228 14.7299C11.5297 14.6432 11.4558 14.5402 11.4054 14.4267C11.355 14.3132 11.3292 14.1915 11.3293 14.0685C11.3275 13.9456 11.3518 13.8235 11.4008 13.7094C11.4498 13.5954 11.5226 13.4915 11.6148 13.4039C11.707 13.3163 11.8169 13.2467 11.9381 13.1991C12.0593 13.1516 12.1894 13.127 12.3208 13.1268C12.5862 13.1266 12.841 13.2243 13.0298 13.3988C13.2186 13.5733 13.3262 13.8104 13.3293 14.0587Z" fill="#EB1E26"/>
</svg>
