<svg width="29" height="29" viewBox="0 0 29 29" fill="none" xmlns="http://www.w3.org/2000/svg">
<g filter="url(#filter0_d_3_13107)">
<path d="M24.4382 8.63555C24.0756 8.51322 23.7028 8.42366 23.3241 8.36793C22.4085 8.30342 21.861 7.84463 21.6698 6.96053C21.6322 6.81429 21.644 6.65975 21.7033 6.52088C21.9925 5.99519 22.3081 5.48146 22.6213 4.97011C22.7237 4.83927 22.7726 4.6744 22.7579 4.5089C22.7433 4.34341 22.6662 4.18967 22.5424 4.07884C21.9925 3.52767 21.4419 2.97729 20.8904 2.42771C20.7853 2.30722 20.6388 2.23053 20.4799 2.21283C20.3209 2.19513 20.1612 2.23771 20.0321 2.33213C19.7629 2.46876 19.5061 2.62866 19.2647 2.81002C18.5953 3.39305 17.9068 3.45518 17.1752 2.96056C17.0344 2.87567 16.924 2.74858 16.8596 2.59735C16.6756 1.94264 16.5273 1.2736 16.36 0.61411C16.2429 0.152942 16.0492 0.00238947 15.5758 0C14.8538 0 14.1302 0 13.4051 0C12.9269 0 12.7476 0.15292 12.6281 0.621257C12.4949 1.06558 12.3871 1.51713 12.3053 1.97371C12.2193 2.59497 11.9945 3.05136 11.3156 3.16844C11.1865 3.18995 11.0765 3.31421 10.945 3.33333C10.7746 3.37492 10.5957 3.36494 10.431 3.30466C9.87876 3.00597 9.34803 2.67145 8.81012 2.34887C8.68145 2.25442 8.52214 2.21135 8.36339 2.22814C8.20464 2.24494 8.05787 2.32036 7.95184 2.43964C7.3972 2.98603 6.84654 3.53642 6.29987 4.09077C6.17944 4.19501 6.102 4.34022 6.08257 4.49826C6.06313 4.6563 6.10308 4.81594 6.19467 4.94622C6.38353 5.30988 6.59678 5.66031 6.83299 5.99517C7.28484 6.56387 7.39481 7.11584 7.00034 7.76578C6.87842 7.9665 6.78756 8.10748 6.5461 8.16005C5.90539 8.30103 5.26946 8.4659 4.63353 8.63794C4.15539 8.75981 4.00239 8.94619 4 9.44559C4 10.1409 4 10.8386 4 11.534C4 12.0836 4.13627 12.2508 4.68374 12.387C5.33162 12.5471 5.9819 12.7048 6.62979 12.8649C6.86886 12.927 7.46892 14.1385 7.3709 14.3703C7.33502 14.4443 7.29347 14.5154 7.24659 14.5829C6.98123 15.0274 6.72063 15.4766 6.4457 15.9163C6.38773 15.9885 6.34468 16.0716 6.31905 16.1606C6.29343 16.2496 6.28572 16.3428 6.29639 16.4348C6.30707 16.5269 6.3359 16.6158 6.38123 16.6966C6.42656 16.7774 6.48747 16.8484 6.56045 16.9055C6.90471 17.2376 7.23942 17.5793 7.57412 17.9186C8.57105 18.9246 8.50171 18.9844 9.67077 18.1767C10.388 17.6725 11.055 17.5148 11.8009 18.0262C11.951 18.1183 12.0681 18.2555 12.1356 18.4181C12.3245 19.0752 12.4727 19.7418 12.6353 20.4037C12.6614 20.5817 12.7554 20.7427 12.8975 20.8531C13.0396 20.9635 13.2189 21.0148 13.3979 20.9963C14.1342 20.9963 14.873 20.9963 15.6117 20.9963C15.784 21.0135 15.9563 20.9638 16.093 20.8575C16.2296 20.7512 16.3201 20.5964 16.3457 20.4252C16.4694 20.0065 16.57 19.5814 16.6469 19.1516C16.7425 18.4491 16.9983 17.9163 17.7729 17.7848C17.8638 17.7705 17.9426 17.6749 18.0311 17.6678C18.1901 17.634 18.3554 17.6439 18.5092 17.6964C19.0017 17.9617 19.4655 18.2651 19.958 18.5471C20.113 18.6267 20.2727 18.697 20.4362 18.7573C20.5967 18.691 20.7485 18.6051 20.888 18.5017C21.4474 17.9617 21.9925 17.4049 22.5424 16.8529C22.6648 16.7507 22.7441 16.6061 22.7645 16.4479C22.7849 16.2898 22.7449 16.1298 22.6524 15.9999C22.4736 15.6618 22.2748 15.3347 22.0571 15.0202C21.6578 14.5089 21.5215 14.0071 21.9304 13.4408C21.983 13.3667 21.9782 13.2448 22.0355 13.1779C22.1431 13.0585 22.2603 12.9055 22.4013 12.8673C23.0588 12.6809 23.7258 12.5352 24.388 12.3655C24.847 12.246 24.9905 12.0573 24.9952 11.5794C24.9952 10.841 24.9952 10.1027 24.9952 9.36674C25.0158 9.19639 24.9692 9.02473 24.8651 8.88821C24.7611 8.75169 24.608 8.66105 24.4382 8.63555ZM14.4379 14.7741C13.5863 14.7641 12.7569 14.5018 12.0546 14.0204C11.3523 13.539 10.8087 12.8601 10.4926 12.0698C10.1765 11.2795 10.1022 10.4132 10.279 9.58055C10.4557 8.74794 10.8757 7.98647 11.4857 7.39254C12.0956 6.79861 12.8682 6.39895 13.7056 6.2441C14.543 6.08925 15.4075 6.18618 16.1897 6.52266C16.9719 6.85914 17.6367 7.42002 18.0998 8.13429C18.5629 8.84857 18.8036 9.68411 18.7914 10.5352C18.775 11.6742 18.3071 12.7603 17.4905 13.555C16.6739 14.3497 15.5752 14.7882 14.4355 14.7741H14.4379Z" fill="white"/>
</g>
<defs>
<filter id="filter0_d_3_13107" x="0" y="0" width="29" height="29" filterUnits="userSpaceOnUse" color-interpolation-filters="sRGB">
<feFlood flood-opacity="0" result="BackgroundImageFix"/>
<feColorMatrix in="SourceAlpha" type="matrix" values="0 0 0 0 0 0 0 0 0 0 0 0 0 0 0 0 0 0 127 0" result="hardAlpha"/>
<feOffset dy="4"/>
<feGaussianBlur stdDeviation="2"/>
<feComposite in2="hardAlpha" operator="out"/>
<feColorMatrix type="matrix" values="0 0 0 0 0 0 0 0 0 0 0 0 0 0 0 0 0 0 0.25 0"/>
<feBlend mode="normal" in2="BackgroundImageFix" result="effect1_dropShadow_3_13107"/>
<feBlend mode="normal" in="SourceGraphic" in2="effect1_dropShadow_3_13107" result="shape"/>
</filter>
</defs>
</svg>
