<svg width="14" height="15" viewBox="0 0 14 15" fill="none" xmlns="http://www.w3.org/2000/svg">
<path d="M12.7641 3.60331C10.5805 3.38691 8.38373 3.27544 6.20666 3.27544C4.9058 3.27556 3.60577 3.34122 2.31152 3.47216L1.00003 3.60331" stroke="#EB1E26" stroke-linecap="round" stroke-linejoin="round"/>
<path d="M4.56738 2.94757L4.71165 2.08854C4.81657 1.46558 4.89526 1 6.02314 1H7.74119C8.8494 1 8.93465 1.49181 9.05268 2.0951L9.19695 2.94757" stroke="#EB1E26" stroke-linecap="round" stroke-linejoin="round"/>
<path d="M11.3542 5.66235L10.9279 12.2657C10.8558 13.2952 10.7968 14.0952 8.96068 14.0952H4.7508C2.92127 14.0952 2.86225 13.2952 2.78356 12.2657L2.35733 5.66235" stroke="#EB1E26" stroke-linecap="round" stroke-linejoin="round"/>
<path d="M5.76715 10.4886H7.9508" stroke="#EB1E26" stroke-linecap="round" stroke-linejoin="round"/>
<path d="M5.22308 7.86564H8.50181" stroke="#EB1E26" stroke-linecap="round" stroke-linejoin="round"/>
</svg>
