<svg width="18" height="21" viewBox="0 0 18 21" fill="none" xmlns="http://www.w3.org/2000/svg">
<g clip-path="url(#clip0_3_13104)">
<path d="M17.7664 17.1053C17.6013 17.4346 17.3444 17.7081 17.0273 17.8922C16.7101 18.0763 16.3466 18.1631 15.9812 18.1419C13.6546 18.1419 11.328 18.1419 9.00133 18.1419C6.72482 18.1419 4.43758 18.1419 2.16644 18.1419C1.32618 18.1419 0.646983 17.8712 0.238929 17.1188C-0.169125 16.3664 -0.0295391 15.5977 0.461736 14.8967C0.7114 14.5449 0.904687 14.1497 1.1812 13.8141C1.45114 13.4831 1.65346 13.1016 1.77647 12.6914C1.89949 12.2812 1.94079 11.8506 1.89799 11.4243C1.83624 10.0087 1.87383 8.59054 1.89799 7.17231C1.91946 3.46165 4.66846 0.365367 8.23893 0.0243441C10.009 -0.170962 11.7872 0.312946 13.2194 1.37973C14.6516 2.44651 15.6329 4.01792 15.9678 5.78115C16.0595 6.2801 16.1045 6.78665 16.102 7.29409C16.1181 8.9938 16.102 10.6935 16.102 12.3932C16.1091 12.6117 16.1729 12.8245 16.2872 13.0103C16.7114 13.6923 17.1651 14.3636 17.6107 15.024C17.8344 15.3182 17.9682 15.6717 17.9959 16.0413C18.0236 16.4109 17.9438 16.7806 17.7664 17.1053Z" fill="white"/>
<path d="M11.5919 19.119C11.4094 20.1123 10.2685 20.9648 9.08725 21.0135C7.83087 21.0514 6.64966 20.2395 6.37047 19.119H11.5919Z" fill="white"/>
</g>
<defs>
<clipPath id="clip0_3_13104">
<rect width="18" height="21" fill="white"/>
</clipPath>
</defs>
</svg>
